<?xml version="1.0" encoding="utf-8" standalone="no"?>
<!DOCTYPE svg PUBLIC "-//W3C//DTD SVG 1.1//EN"
  "http://www.w3.org/Graphics/SVG/1.1/DTD/svg11.dtd">
<svg xmlns:xlink="http://www.w3.org/1999/xlink" width="460.8pt" height="345.6pt" viewBox="0 0 460.8 345.6" xmlns="http://www.w3.org/2000/svg" version="1.1">
 <metadata>
  <rdf:RDF xmlns:dc="http://purl.org/dc/elements/1.1/" xmlns:cc="http://creativecommons.org/ns#" xmlns:rdf="http://www.w3.org/1999/02/22-rdf-syntax-ns#">
   <cc:Work>
    <dc:type rdf:resource="http://purl.org/dc/dcmitype/StillImage"/>
    <dc:date>2023-03-20T01:12:35.865140</dc:date>
    <dc:format>image/svg+xml</dc:format>
    <dc:creator>
     <cc:Agent>
      <dc:title>Matplotlib v3.7.1, https://matplotlib.org/</dc:title>
     </cc:Agent>
    </dc:creator>
   </cc:Work>
  </rdf:RDF>
 </metadata>
 <defs>
  <style type="text/css">*{stroke-linejoin: round; stroke-linecap: butt}</style>
 </defs>
 <g id="figure_1">
  <g id="patch_1">
   <path d="M 0 345.6 
L 460.8 345.6 
L 460.8 0 
L 0 0 
z
" style="fill: #ffffff"/>
  </g>
  <g id="axes_1">
   <g id="patch_2">
    <path d="M 57.6 281.664 
L 414.72 281.664 
L 414.72 67.392 
L 57.6 67.392 
z
" style="fill: #ffffff"/>
   </g>
   <g id="Quiver_1">
    <path d="M 74.870076 272.054986 
L 72.419682 291.515029 
L 74.625001 290.738924 
L 70.206733 300.720545 
L 68.400909 289.955191 
L 70.344984 291.253784 
L 72.795379 271.793741 
L 74.870076 272.054986 
" clip-path="url(#pd1db709067)" style="fill: #fde725"/>
    <path d="M 91.102997 272.053435 
L 88.81345 290.458066 
L 91.017607 289.678666 
L 86.614268 299.666881 
L 84.792349 288.90424 
L 86.738364 290.199925 
L 89.027912 271.795293 
L 91.102997 272.053435 
" clip-path="url(#pd1db709067)" style="fill: #e7e419"/>
    <path d="M 107.336353 272.048276 
L 105.232718 289.673144 
L 107.432974 288.882797 
L 103.079338 298.892776 
L 101.203944 288.139324 
L 103.156375 289.42532 
L 105.26001 271.800452 
L 107.336353 272.048276 
" clip-path="url(#pd1db709067)" style="fill: #d5e21a"/>
    <path d="M 123.570194 272.03856 
L 121.694133 289.11231 
L 123.8869 288.301418 
L 119.62708 298.35168 
L 117.651189 287.616239 
L 119.615563 288.883917 
L 121.491624 271.810167 
L 123.570194 272.03856 
" clip-path="url(#pd1db709067)" style="fill: #c8e020"/>
    <path d="M 139.804404 272.024151 
L 138.204233 288.713753 
L 140.385555 287.87256 
L 136.265382 297.980874 
L 134.14095 287.273838 
L 136.122698 288.514179 
L 137.722869 271.824577 
L 139.804404 272.024151 
" clip-path="url(#pd1db709067)" style="fill: #bddf26"/>
    <path d="M 156.038758 272.005404 
L 154.762472 288.421872 
L 156.928302 287.541557 
L 152.990715 297.722385 
L 150.673933 287.055316 
L 152.677682 288.259791 
L 153.953969 271.843323 
L 156.038758 272.005404 
" clip-path="url(#pd1db709067)" style="fill: #b8de29"/>
    <path d="M 172.27299 271.982916 
L 171.363743 288.193378 
L 173.510094 287.266583 
L 169.792871 297.52992 
L 167.246698 286.915268 
L 169.275944 288.076273 
L 170.185191 271.865811 
L 172.27299 271.982916 
" clip-path="url(#pd1db709067)" style="fill: #b2dd2d"/>
    <path d="M 188.506838 271.957366 
L 188.000289 287.997314 
L 190.12333 287.018299 
L 186.65825 297.369485 
L 183.853214 286.820286 
L 185.91025 287.931309 
L 186.416799 271.891361 
L 188.506838 271.957366 
" clip-path="url(#pd1db709067)" style="fill: #addc30"/>
    <path d="M 204.740073 271.929435 
L 204.663026 287.812975 
L 206.759154 286.777591 
L 203.571854 297.217656 
L 200.485986 286.747161 
L 202.57197 287.802832 
L 202.649017 271.919292 
L 204.740073 271.929435 
" clip-path="url(#pd1db709067)" style="fill: #aadc32"/>
    <path d="M 220.972524 271.899786 
L 221.342339 287.627585 
L 223.408264 286.533179 
L 220.518285 297.059425 
L 217.136756 286.680644 
L 219.251836 287.67674 
L 218.882021 271.948941 
L 220.972524 271.899786 
" clip-path="url(#pd1db709067)" style="fill: #a5db36"/>
    <path d="M 237.204077 271.869067 
L 238.028462 287.434477 
L 240.061319 286.279806 
L 237.482059 296.886467 
L 233.796857 286.611589 
L 235.940308 287.545071 
L 235.115923 271.979661 
L 237.204077 271.869067 
" clip-path="url(#pd1db709067)" style="fill: #a2da37"/>
    <path d="M 253.434689 271.837936 
L 254.711586 287.232072 
L 256.709082 286.017255 
L 254.447472 296.696158 
L 250.45731 286.535821 
L 252.627662 287.404928 
L 251.350765 272.010791 
L 253.434689 271.837936 
" clip-path="url(#pd1db709067)" style="fill: #a0da39"/>
    <path d="M 269.664398 271.807103 
L 271.381831 287.023734 
L 273.342458 285.750269 
L 271.398235 296.49149 
L 267.108794 286.453834 
L 269.303943 287.258256 
L 267.586511 272.041625 
L 269.664398 271.807103 
" clip-path="url(#pd1db709067)" style="fill: #9dd93b"/>
    <path d="M 285.893337 271.777366 
L 288.029265 286.818507 
L 289.952577 285.489356 
L 288.317092 296.281901 
L 283.741647 286.371344 
L 285.958955 287.112503 
L 283.823027 272.071362 
L 285.893337 271.777366 
" clip-path="url(#pd1db709067)" style="fill: #98d83e"/>
    <path d="M 302.12175 271.749657 
L 304.644127 286.632675 
L 306.531101 285.252421 
L 305.18565 296.084946 
L 300.346058 286.300663 
L 302.582446 286.982089 
L 300.060069 272.099071 
L 302.12175 271.749657 
" clip-path="url(#pd1db709067)" style="fill: #98d83e"/>
    <path d="M 318.350005 271.725061 
L 321.217458 286.49188 
L 323.070893 285.066906 
L 321.984811 295.928502 
L 316.91268 286.262721 
L 319.16472 286.890485 
L 316.297268 272.123666 
L 318.350005 271.725061 
" clip-path="url(#pd1db709067)" style="fill: #95d840"/>
    <path d="M 334.578586 271.70478 
L 337.742362 286.433044 
L 339.567222 284.971655 
L 338.69639 295.852624 
L 333.433891 286.289155 
L 335.697918 286.87221 
L 332.534142 272.143947 
L 334.578586 271.70478 
" clip-path="url(#pd1db709067)" style="fill: #95d840"/>
    <path d="M 350.808015 271.689955 
L 354.216128 286.504277 
L 356.019568 285.016535 
L 355.306884 295.909006 
L 349.906022 286.422989 
L 352.178279 286.973095 
L 348.770166 272.158773 
L 350.808015 271.689955 
" clip-path="url(#pd1db709067)" style="fill: #9bd93c"/>
    <path d="M 367.038701 271.681251 
L 370.643465 286.759146 
L 372.434118 285.256038 
L 371.814593 296.154204 
L 366.332821 286.714712 
L 368.609699 287.24537 
L 365.004935 272.167476 
L 367.038701 271.681251 
" clip-path="url(#pd1db709067)" style="fill: #a0da39"/>
    <path d="M 383.270693 271.678197 
L 387.040789 287.2407 
L 388.826917 285.732219 
L 388.240143 296.632197 
L 382.730031 287.20922 
L 385.008493 287.733034 
L 381.238398 272.170531 
L 383.270693 271.678197 
" clip-path="url(#pd1db709067)" style="fill: #addc30"/>
    <path d="M 399.503565 271.678793 
L 403.438049 287.96162 
L 405.225062 286.454187 
L 404.631893 297.35382 
L 399.12731 287.927611 
L 401.405465 288.452762 
L 397.470981 272.169934 
L 399.503565 271.678793 
" clip-path="url(#pd1db709067)" style="fill: #bddf26"/>
    <path d="M 74.844868 223.488337 
L 70.001168 242.18911 
L 72.287605 241.70128 
L 66.629629 251.036223 
L 66.21476 240.128348 
L 67.976886 241.6648 
L 72.820586 222.964027 
L 74.844868 223.488337 
" clip-path="url(#pd1db709067)" style="fill: #f8e621"/>
    <path d="M 91.080613 223.476399 
L 86.729025 241.131289 
L 89.009558 240.616564 
L 83.461915 250.017495 
L 82.918609 239.115263 
L 84.698708 240.630855 
L 89.050296 222.975965 
L 91.080613 223.476399 
" clip-path="url(#pd1db709067)" style="fill: #dfe318"/>
    <path d="M 107.317813 223.457497 
L 103.467482 240.429622 
L 105.73806 239.872622 
L 100.366011 249.374986 
L 99.620273 238.484728 
L 101.42822 239.966991 
L 105.278551 222.994866 
L 107.317813 223.457497 
" clip-path="url(#pd1db709067)" style="fill: #cde11d"/>
    <path d="M 123.555812 223.432889 
L 120.221364 239.965847 
L 122.477878 239.354359 
L 117.336093 248.983268 
L 116.328459 238.114114 
L 118.171558 239.552432 
L 121.506006 223.019474 
L 123.555812 223.432889 
" clip-path="url(#pd1db709067)" style="fill: #c0df25"/>
    <path d="M 139.793932 223.404074 
L 136.988613 239.651618 
L 139.227096 238.977107 
L 134.357289 248.746386 
L 133.045322 237.909755 
L 134.928022 239.295834 
L 137.733341 223.04829 
L 139.793932 223.404074 
" clip-path="url(#pd1db709067)" style="fill: #b8de29"/>
    <path d="M 156.031637 223.372342 
L 153.765342 239.42483 
L 155.982049 238.681877 
L 151.414625 248.596133 
L 149.770407 237.804915 
L 151.694794 239.132509 
L 153.96109 223.080022 
L 156.031637 223.372342 
" clip-path="url(#pd1db709067)" style="fill: #b0dd2f"/>
    <path d="M 172.268565 223.338646 
L 170.547764 239.243479 
L 172.739176 238.428934 
L 168.49611 248.486281 
L 166.502332 237.754148 
L 168.468816 239.018551 
L 170.189617 223.113717 
L 172.268565 223.338646 
" clip-path="url(#pd1db709067)" style="fill: #addc30"/>
    <path d="M 188.504487 223.303618 
L 187.332816 239.080059 
L 189.49559 238.192263 
L 185.593223 248.386642 
L 183.239577 237.727647 
L 185.247478 238.925187 
L 186.419149 223.148746 
L 188.504487 223.303618 
" clip-path="url(#pd1db709067)" style="fill: #a8db34"/>
    <path d="M 204.739264 223.267639 
L 204.11825 238.917172 
L 206.249143 237.955368 
L 202.700418 248.278178 
L 199.980835 237.706626 
L 202.028814 238.834258 
L 202.649827 223.184725 
L 204.739264 223.267639 
" clip-path="url(#pd1db709067)" style="fill: #a5db36"/>
    <path d="M 220.972802 223.230919 
L 220.902511 238.744374 
L 222.998308 237.708318 
L 219.814347 248.149402 
L 216.72513 237.679895 
L 218.811452 238.734899 
L 218.881743 223.221445 
L 220.972802 223.230919 
" clip-path="url(#pd1db709067)" style="fill: #a0da39"/>
    <path d="M 237.205031 223.193563 
L 237.68454 238.556087 
L 239.741985 237.445819 
L 236.933075 247.993988 
L 233.471796 237.641529 
L 235.594478 238.621324 
L 235.114969 223.2588 
L 237.205031 223.193563 
" clip-path="url(#pd1db709067)" style="fill: #9dd93b"/>
    <path d="M 253.435885 223.155631 
L 254.463537 238.350448 
L 256.479301 237.166189 
L 254.055335 247.809414 
L 250.220357 237.589493 
L 252.377223 238.491549 
L 251.34957 223.296732 
L 253.435885 223.155631 
" clip-path="url(#pd1db709067)" style="fill: #9bd93c"/>
    <path d="M 269.665299 223.117194 
L 271.23871 238.128992 
L 273.20941 236.871172 
L 271.179755 247.596579 
L 266.970345 237.525099 
L 269.159021 238.346968 
L 267.58561 223.33517 
L 269.665299 223.117194 
" clip-path="url(#pd1db709067)" style="fill: #98d83e"/>
    <path d="M 285.893226 223.078402 
L 288.008996 237.897174 
L 289.931304 236.566571 
L 288.30397 247.360348 
L 283.721041 237.453249 
L 285.938908 238.192733 
L 283.823138 223.373962 
L 285.893226 223.078402 
" clip-path="url(#pd1db709067)" style="fill: #95d840"/>
    <path d="M 302.119662 223.039573 
L 304.772763 237.665778 
L 306.643659 236.263807 
L 305.423494 247.111159 
L 300.471144 237.383463 
L 302.715258 238.038997 
L 300.062157 223.412791 
L 302.119662 223.039573 
" clip-path="url(#pd1db709067)" style="fill: #93d741"/>
    <path d="M 318.344708 223.001311 
L 321.527486 237.453381 
L 323.344759 235.982568 
L 322.530249 246.867898 
L 317.218328 237.331791 
L 319.485342 237.903122 
L 316.302564 223.451052 
L 318.344708 223.001311 
" clip-path="url(#pd1db709067)" style="fill: #90d743"/>
    <path d="M 334.56867 222.964666 
L 338.269458 237.290097 
L 340.032555 235.754759 
L 339.610797 246.662369 
L 333.958717 237.323856 
L 336.244846 237.81313 
L 332.544057 223.487698 
L 334.56867 222.964666 
" clip-path="url(#pd1db709067)" style="fill: #90d743"/>
    <path d="M 350.792182 222.931286 
L 354.993724 237.22286 
L 356.705009 235.629977 
L 356.644697 246.545572 
L 350.686465 237.399353 
L 352.987542 237.812652 
L 348.786 223.521078 
L 350.792182 222.931286 
" clip-path="url(#pd1db709067)" style="fill: #93d741"/>
    <path d="M 367.016312 222.90348 
L 371.694846 237.321673 
L 373.361132 235.681775 
L 373.604666 246.59482 
L 367.394168 237.617985 
L 369.705858 237.967076 
L 365.027324 223.548883 
L 367.016312 222.90348 
" clip-path="url(#pd1db709067)" style="fill: #98d83e"/>
    <path d="M 383.242449 222.883835 
L 388.370531 237.681816 
L 390.00399 236.009218 
L 390.463753 246.915292 
L 384.076571 238.063302 
L 386.394724 238.36651 
L 381.266642 223.568529 
L 383.242449 222.883835 
" clip-path="url(#pd1db709067)" style="fill: #a5db36"/>
    <path d="M 399.471513 222.873441 
L 405.034775 238.396415 
L 406.650514 236.706693 
L 407.225201 247.607316 
L 400.745074 238.823138 
L 403.066294 239.101896 
L 397.503033 223.578923 
L 399.471513 222.873441 
" clip-path="url(#pd1db709067)" style="fill: #b8de29"/>
    <path d="M 74.774198 174.982738 
L 67.431511 190.184736 
L 69.769191 190.152741 
L 62.397397 198.203238 
L 64.120365 187.424313 
L 65.548569 189.27526 
L 72.891256 174.073262 
L 74.774198 174.982738 
" clip-path="url(#pd1db709067)" style="fill: #c0df25"/>
    <path d="M 91.020675 174.953097 
L 84.566288 189.456517 
L 86.901827 189.351491 
L 79.785192 197.628407 
L 81.170503 186.800907 
L 82.655847 188.606322 
L 89.110234 174.102903 
L 91.020675 174.953097 
" clip-path="url(#pd1db709067)" style="fill: #aadc32"/>
    <path d="M 107.270437 174.912545 
L 101.680589 189.0455 
L 104.009643 188.842335 
L 97.247428 197.411249 
L 98.176114 186.535065 
L 99.736079 188.27641 
L 105.325927 174.143455 
L 107.270437 174.912545 
" clip-path="url(#pd1db709067)" style="fill: #9bd93c"/>
    <path d="M 123.520236 174.866212 
L 118.768343 188.766289 
L 121.085208 188.453386 
L 114.735107 197.332016 
L 115.149248 186.424114 
L 116.789689 188.089865 
L 121.541583 174.189788 
L 123.520236 174.866212 
" clip-path="url(#pd1db709067)" style="fill: #8ed645"/>
    <path d="M 139.768398 174.81715 
L 135.820037 188.537235 
L 138.118711 188.110774 
L 132.212924 197.290944 
L 132.090139 186.375873 
L 133.810513 187.958935 
L 137.758874 174.23885 
L 139.768398 174.81715 
" clip-path="url(#pd1db709067)" style="fill: #84d44b"/>
    <path d="M 156.014208 174.767055 
L 152.83 188.324727 
L 155.104744 187.784993 
L 149.660661 197.246272 
L 148.997677 186.350663 
L 150.794311 187.846618 
L 153.978519 174.288945 
L 156.014208 174.767055 
" clip-path="url(#pd1db709067)" style="fill: #7cd250"/>
    <path d="M 172.257447 174.716781 
L 169.797598 188.116417 
L 172.043091 187.465624 
L 167.070211 197.18284 
L 165.872955 186.332936 
L 167.740886 187.738855 
L 170.200735 174.339219 
L 172.257447 174.716781 
" clip-path="url(#pd1db709067)" style="fill: #77d153"/>
    <path d="M 188.498123 174.666664 
L 186.726247 187.908801 
L 188.937519 187.149824 
L 184.44197 197.096878 
L 182.719693 186.317842 
L 184.653638 187.631474 
L 186.425514 174.389336 
L 188.498123 174.666664 
" clip-path="url(#pd1db709067)" style="fill: #70cf57"/>
    <path d="M 204.736315 174.616714 
L 203.622037 187.701671 
L 205.794291 186.83733 
L 201.781839 196.988885 
L 199.543672 186.305045 
L 201.538497 187.524243 
L 202.652776 174.439286 
L 204.736315 174.616714 
" clip-path="url(#pd1db709067)" style="fill: #6ccd5a"/>
    <path d="M 220.972095 174.566747 
L 220.49262 187.495745 
L 222.621012 186.528417 
L 219.099071 196.860396 
L 216.35208 186.295933 
L 218.402976 187.41825 
L 218.882451 174.489253 
L 220.972095 174.566747 
" clip-path="url(#pd1db709067)" style="fill: #69cd5b"/>
    <path d="M 237.205477 174.516461 
L 237.346478 187.291699 
L 239.425892 186.223145 
L 236.404853 196.712528 
L 233.153033 186.292379 
L 235.255525 187.314777 
L 235.114523 174.539539 
L 237.205477 174.516461 
" clip-path="url(#pd1db709067)" style="fill: #65cb5e"/>
    <path d="M 253.436397 174.465492 
L 254.192493 187.089791 
L 256.217326 185.921106 
L 253.711392 196.54533 
L 249.955305 186.296151 
L 252.105153 187.214806 
L 251.349057 174.590508 
L 253.436397 174.465492 
" clip-path="url(#pd1db709067)" style="fill: #63cb5f"/>
    <path d="M 269.664702 174.413465 
L 271.039703 186.889686 
L 273.003663 185.621368 
L 271.031271 196.357452 
L 266.768176 186.308579 
L 268.961207 187.118756 
L 267.586207 174.642535 
L 269.664702 174.413465 
" clip-path="url(#pd1db709067)" style="fill: #60ca60"/>
    <path d="M 285.890142 174.360035 
L 287.897068 186.690376 
L 289.793024 185.322485 
L 288.376795 196.145985 
L 283.601262 186.330276 
L 285.833147 187.026306 
L 283.826221 174.695965 
L 285.890142 174.360035 
" clip-path="url(#pd1db709067)" style="fill: #60ca60"/>
    <path d="M 302.112381 174.304956 
L 304.773098 186.490209 
L 306.592998 185.022648 
L 305.759022 195.906504 
L 300.464164 186.360912 
L 302.730153 186.936297 
L 300.069437 174.751044 
L 302.112381 174.304956 
" clip-path="url(#pd1db709067)" style="fill: #60ca60"/>
    <path d="M 318.331036 174.248178 
L 321.675095 186.287268 
L 323.410072 184.720224 
L 323.186094 195.633687 
L 317.365674 186.399157 
L 319.660295 186.846912 
L 316.316237 174.807822 
L 318.331036 174.248178 
" clip-path="url(#pd1db709067)" style="fill: #60ca60"/>
    <path d="M 334.545768 174.190014 
L 338.607744 186.080849 
L 340.248566 184.415473 
L 340.660214 195.32347 
L 334.312143 186.443389 
L 336.628937 186.756821 
L 332.56696 174.865986 
L 334.545768 174.190014 
" clip-path="url(#pd1db709067)" style="fill: #60ca60"/>
    <path d="M 350.756512 174.131452 
L 355.570637 185.876011 
L 357.108931 184.115493 
L 358.172152 194.979351 
L 351.304404 186.494784 
L 353.635795 186.669108 
L 348.82167 174.924548 
L 350.756512 174.131452 
" clip-path="url(#pd1db709067)" style="fill: #63cb5f"/>
    <path d="M 366.964025 174.074789 
L 372.554258 185.69665 
L 373.985461 183.848021 
L 375.690952 194.629725 
L 368.332219 186.567288 
L 370.669844 186.603073 
L 365.079611 174.981211 
L 366.964025 174.074789 
" clip-path="url(#pd1db709067)" style="fill: #67cc5c"/>
    <path d="M 383.171196 174.025101 
L 389.533926 185.622662 
L 390.864328 183.700214 
L 393.143364 194.375412 
L 385.364427 186.717606 
L 387.700626 186.628459 
L 381.337895 175.030899 
L 383.171196 174.025101 
" clip-path="url(#pd1db709067)" style="fill: #6ece58"/>
    <path d="M 399.386101 173.9939 
L 406.460608 185.899467 
L 407.724164 183.932439 
L 410.368682 194.523019 
L 402.331197 187.13704 
L 404.662953 186.967668 
L 397.588445 175.0621 
L 399.386101 173.9939 
" clip-path="url(#pd1db709067)" style="fill: #7cd250"/>
    <path d="M 74.62866 126.50779 
L 67.87499 134.436534 
L 70.144827 134.996546 
L 60.977311 140.921956 
L 65.369232 130.928714 
L 66.283125 133.080591 
L 73.036795 125.151846 
L 74.62866 126.50779 
" clip-path="url(#pd1db709067)" style="fill: #3bbb75"/>
    <path d="M 90.921531 126.430058 
L 85.01222 134.858059 
L 87.324612 135.202462 
L 78.753985 141.962506 
L 82.188154 131.601023 
L 83.300067 133.657579 
L 89.209378 125.229578 
L 90.921531 126.430058 
" clip-path="url(#pd1db709067)" style="fill: #3aba76"/>
    <path d="M 107.202167 126.355143 
L 102.167541 135.018788 
L 104.500835 135.165453 
L 96.535635 142.629328 
L 99.076926 132.013505 
L 100.359571 133.968139 
L 105.394197 125.304494 
L 107.202167 126.355143 
" clip-path="url(#pd1db709067)" style="fill: #37b878"/>
    <path d="M 123.472204 126.28492 
L 119.277098 134.961727 
L 121.61479 134.930636 
L 114.239883 142.978281 
L 115.967019 132.200023 
L 117.394507 134.051523 
L 121.589614 125.374716 
L 123.472204 126.28492 
" clip-path="url(#pd1db709067)" style="fill: #32b67a"/>
    <path d="M 139.734165 126.2187 
L 136.313285 134.756155 
L 138.643224 134.56339 
L 131.842821 143.102029 
L 132.820053 132.230099 
L 134.372229 133.978391 
L 137.793108 125.440936 
L 139.734165 126.2187 
" clip-path="url(#pd1db709067)" style="fill: #2db27d"/>
    <path d="M 155.989985 126.155197 
L 153.269186 134.463803 
L 155.581808 134.120939 
L 149.347157 143.081016 
L 149.62008 132.168667 
L 151.281944 133.813046 
L 154.002742 125.50444 
L 155.989985 126.155197 
" clip-path="url(#pd1db709067)" style="fill: #28ae80"/>
    <path d="M 172.240917 126.093187 
L 170.148601 134.131551 
L 172.435622 133.646464 
L 166.766452 142.974613 
L 166.364668 132.066248 
L 168.12495 133.604813 
L 170.217265 125.566449 
L 172.240917 126.093187 
" clip-path="url(#pd1db709067)" style="fill: #25ab82"/>
    <path d="M 188.487684 126.031696 
L 186.960439 133.792556 
L 189.214048 133.170447 
L 184.117671 142.823467 
L 183.058855 131.959179 
L 184.908708 133.3888 
L 186.435953 125.62794 
L 188.487684 126.031696 
" clip-path="url(#pd1db709067)" style="fill: #22a785"/>
    <path d="M 204.730643 125.970021 
L 203.71585 133.46933 
L 205.928247 132.713639 
L 201.417927 142.654004 
L 199.711663 131.872422 
L 201.643655 133.188925 
L 202.658448 125.689615 
L 204.730643 125.970021 
" clip-path="url(#pd1db709067)" style="fill: #20a486"/>
    <path d="M 220.969908 125.907703 
L 220.426921 133.176602 
L 222.590077 132.289737 
L 218.683322 142.482436 
L 216.334265 131.822428 
L 218.341651 133.020833 
L 218.884637 125.751933 
L 220.969908 125.907703 
" clip-path="url(#pd1db709067)" style="fill: #1fa287"/>
    <path d="M 237.205438 125.844478 
L 237.106175 132.923363 
L 239.21171 131.907244 
L 235.928802 142.317641 
L 232.939084 131.819287 
L 235.0153 132.894044 
L 235.114562 125.815159 
L 237.205438 125.844478 
" clip-path="url(#pd1db709067)" style="fill: #1fa188"/>
    <path d="M 253.43709 125.780212 
L 253.766436 132.713996 
L 255.805556 131.570421 
L 253.168527 142.162867 
L 249.539379 131.868057 
L 251.677711 132.813208 
L 251.348364 125.879424 
L 253.43709 125.780212 
" clip-path="url(#pd1db709067)" style="fill: #1fa088"/>
    <path d="M 269.664653 125.714832 
L 270.420793 132.548546 
L 272.384204 131.279377 
L 270.416467 142.016315 
L 266.149015 131.969291 
L 268.342397 132.778518 
L 267.586256 125.944804 
L 269.664653 125.714832 
" clip-path="url(#pd1db709067)" style="fill: #1f9f88"/>
    <path d="M 285.887832 125.64823 
L 287.082471 132.422151 
L 288.960185 131.029325 
L 287.68711 141.870594 
L 282.782281 132.118851 
L 285.02317 132.785326 
L 283.828531 126.011406 
L 285.887832 125.64823 
" clip-path="url(#pd1db709067)" style="fill: #1f9f88"/>
    <path d="M 302.106203 125.580151 
L 303.764461 132.323608 
L 305.545381 130.80898 
L 304.996171 141.710916 
L 299.45362 132.306982 
L 301.733874 132.822942 
L 300.075616 126.079485 
L 302.106203 125.580151 
" clip-path="url(#pd1db709067)" style="fill: #1fa088"/>
    <path d="M 318.319077 125.510047 
L 320.478713 132.232952 
L 322.149822 130.597971 
L 322.361209 141.511685 
L 316.177181 132.516595 
L 318.487832 132.872494 
L 316.328196 126.149589 
L 318.319077 125.510047 
" clip-path="url(#pd1db709067)" style="fill: #1fa188"/>
    <path d="M 334.525262 125.436893 
L 337.234586 132.117706 
L 338.779458 130.362957 
L 339.802014 141.230717 
L 332.966067 132.720508 
L 335.296789 132.903556 
L 332.587465 126.222743 
L 334.525262 125.436893 
" clip-path="url(#pd1db709067)" style="fill: #1fa187"/>
    <path d="M 350.722583 125.358918 
L 354.035887 131.927076 
L 355.431972 130.051784 
L 357.340493 140.799407 
L 349.831018 132.877183 
L 352.168903 132.868875 
L 348.855599 126.300718 
L 350.722583 125.358918 
" clip-path="url(#pd1db709067)" style="fill: #1fa287"/>
    <path d="M 366.906861 125.273173 
L 370.875068 131.582457 
L 372.088509 129.584124 
L 374.999833 140.104487 
L 366.778252 132.923996 
L 369.104983 132.695748 
L 365.136775 126.386463 
L 366.906861 125.273173 
" clip-path="url(#pd1db709067)" style="fill: #20a386"/>
    <path d="M 383.069362 125.174662 
L 387.721608 130.960654 
L 388.696085 128.835527 
L 392.803193 138.949156 
L 383.807187 132.766461 
L 386.091976 132.270966 
L 381.439729 126.484974 
L 383.069362 125.174662 
" clip-path="url(#pd1db709067)" style="fill: #20a386"/>
    <path d="M 399.189053 125.054796 
L 404.501668 129.86535 
L 405.130206 127.613526 
L 410.775089 136.956391 
L 400.919527 132.263659 
L 403.098109 131.415395 
L 397.785493 126.60484 
L 399.189053 125.054796 
" clip-path="url(#pd1db709067)" style="fill: #1fa187"/>
    <path d="M 74.878268 77.131636 
L 74.355497 76.226172 
L 73.309957 76.226172 
L 72.787187 77.131636 
L 73.309957 78.037101 
L 74.355497 78.037101 
L 74.878268 77.131636 
L 74.355497 76.226172 
" clip-path="url(#pd1db709067)" style="fill: #440154"/>
    <path d="M 90.460771 77.301308 
L 90.2911 77.696625 
L 91.251405 77.64065 
L 88.368742 81.084805 
L 88.879504 76.622622 
L 89.500466 77.357282 
L 89.670138 76.961965 
L 90.460771 77.301308 
" clip-path="url(#pd1db709067)" style="fill: #46337f"/>
    <path d="M 106.886909 77.396675 
L 106.62187 77.985402 
L 108.064364 77.926753 
L 103.647793 83.018909 
L 104.532 76.33652 
L 105.444416 77.455325 
L 105.709455 76.866598 
L 106.886909 77.396675 
" clip-path="url(#pd1db709067)" style="fill: #3e4989"/>
    <path d="M 123.209855 77.443737 
L 122.897755 78.122683 
L 124.567747 78.067938 
L 119.409905 83.921095 
L 120.494072 76.195335 
L 121.539863 77.498482 
L 121.851963 76.819536 
L 123.209855 77.443737 
" clip-path="url(#pd1db709067)" style="fill: #3a538b"/>
    <path d="M 139.478156 77.456787 
L 139.153006 78.171307 
L 140.907197 78.107089 
L 135.512128 84.276837 
L 136.620076 76.156184 
L 137.723965 77.521006 
L 138.049116 76.806485 
L 139.478156 77.456787 
" clip-path="url(#pd1db709067)" style="fill: #38588c"/>
    <path d="M 155.717209 77.44501 
L 155.403835 78.165855 
L 157.158899 78.071759 
L 151.862623 84.340086 
L 152.833829 76.191514 
L 153.962145 77.539107 
L 154.275519 76.818262 
L 155.717209 77.44501 
" clip-path="url(#pd1db709067)" style="fill: #38588c"/>
    <path d="M 171.940935 77.415003 
L 171.657569 78.126847 
L 173.364624 77.981736 
L 168.395427 84.250079 
L 169.093558 76.281537 
L 170.23388 77.560114 
L 170.517247 76.84827 
L 171.940935 77.415003 
" clip-path="url(#pd1db709067)" style="fill: #39558c"/>
    <path d="M 188.157193 77.371837 
L 187.916992 78.067211 
L 189.547942 77.852238 
L 185.059813 84.085382 
L 185.375694 76.411035 
L 186.526243 77.58681 
L 186.766444 76.891436 
L 188.157193 77.371837 
" clip-path="url(#pd1db709067)" style="fill: #3b528b"/>
    <path d="M 204.370445 77.319588 
L 204.182493 77.995488 
L 205.722244 77.695493 
L 201.815025 83.89063 
L 201.666847 76.56778 
L 202.830694 77.619584 
L 203.018646 76.943684 
L 204.370445 77.319588 
" clip-path="url(#pd1db709067)" style="fill: #3c4f8a"/>
    <path d="M 220.583159 77.26166 
L 220.453136 77.917546 
L 221.894932 77.521707 
L 218.627038 83.6905 
L 217.959614 76.741566 
L 219.141363 77.657499 
L 219.271386 77.001613 
L 220.583159 77.26166 
" clip-path="url(#pd1db709067)" style="fill: #3e4c8a"/>
    <path d="M 236.796559 77.201022 
L 236.727174 77.837581 
L 238.069677 77.339792 
L 235.466148 83.497227 
L 234.250323 76.923481 
L 235.454056 77.69881 
L 235.523441 77.062251 
L 236.796559 77.201022 
" clip-path="url(#pd1db709067)" style="fill: #3e4989"/>
    <path d="M 253.011011 77.140417 
L 253.00223 77.758701 
L 254.247578 77.157979 
L 252.304919 83.314472 
L 250.537877 77.105294 
L 251.765663 77.741139 
L 251.774444 77.122856 
L 253.011011 77.140417 
" clip-path="url(#pd1db709067)" style="fill: #3f4788"/>
    <path d="M 269.226176 77.082549 
L 269.275264 77.68327 
L 270.427619 76.984374 
L 269.116331 83.138851 
L 266.82329 77.278899 
L 268.073821 77.781445 
L 268.024733 77.180724 
L 269.226176 77.082549 
" clip-path="url(#pd1db709067)" style="fill: #404688"/>
    <path d="M 285.440982 77.030247 
L 285.542371 77.613048 
L 286.606582 76.82747 
L 285.872071 82.959637 
L 283.109782 77.435803 
L 284.376771 77.815825 
L 284.275382 77.233025 
L 285.440982 77.030247 
" clip-path="url(#pd1db709067)" style="fill: #404588"/>
    <path d="M 301.653418 76.986628 
L 301.798426 77.549137 
L 302.778436 76.696612 
L 302.540991 82.756726 
L 299.403382 77.566661 
L 300.673408 77.839153 
L 300.5284 77.276645 
L 301.653418 76.986628 
" clip-path="url(#pd1db709067)" style="fill: #414487"/>
    <path d="M 317.86013 76.955217 
L 318.03655 77.491711 
L 318.933119 76.602377 
L 319.087834 82.496577 
L 315.714154 77.660896 
L 316.963562 77.84455 
L 316.787142 77.308056 
L 317.86013 76.955217 
" clip-path="url(#pd1db709067)" style="fill: #424186"/>
    <path d="M 334.055757 76.940028 
L 334.247365 77.439422 
L 335.054545 76.556812 
L 335.472444 82.125574 
L 332.058182 77.70646 
L 333.248578 77.822638 
L 333.05697 77.323244 
L 334.055757 76.940028 
" clip-path="url(#pd1db709067)" style="fill: #423f85"/>
    <path d="M 350.231928 76.945555 
L 350.418009 77.388392 
L 351.117602 76.573392 
L 351.649906 81.560006 
L 348.46058 77.689881 
L 349.532335 77.760555 
L 349.346254 77.317718 
L 350.231928 76.945555 
" clip-path="url(#pd1db709067)" style="fill: #443983"/>
    <path d="M 366.375891 76.976572 
L 366.530956 77.330645 
L 367.084037 76.666443 
L 367.572463 80.672366 
L 364.959599 77.59683 
L 365.82281 77.640774 
L 365.667745 77.286701 
L 366.375891 76.976572 
" clip-path="url(#pd1db709067)" style="fill: #472f7d"/>
    <path d="M 382.469075 77.037598 
L 382.563114 77.252128 
L 382.898135 76.849522 
L 383.194928 79.276935 
L 381.610956 77.413751 
L 382.134054 77.440204 
L 382.040016 77.225675 
L 382.469075 77.037598 
" clip-path="url(#pd1db709067)" style="fill: #481d6f"/>
    <path d="M 399.532813 77.131636 
L 399.010043 76.226172 
L 397.964503 76.226172 
L 397.441732 77.131636 
L 397.964503 78.037101 
L 399.010043 78.037101 
L 399.532813 77.131636 
L 399.010043 76.226172 
" clip-path="url(#pd1db709067)" style="fill: #440154"/>
   </g>
   <g id="matplotlib.axis_1">
    <g id="xtick_1">
     <g id="line2d_1">
      <defs>
       <path id="meb779b7a89" d="M 0 0 
L 0 3.5 
" style="stroke: #000000; stroke-width: 0.8"/>
      </defs>
      <g>
       <use xlink:href="#meb779b7a89" x="73.832727" y="281.664" style="stroke: #000000; stroke-width: 0.8"/>
      </g>
     </g>
     <g id="text_1">
      <!-- 0.0000 -->
      <g transform="translate(56.337415 296.262437) scale(0.1 -0.1)">
       <defs>
        <path id="DejaVuSans-30" d="M 2034 4250 
Q 1547 4250 1301 3770 
Q 1056 3291 1056 2328 
Q 1056 1369 1301 889 
Q 1547 409 2034 409 
Q 2525 409 2770 889 
Q 3016 1369 3016 2328 
Q 3016 3291 2770 3770 
Q 2525 4250 2034 4250 
z
M 2034 4750 
Q 2819 4750 3233 4129 
Q 3647 3509 3647 2328 
Q 3647 1150 3233 529 
Q 2819 -91 2034 -91 
Q 1250 -91 836 529 
Q 422 1150 422 2328 
Q 422 3509 836 4129 
Q 1250 4750 2034 4750 
z
" transform="scale(0.015625)"/>
        <path id="DejaVuSans-2e" d="M 684 794 
L 1344 794 
L 1344 0 
L 684 0 
L 684 794 
z
" transform="scale(0.015625)"/>
       </defs>
       <use xlink:href="#DejaVuSans-30"/>
       <use xlink:href="#DejaVuSans-2e" x="63.623047"/>
       <use xlink:href="#DejaVuSans-30" x="95.410156"/>
       <use xlink:href="#DejaVuSans-30" x="159.033203"/>
       <use xlink:href="#DejaVuSans-30" x="222.65625"/>
       <use xlink:href="#DejaVuSans-30" x="286.279297"/>
      </g>
     </g>
    </g>
    <g id="xtick_2">
     <g id="line2d_2">
      <g>
       <use xlink:href="#meb779b7a89" x="114.414545" y="281.664" style="stroke: #000000; stroke-width: 0.8"/>
      </g>
     </g>
     <g id="text_2">
      <!-- 0.0025 -->
      <g transform="translate(96.919233 296.262437) scale(0.1 -0.1)">
       <defs>
        <path id="DejaVuSans-32" d="M 1228 531 
L 3431 531 
L 3431 0 
L 469 0 
L 469 531 
Q 828 903 1448 1529 
Q 2069 2156 2228 2338 
Q 2531 2678 2651 2914 
Q 2772 3150 2772 3378 
Q 2772 3750 2511 3984 
Q 2250 4219 1831 4219 
Q 1534 4219 1204 4116 
Q 875 4013 500 3803 
L 500 4441 
Q 881 4594 1212 4672 
Q 1544 4750 1819 4750 
Q 2544 4750 2975 4387 
Q 3406 4025 3406 3419 
Q 3406 3131 3298 2873 
Q 3191 2616 2906 2266 
Q 2828 2175 2409 1742 
Q 1991 1309 1228 531 
z
" transform="scale(0.015625)"/>
        <path id="DejaVuSans-35" d="M 691 4666 
L 3169 4666 
L 3169 4134 
L 1269 4134 
L 1269 2991 
Q 1406 3038 1543 3061 
Q 1681 3084 1819 3084 
Q 2600 3084 3056 2656 
Q 3513 2228 3513 1497 
Q 3513 744 3044 326 
Q 2575 -91 1722 -91 
Q 1428 -91 1123 -41 
Q 819 9 494 109 
L 494 744 
Q 775 591 1075 516 
Q 1375 441 1709 441 
Q 2250 441 2565 725 
Q 2881 1009 2881 1497 
Q 2881 1984 2565 2268 
Q 2250 2553 1709 2553 
Q 1456 2553 1204 2497 
Q 953 2441 691 2322 
L 691 4666 
z
" transform="scale(0.015625)"/>
       </defs>
       <use xlink:href="#DejaVuSans-30"/>
       <use xlink:href="#DejaVuSans-2e" x="63.623047"/>
       <use xlink:href="#DejaVuSans-30" x="95.410156"/>
       <use xlink:href="#DejaVuSans-30" x="159.033203"/>
       <use xlink:href="#DejaVuSans-32" x="222.65625"/>
       <use xlink:href="#DejaVuSans-35" x="286.279297"/>
      </g>
     </g>
    </g>
    <g id="xtick_3">
     <g id="line2d_3">
      <g>
       <use xlink:href="#meb779b7a89" x="154.996364" y="281.664" style="stroke: #000000; stroke-width: 0.8"/>
      </g>
     </g>
     <g id="text_3">
      <!-- 0.0050 -->
      <g transform="translate(137.501051 296.262437) scale(0.1 -0.1)">
       <use xlink:href="#DejaVuSans-30"/>
       <use xlink:href="#DejaVuSans-2e" x="63.623047"/>
       <use xlink:href="#DejaVuSans-30" x="95.410156"/>
       <use xlink:href="#DejaVuSans-30" x="159.033203"/>
       <use xlink:href="#DejaVuSans-35" x="222.65625"/>
       <use xlink:href="#DejaVuSans-30" x="286.279297"/>
      </g>
     </g>
    </g>
    <g id="xtick_4">
     <g id="line2d_4">
      <g>
       <use xlink:href="#meb779b7a89" x="195.578182" y="281.664" style="stroke: #000000; stroke-width: 0.8"/>
      </g>
     </g>
     <g id="text_4">
      <!-- 0.0075 -->
      <g transform="translate(178.082869 296.262437) scale(0.1 -0.1)">
       <defs>
        <path id="DejaVuSans-37" d="M 525 4666 
L 3525 4666 
L 3525 4397 
L 1831 0 
L 1172 0 
L 2766 4134 
L 525 4134 
L 525 4666 
z
" transform="scale(0.015625)"/>
       </defs>
       <use xlink:href="#DejaVuSans-30"/>
       <use xlink:href="#DejaVuSans-2e" x="63.623047"/>
       <use xlink:href="#DejaVuSans-30" x="95.410156"/>
       <use xlink:href="#DejaVuSans-30" x="159.033203"/>
       <use xlink:href="#DejaVuSans-37" x="222.65625"/>
       <use xlink:href="#DejaVuSans-35" x="286.279297"/>
      </g>
     </g>
    </g>
    <g id="xtick_5">
     <g id="line2d_5">
      <g>
       <use xlink:href="#meb779b7a89" x="236.16" y="281.664" style="stroke: #000000; stroke-width: 0.8"/>
      </g>
     </g>
     <g id="text_5">
      <!-- 0.0100 -->
      <g transform="translate(218.664687 296.262437) scale(0.1 -0.1)">
       <defs>
        <path id="DejaVuSans-31" d="M 794 531 
L 1825 531 
L 1825 4091 
L 703 3866 
L 703 4441 
L 1819 4666 
L 2450 4666 
L 2450 531 
L 3481 531 
L 3481 0 
L 794 0 
L 794 531 
z
" transform="scale(0.015625)"/>
       </defs>
       <use xlink:href="#DejaVuSans-30"/>
       <use xlink:href="#DejaVuSans-2e" x="63.623047"/>
       <use xlink:href="#DejaVuSans-30" x="95.410156"/>
       <use xlink:href="#DejaVuSans-31" x="159.033203"/>
       <use xlink:href="#DejaVuSans-30" x="222.65625"/>
       <use xlink:href="#DejaVuSans-30" x="286.279297"/>
      </g>
     </g>
    </g>
    <g id="xtick_6">
     <g id="line2d_6">
      <g>
       <use xlink:href="#meb779b7a89" x="276.741818" y="281.664" style="stroke: #000000; stroke-width: 0.8"/>
      </g>
     </g>
     <g id="text_6">
      <!-- 0.0125 -->
      <g transform="translate(259.246506 296.262437) scale(0.1 -0.1)">
       <use xlink:href="#DejaVuSans-30"/>
       <use xlink:href="#DejaVuSans-2e" x="63.623047"/>
       <use xlink:href="#DejaVuSans-30" x="95.410156"/>
       <use xlink:href="#DejaVuSans-31" x="159.033203"/>
       <use xlink:href="#DejaVuSans-32" x="222.65625"/>
       <use xlink:href="#DejaVuSans-35" x="286.279297"/>
      </g>
     </g>
    </g>
    <g id="xtick_7">
     <g id="line2d_7">
      <g>
       <use xlink:href="#meb779b7a89" x="317.323636" y="281.664" style="stroke: #000000; stroke-width: 0.8"/>
      </g>
     </g>
     <g id="text_7">
      <!-- 0.0150 -->
      <g transform="translate(299.828324 296.262437) scale(0.1 -0.1)">
       <use xlink:href="#DejaVuSans-30"/>
       <use xlink:href="#DejaVuSans-2e" x="63.623047"/>
       <use xlink:href="#DejaVuSans-30" x="95.410156"/>
       <use xlink:href="#DejaVuSans-31" x="159.033203"/>
       <use xlink:href="#DejaVuSans-35" x="222.65625"/>
       <use xlink:href="#DejaVuSans-30" x="286.279297"/>
      </g>
     </g>
    </g>
    <g id="xtick_8">
     <g id="line2d_8">
      <g>
       <use xlink:href="#meb779b7a89" x="357.905455" y="281.664" style="stroke: #000000; stroke-width: 0.8"/>
      </g>
     </g>
     <g id="text_8">
      <!-- 0.0175 -->
      <g transform="translate(340.410142 296.262437) scale(0.1 -0.1)">
       <use xlink:href="#DejaVuSans-30"/>
       <use xlink:href="#DejaVuSans-2e" x="63.623047"/>
       <use xlink:href="#DejaVuSans-30" x="95.410156"/>
       <use xlink:href="#DejaVuSans-31" x="159.033203"/>
       <use xlink:href="#DejaVuSans-37" x="222.65625"/>
       <use xlink:href="#DejaVuSans-35" x="286.279297"/>
      </g>
     </g>
    </g>
    <g id="xtick_9">
     <g id="line2d_9">
      <g>
       <use xlink:href="#meb779b7a89" x="398.487273" y="281.664" style="stroke: #000000; stroke-width: 0.8"/>
      </g>
     </g>
     <g id="text_9">
      <!-- 0.0200 -->
      <g transform="translate(380.99196 296.262437) scale(0.1 -0.1)">
       <use xlink:href="#DejaVuSans-30"/>
       <use xlink:href="#DejaVuSans-2e" x="63.623047"/>
       <use xlink:href="#DejaVuSans-30" x="95.410156"/>
       <use xlink:href="#DejaVuSans-32" x="159.033203"/>
       <use xlink:href="#DejaVuSans-30" x="222.65625"/>
       <use xlink:href="#DejaVuSans-30" x="286.279297"/>
      </g>
     </g>
    </g>
    <g id="text_10">
     <!-- X -->
     <g transform="translate(232.735 309.940562) scale(0.1 -0.1)">
      <defs>
       <path id="DejaVuSans-58" d="M 403 4666 
L 1081 4666 
L 2241 2931 
L 3406 4666 
L 4084 4666 
L 2584 2425 
L 4184 0 
L 3506 0 
L 2194 1984 
L 872 0 
L 191 0 
L 1856 2491 
L 403 4666 
z
" transform="scale(0.015625)"/>
      </defs>
      <use xlink:href="#DejaVuSans-58"/>
     </g>
    </g>
   </g>
   <g id="matplotlib.axis_2">
    <g id="ytick_1">
     <g id="line2d_10">
      <defs>
       <path id="m7119ffca48" d="M 0 0 
L -3.5 0 
" style="stroke: #000000; stroke-width: 0.8"/>
      </defs>
      <g>
       <use xlink:href="#m7119ffca48" x="57.6" y="271.924364" style="stroke: #000000; stroke-width: 0.8"/>
      </g>
     </g>
     <g id="text_11">
      <!-- 0.000 -->
      <g transform="translate(21.971875 275.723582) scale(0.1 -0.1)">
       <use xlink:href="#DejaVuSans-30"/>
       <use xlink:href="#DejaVuSans-2e" x="63.623047"/>
       <use xlink:href="#DejaVuSans-30" x="95.410156"/>
       <use xlink:href="#DejaVuSans-30" x="159.033203"/>
       <use xlink:href="#DejaVuSans-30" x="222.65625"/>
      </g>
     </g>
    </g>
    <g id="ytick_2">
     <g id="line2d_11">
      <g>
       <use xlink:href="#m7119ffca48" x="57.6" y="239.458909" style="stroke: #000000; stroke-width: 0.8"/>
      </g>
     </g>
     <g id="text_12">
      <!-- 0.002 -->
      <g transform="translate(21.971875 243.258128) scale(0.1 -0.1)">
       <use xlink:href="#DejaVuSans-30"/>
       <use xlink:href="#DejaVuSans-2e" x="63.623047"/>
       <use xlink:href="#DejaVuSans-30" x="95.410156"/>
       <use xlink:href="#DejaVuSans-30" x="159.033203"/>
       <use xlink:href="#DejaVuSans-32" x="222.65625"/>
      </g>
     </g>
    </g>
    <g id="ytick_3">
     <g id="line2d_12">
      <g>
       <use xlink:href="#m7119ffca48" x="57.6" y="206.993455" style="stroke: #000000; stroke-width: 0.8"/>
      </g>
     </g>
     <g id="text_13">
      <!-- 0.004 -->
      <g transform="translate(21.971875 210.792673) scale(0.1 -0.1)">
       <defs>
        <path id="DejaVuSans-34" d="M 2419 4116 
L 825 1625 
L 2419 1625 
L 2419 4116 
z
M 2253 4666 
L 3047 4666 
L 3047 1625 
L 3713 1625 
L 3713 1100 
L 3047 1100 
L 3047 0 
L 2419 0 
L 2419 1100 
L 313 1100 
L 313 1709 
L 2253 4666 
z
" transform="scale(0.015625)"/>
       </defs>
       <use xlink:href="#DejaVuSans-30"/>
       <use xlink:href="#DejaVuSans-2e" x="63.623047"/>
       <use xlink:href="#DejaVuSans-30" x="95.410156"/>
       <use xlink:href="#DejaVuSans-30" x="159.033203"/>
       <use xlink:href="#DejaVuSans-34" x="222.65625"/>
      </g>
     </g>
    </g>
    <g id="ytick_4">
     <g id="line2d_13">
      <g>
       <use xlink:href="#m7119ffca48" x="57.6" y="174.528" style="stroke: #000000; stroke-width: 0.8"/>
      </g>
     </g>
     <g id="text_14">
      <!-- 0.006 -->
      <g transform="translate(21.971875 178.327219) scale(0.1 -0.1)">
       <defs>
        <path id="DejaVuSans-36" d="M 2113 2584 
Q 1688 2584 1439 2293 
Q 1191 2003 1191 1497 
Q 1191 994 1439 701 
Q 1688 409 2113 409 
Q 2538 409 2786 701 
Q 3034 994 3034 1497 
Q 3034 2003 2786 2293 
Q 2538 2584 2113 2584 
z
M 3366 4563 
L 3366 3988 
Q 3128 4100 2886 4159 
Q 2644 4219 2406 4219 
Q 1781 4219 1451 3797 
Q 1122 3375 1075 2522 
Q 1259 2794 1537 2939 
Q 1816 3084 2150 3084 
Q 2853 3084 3261 2657 
Q 3669 2231 3669 1497 
Q 3669 778 3244 343 
Q 2819 -91 2113 -91 
Q 1303 -91 875 529 
Q 447 1150 447 2328 
Q 447 3434 972 4092 
Q 1497 4750 2381 4750 
Q 2619 4750 2861 4703 
Q 3103 4656 3366 4563 
z
" transform="scale(0.015625)"/>
       </defs>
       <use xlink:href="#DejaVuSans-30"/>
       <use xlink:href="#DejaVuSans-2e" x="63.623047"/>
       <use xlink:href="#DejaVuSans-30" x="95.410156"/>
       <use xlink:href="#DejaVuSans-30" x="159.033203"/>
       <use xlink:href="#DejaVuSans-36" x="222.65625"/>
      </g>
     </g>
    </g>
    <g id="ytick_5">
     <g id="line2d_14">
      <g>
       <use xlink:href="#m7119ffca48" x="57.6" y="142.062545" style="stroke: #000000; stroke-width: 0.8"/>
      </g>
     </g>
     <g id="text_15">
      <!-- 0.008 -->
      <g transform="translate(21.971875 145.861764) scale(0.1 -0.1)">
       <defs>
        <path id="DejaVuSans-38" d="M 2034 2216 
Q 1584 2216 1326 1975 
Q 1069 1734 1069 1313 
Q 1069 891 1326 650 
Q 1584 409 2034 409 
Q 2484 409 2743 651 
Q 3003 894 3003 1313 
Q 3003 1734 2745 1975 
Q 2488 2216 2034 2216 
z
M 1403 2484 
Q 997 2584 770 2862 
Q 544 3141 544 3541 
Q 544 4100 942 4425 
Q 1341 4750 2034 4750 
Q 2731 4750 3128 4425 
Q 3525 4100 3525 3541 
Q 3525 3141 3298 2862 
Q 3072 2584 2669 2484 
Q 3125 2378 3379 2068 
Q 3634 1759 3634 1313 
Q 3634 634 3220 271 
Q 2806 -91 2034 -91 
Q 1263 -91 848 271 
Q 434 634 434 1313 
Q 434 1759 690 2068 
Q 947 2378 1403 2484 
z
M 1172 3481 
Q 1172 3119 1398 2916 
Q 1625 2713 2034 2713 
Q 2441 2713 2670 2916 
Q 2900 3119 2900 3481 
Q 2900 3844 2670 4047 
Q 2441 4250 2034 4250 
Q 1625 4250 1398 4047 
Q 1172 3844 1172 3481 
z
" transform="scale(0.015625)"/>
       </defs>
       <use xlink:href="#DejaVuSans-30"/>
       <use xlink:href="#DejaVuSans-2e" x="63.623047"/>
       <use xlink:href="#DejaVuSans-30" x="95.410156"/>
       <use xlink:href="#DejaVuSans-30" x="159.033203"/>
       <use xlink:href="#DejaVuSans-38" x="222.65625"/>
      </g>
     </g>
    </g>
    <g id="ytick_6">
     <g id="line2d_15">
      <g>
       <use xlink:href="#m7119ffca48" x="57.6" y="109.597091" style="stroke: #000000; stroke-width: 0.8"/>
      </g>
     </g>
     <g id="text_16">
      <!-- 0.010 -->
      <g transform="translate(21.971875 113.39631) scale(0.1 -0.1)">
       <use xlink:href="#DejaVuSans-30"/>
       <use xlink:href="#DejaVuSans-2e" x="63.623047"/>
       <use xlink:href="#DejaVuSans-30" x="95.410156"/>
       <use xlink:href="#DejaVuSans-31" x="159.033203"/>
       <use xlink:href="#DejaVuSans-30" x="222.65625"/>
      </g>
     </g>
    </g>
    <g id="ytick_7">
     <g id="line2d_16">
      <g>
       <use xlink:href="#m7119ffca48" x="57.6" y="77.131636" style="stroke: #000000; stroke-width: 0.8"/>
      </g>
     </g>
     <g id="text_17">
      <!-- 0.012 -->
      <g transform="translate(21.971875 80.930855) scale(0.1 -0.1)">
       <use xlink:href="#DejaVuSans-30"/>
       <use xlink:href="#DejaVuSans-2e" x="63.623047"/>
       <use xlink:href="#DejaVuSans-30" x="95.410156"/>
       <use xlink:href="#DejaVuSans-31" x="159.033203"/>
       <use xlink:href="#DejaVuSans-32" x="222.65625"/>
      </g>
     </g>
    </g>
    <g id="text_18">
     <!-- Y -->
     <g transform="translate(15.892188 177.581906) rotate(-90) scale(0.1 -0.1)">
      <defs>
       <path id="DejaVuSans-59" d="M -13 4666 
L 666 4666 
L 1959 2747 
L 3244 4666 
L 3922 4666 
L 2272 2222 
L 2272 0 
L 1638 0 
L 1638 2222 
L -13 4666 
z
" transform="scale(0.015625)"/>
      </defs>
      <use xlink:href="#DejaVuSans-59"/>
     </g>
    </g>
   </g>
   <g id="patch_3">
    <path d="M 57.6 281.664 
L 57.6 67.392 
" style="fill: none; stroke: #000000; stroke-width: 0.8; stroke-linejoin: miter; stroke-linecap: square"/>
   </g>
   <g id="patch_4">
    <path d="M 414.72 281.664 
L 414.72 67.392 
" style="fill: none; stroke: #000000; stroke-width: 0.8; stroke-linejoin: miter; stroke-linecap: square"/>
   </g>
   <g id="patch_5">
    <path d="M 57.6 281.664 
L 414.72 281.664 
" style="fill: none; stroke: #000000; stroke-width: 0.8; stroke-linejoin: miter; stroke-linecap: square"/>
   </g>
   <g id="patch_6">
    <path d="M 57.6 67.392 
L 414.72 67.392 
" style="fill: none; stroke: #000000; stroke-width: 0.8; stroke-linejoin: miter; stroke-linecap: square"/>
   </g>
  </g>
 </g>
 <defs>
  <clipPath id="pd1db709067">
   <rect x="57.6" y="67.392" width="357.12" height="214.272"/>
  </clipPath>
 </defs>
</svg>
