<?xml version="1.0" encoding="utf-8" standalone="no"?>
<!DOCTYPE svg PUBLIC "-//W3C//DTD SVG 1.1//EN"
  "http://www.w3.org/Graphics/SVG/1.1/DTD/svg11.dtd">
<svg xmlns:xlink="http://www.w3.org/1999/xlink" width="460.8pt" height="345.6pt" viewBox="0 0 460.8 345.6" xmlns="http://www.w3.org/2000/svg" version="1.1">
 <metadata>
  <rdf:RDF xmlns:dc="http://purl.org/dc/elements/1.1/" xmlns:cc="http://creativecommons.org/ns#" xmlns:rdf="http://www.w3.org/1999/02/22-rdf-syntax-ns#">
   <cc:Work>
    <dc:type rdf:resource="http://purl.org/dc/dcmitype/StillImage"/>
    <dc:date>2023-03-23T02:36:58.698074</dc:date>
    <dc:format>image/svg+xml</dc:format>
    <dc:creator>
     <cc:Agent>
      <dc:title>Matplotlib v3.7.1, https://matplotlib.org/</dc:title>
     </cc:Agent>
    </dc:creator>
   </cc:Work>
  </rdf:RDF>
 </metadata>
 <defs>
  <style type="text/css">*{stroke-linejoin: round; stroke-linecap: butt}</style>
 </defs>
 <g id="figure_1">
  <g id="patch_1">
   <path d="M 0 345.6 
L 460.8 345.6 
L 460.8 0 
L 0 0 
z
" style="fill: #ffffff"/>
  </g>
  <g id="axes_1">
   <g id="patch_2">
    <path d="M 57.6 281.664 
L 414.72 281.664 
L 414.72 67.392 
L 57.6 67.392 
z
" style="fill: #ffffff"/>
   </g>
   <g id="Quiver_1">
    <path d="M 74.904087 77.131636 
L 74.368407 76.203811 
L 73.297047 76.203811 
L 72.761367 77.131636 
L 73.297047 78.059461 
L 74.368407 78.059461 
L 74.904087 77.131636 
L 74.368407 76.203811 
" clip-path="url(#pc418ad2096)" style="fill: #440154"/>
    <path d="M 74.687979 240.104166 
L 55.687685 265.287966 
L 58.043446 265.723229 
L 49.025118 272.339973 
L 52.911936 261.851686 
L 53.977182 263.997452 
L 72.977476 238.813652 
L 74.687979 240.104166 
" clip-path="url(#pc418ad2096)" style="fill: #fde725"/>
    <path d="M 399.340329 238.810753 
L 418.290958 263.752191 
L 419.348915 261.602821 
L 423.271311 272.077856 
L 414.230576 265.491761 
L 416.584845 265.048504 
L 397.634216 240.107066 
L 399.340329 238.810753 
" clip-path="url(#pc418ad2096)" style="fill: #fbe723"/>
    <path d="M 399.558633 77.131636 
L 399.022953 76.203811 
L 397.951593 76.203811 
L 397.415913 77.131636 
L 397.951593 78.059461 
L 399.022953 78.059461 
L 399.558633 77.131636 
L 399.022953 76.203811 
" clip-path="url(#pc418ad2096)" style="fill: #440154"/>
    <path d="M 74.894442 271.78093 
L 74.239368 270.933174 
L 73.177652 271.076608 
L 72.771012 272.067797 
L 73.426087 272.915553 
L 74.487802 272.772119 
L 74.894442 271.78093 
L 74.239368 270.933174 
" clip-path="url(#pc418ad2096)" style="fill: #440154"/>
    <path d="M 399.162411 271.092498 
L 398.104425 270.923744 
L 397.429287 271.75561 
L 397.812135 272.756229 
L 398.870121 272.924983 
L 399.545259 272.093117 
L 399.162411 271.092498 
L 398.104425 270.923744 
" clip-path="url(#pc418ad2096)" style="fill: #440154"/>
    <path d="M 398.90841 238.473792 
L 397.844705 238.601635 
L 397.423568 239.586752 
L 398.066135 240.444026 
L 399.12984 240.316183 
L 399.550978 239.331066 
L 398.90841 238.473792 
L 397.844705 238.601635 
" clip-path="url(#pc418ad2096)" style="fill: #440154"/>
    <path d="M 74.902265 239.396449 
L 74.313404 238.501432 
L 73.243867 238.563892 
L 72.76319 239.521369 
L 73.35205 240.416386 
L 74.421588 240.353926 
L 74.902265 239.396449 
L 74.313404 238.501432 
" clip-path="url(#pc418ad2096)" style="fill: #440154"/>
    <path d="M 74.360935 110.52919 
L 66.247765 115.126815 
L 68.23628 116.462805 
L 57.330666 118.948589 
L 65.067032 110.870212 
L 65.191349 113.262618 
L 73.304519 108.664992 
L 74.360935 110.52919 
" clip-path="url(#pc418ad2096)" style="fill: #24868e"/>
    <path d="M 74.527998 142.877659 
L 61.359486 154.110063 
L 63.565142 155.045019 
L 53.328191 159.552389 
L 59.393515 150.154337 
L 59.968944 152.479835 
L 73.137456 141.247432 
L 74.527998 142.877659 
" clip-path="url(#pc418ad2096)" style="fill: #31b57b"/>
    <path d="M 74.616869 175.258024 
L 59.007279 192.024781 
L 61.305585 192.700687 
L 51.652925 198.352031 
L 56.600736 188.320545 
L 57.438996 190.564734 
L 73.048586 173.797976 
L 74.616869 175.258024 
" clip-path="url(#pc418ad2096)" style="fill: #75d054"/>
    <path d="M 74.664486 207.668724 
L 57.418088 228.911865 
L 59.756876 229.430645 
L 50.508902 235.722427 
L 54.766322 225.379027 
L 55.75457 227.561325 
L 73.000968 206.318185 
L 74.664486 207.668724 
" clip-path="url(#pc418ad2096)" style="fill: #bade28"/>
    <path d="M 110.833796 239.993694 
L 95.480377 266.645912 
L 97.871844 266.787142 
L 89.738969 274.466197 
L 92.301797 263.578431 
L 93.623694 265.576342 
L 108.977113 238.924124 
L 110.833796 239.993694 
" clip-path="url(#pc418ad2096)" style="fill: #f4e61e"/>
    <path d="M 146.972533 239.857754 
L 135.585944 268.245372 
L 137.973492 268.048712 
L 131.001984 276.795689 
L 132.007384 265.65564 
L 133.597241 267.447682 
L 144.98383 239.060064 
L 146.972533 239.857754 
" clip-path="url(#pc418ad2096)" style="fill: #f1e51d"/>
    <path d="M 183.094028 239.703278 
L 176.093925 269.584052 
L 178.424531 269.029671 
L 172.851485 278.727748 
L 172.16582 267.563457 
L 174.007688 269.095314 
L 181.007791 239.21454 
L 183.094028 239.703278 
" clip-path="url(#pc418ad2096)" style="fill: #f1e51d"/>
    <path d="M 219.19181 239.541475 
L 216.820773 270.216045 
L 219.039687 269.313003 
L 215.009505 279.747042 
L 212.630645 268.817607 
L 214.684426 270.050913 
L 217.055463 239.376343 
L 219.19181 239.541475 
" clip-path="url(#pc418ad2096)" style="fill: #f4e61e"/>
    <path d="M 255.264598 239.377132 
L 257.610492 270.021126 
L 259.665184 268.789339 
L 257.278248 279.717013 
L 253.255778 269.279999 
L 255.474023 270.18468 
L 253.128129 239.540686 
L 255.264598 239.377132 
" clip-path="url(#pc418ad2096)" style="fill: #f1e51d"/>
    <path d="M 291.312272 239.214808 
L 298.284359 269.010396 
L 300.126619 267.479012 
L 299.438091 278.643127 
L 293.867533 268.943621 
L 296.197997 269.498599 
L 289.22591 239.703011 
L 291.312272 239.214808 
" clip-path="url(#pc418ad2096)" style="fill: #f1e51d"/>
    <path d="M 327.335908 239.059413 
L 338.688505 267.30877 
L 340.277189 265.515688 
L 341.289878 276.655077 
L 334.312648 267.912663 
L 336.700324 268.107762 
L 325.347728 239.858405 
L 327.335908 239.059413 
" clip-path="url(#pc418ad2096)" style="fill: #efe51c"/>
    <path d="M 363.341854 238.922336 
L 378.653461 265.38393 
L 379.971505 263.383475 
L 382.555312 274.266282 
L 374.407653 266.602915 
L 376.798844 266.457077 
L 361.487237 239.995482 
L 363.341854 238.922336 
" clip-path="url(#pc418ad2096)" style="fill: #efe51c"/>
    <path d="M 399.317096 206.315808 
L 416.463424 227.312627 
L 417.445424 225.12751 
L 421.732421 235.458686 
L 412.466483 229.19339 
L 414.803776 228.66792 
L 397.657449 207.671101 
L 399.317096 206.315808 
" clip-path="url(#pc418ad2096)" style="fill: #b8de29"/>
    <path d="M 399.269471 173.795895 
L 414.726956 190.311025 
L 415.559247 188.064616 
L 420.533707 198.082913 
L 410.866058 192.457248 
L 413.16256 191.775235 
L 397.705075 175.260105 
L 399.269471 173.795895 
" clip-path="url(#pc418ad2096)" style="fill: #70cf57"/>
    <path d="M 399.179993 141.245263 
L 412.127481 152.219409 
L 412.695638 149.892124 
L 418.790307 159.271171 
L 408.539318 154.795821 
L 410.742041 153.853975 
L 397.794553 142.879828 
L 399.179993 141.245263 
" clip-path="url(#pc418ad2096)" style="fill: #2eb37c"/>
    <path d="M 399.01123 108.662596 
L 406.754505 113.00413 
L 406.867924 110.611182 
L 414.641005 118.654238 
L 403.724182 116.218154 
L 405.706591 114.87312 
L 397.963316 110.531586 
L 399.01123 108.662596 
" clip-path="url(#pc418ad2096)" style="fill: #25848e"/>
    <path d="M 363.312834 76.701967 
L 363.742504 77.600256 
L 365.109412 75.842627 
L 366.711243 86.114526 
L 359.719679 78.420646 
L 361.945926 78.459595 
L 361.516257 77.561306 
L 363.312834 76.701967 
" clip-path="url(#pc418ad2096)" style="fill: #3c4f8a"/>
    <path d="M 327.35315 76.778053 
L 328.518123 80.110155 
L 330.187203 78.391658 
L 330.689039 89.565722 
L 324.119214 80.513156 
L 326.49546 80.817321 
L 325.330487 77.485219 
L 327.35315 76.778053 
" clip-path="url(#pc418ad2096)" style="fill: #32648e"/>
    <path d="M 291.319182 76.919219 
L 292.210678 81.326352 
L 294.098443 79.851426 
L 293.072345 90.989588 
L 287.797897 81.125931 
L 290.110496 81.751187 
L 289.219 77.344054 
L 291.319182 76.919219 
" clip-path="url(#pc418ad2096)" style="fill: #306a8e"/>
    <path d="M 255.265803 77.067507 
L 255.562953 82.022857 
L 257.637701 80.825159 
L 255.070679 91.711937 
L 251.221067 81.209936 
L 253.424075 82.151116 
L 253.126925 77.195766 
L 255.265803 77.067507 
" clip-path="url(#pc418ad2096)" style="fill: #2e6d8e"/>
    <path d="M 219.191611 77.216739 
L 218.793787 82.209165 
L 221.014838 81.311395 
L 216.959892 91.735835 
L 214.60699 80.800782 
L 216.657837 82.038961 
L 217.055662 77.046534 
L 219.191611 77.216739 
" clip-path="url(#pc418ad2096)" style="fill: #2e6e8e"/>
    <path d="M 183.09671 77.364257 
L 182.089357 81.893057 
L 184.41358 81.312497 
L 178.949974 91.072648 
L 178.138773 79.916775 
L 179.997755 81.427817 
L 181.005108 76.899016 
L 183.09671 77.364257 
" clip-path="url(#pc418ad2096)" style="fill: #2f6b8e"/>
    <path d="M 146.983433 77.502153 
L 145.67938 81.040183 
L 148.060399 80.775966 
L 141.339475 89.716923 
L 142.028893 78.552863 
L 143.668878 80.299148 
L 144.972931 76.761119 
L 146.983433 77.502153 
" clip-path="url(#pc418ad2096)" style="fill: #31668e"/>
    <path d="M 110.837175 77.597831 
L 110.37098 78.529552 
L 112.700617 78.530222 
L 105.243504 86.448845 
L 107.110292 75.733051 
L 108.507539 77.597162 
L 108.973734 76.665441 
L 110.837175 77.597831 
" clip-path="url(#pc418ad2096)" style="fill: #3b528b"/>
    <path d="M 110.97564 271.974525 
L 110.483988 271.022637 
L 109.413803 270.972476 
L 108.835269 271.874203 
L 109.326921 272.826091 
L 110.397106 272.876252 
L 110.97564 271.974525 
L 110.483988 271.022637 
" clip-path="url(#pc418ad2096)" style="fill: #440154"/>
    <path d="M 147.03272 272.113472 
L 146.669223 271.105661 
L 145.614685 270.916553 
L 144.923644 271.735255 
L 145.28714 272.743066 
L 146.341678 272.932174 
L 147.03272 272.113472 
L 146.669223 271.105661 
" clip-path="url(#pc418ad2096)" style="fill: #440154"/>
    <path d="M 183.089173 272.188599 
L 182.798876 271.157318 
L 181.760612 270.893083 
L 181.012645 271.660128 
L 181.302943 272.691409 
L 182.341206 272.955644 
L 183.089173 272.188599 
L 182.798876 271.157318 
" clip-path="url(#pc418ad2096)" style="fill: #440154"/>
    <path d="M 219.159791 272.196753 
L 218.87761 271.163222 
L 217.841455 270.890833 
L 217.087482 271.651974 
L 217.369663 272.685505 
L 218.405818 272.957895 
L 219.159791 272.196753 
L 218.87761 271.163222 
" clip-path="url(#pc418ad2096)" style="fill: #440154"/>
    <path d="M 255.248355 272.127161 
L 254.897987 271.114711 
L 253.845996 270.911914 
L 253.144372 271.721566 
L 253.49474 272.734016 
L 254.546731 272.936814 
L 255.248355 272.127161 
L 254.897987 271.114711 
" clip-path="url(#pc418ad2096)" style="fill: #440154"/>
    <path d="M 291.339984 271.956 
L 290.831935 271.012761 
L 289.761042 270.981125 
L 289.198198 271.892727 
L 289.706247 272.835966 
L 290.77714 272.867602 
L 291.339984 271.956 
L 290.831935 271.012761 
" clip-path="url(#pc418ad2096)" style="fill: #440154"/>
    <path d="M 327.382327 271.669111 
L 326.641018 270.89563 
L 325.600509 271.150883 
L 325.301309 272.179616 
L 326.042619 272.953097 
L 327.083127 272.697845 
L 327.382327 271.669111 
L 326.641018 270.89563 
" clip-path="url(#pc418ad2096)" style="fill: #440154"/>
    <path d="M 363.310544 271.336998 
L 362.353871 270.854723 
L 361.457872 271.442089 
L 361.518547 272.511729 
L 362.47522 272.994004 
L 363.371218 272.406638 
L 363.310544 271.336998 
L 362.353871 270.854723 
" clip-path="url(#pc418ad2096)" style="fill: #440154"/>
    <path d="M 110.971353 239.566953 
L 110.531972 238.589836 
L 109.466074 238.481792 
L 108.839556 239.350866 
L 109.278937 240.327982 
L 110.344835 240.436026 
L 110.971353 239.566953 
L 110.531972 238.589836 
" clip-path="url(#pc418ad2096)" style="fill: #440154"/>
    <path d="M 147.021955 239.700465 
L 146.709262 238.675753 
L 145.665489 238.434197 
L 144.934408 239.217353 
L 145.247102 240.242065 
L 146.290875 240.483621 
L 147.021955 239.700465 
L 146.709262 238.675753 
" clip-path="url(#pc418ad2096)" style="fill: #440154"/>
    <path d="M 183.070797 239.786996 
L 182.844985 238.739704 
L 181.825097 238.411617 
L 181.031021 239.130822 
L 181.256833 240.178114 
L 182.276721 240.506201 
L 183.070797 239.786996 
L 182.844985 238.739704 
" clip-path="url(#pc418ad2096)" style="fill: #440154"/>
    <path d="M 219.132659 239.819027 
L 218.940019 238.765129 
L 217.930996 238.405011 
L 217.114613 239.098791 
L 217.307253 240.15269 
L 218.316276 240.512808 
L 219.132659 239.819027 
L 218.940019 238.765129 
" clip-path="url(#pc418ad2096)" style="fill: #440154"/>
    <path d="M 255.218853 239.778795 
L 254.984638 238.73335 
L 253.962149 238.413464 
L 253.173874 239.139023 
L 253.408089 240.184468 
L 254.430579 240.504354 
L 255.218853 239.778795 
L 254.984638 238.73335 
" clip-path="url(#pc418ad2096)" style="fill: #440154"/>
    <path d="M 291.328794 239.616518 
L 290.935436 238.619983 
L 289.875732 238.462374 
L 289.209387 239.3013 
L 289.602746 240.297835 
L 290.662449 240.455444 
L 291.328794 239.616518 
L 290.935436 238.619983 
" clip-path="url(#pc418ad2096)" style="fill: #440154"/>
    <path d="M 327.390283 239.238603 
L 326.67526 238.440759 
L 325.626795 238.661065 
L 325.293354 239.679215 
L 326.008377 240.477059 
L 327.056841 240.256753 
L 327.390283 239.238603 
L 326.67526 238.440759 
" clip-path="url(#pc418ad2096)" style="fill: #440154"/>
    <path d="M 363.204395 238.735065 
L 362.182602 238.412958 
L 361.392753 239.136802 
L 361.624696 240.182753 
L 362.646489 240.504861 
L 363.436338 239.781016 
L 363.204395 238.735065 
L 362.182602 238.412958 
" clip-path="url(#pc418ad2096)" style="fill: #440154"/>
    <path d="M 372.833721 157.627093 
L 384.843432 173.192762 
L 385.885443 171.035617 
L 389.885299 181.481319 
L 380.796042 174.962351 
L 383.146965 174.501673 
L 371.137254 158.936004 
L 372.833721 157.627093 
" clip-path="url(#pc418ad2096)" style="fill: #4ac16d"/>
    <path d="M 101.122433 158.916449 
L 88.944738 174.684518 
L 91.295444 175.1463 
L 82.203126 181.660998 
L 86.207888 171.217176 
L 87.248886 173.37481 
L 99.426581 157.606741 
L 101.122433 158.916449 
" clip-path="url(#pc418ad2096)" style="fill: #4cc26c"/>
    <path d="M 237.231344 108.377364 
L 237.165156 120.542058 
L 239.313673 119.482372 
L 236.041349 130.178326 
L 232.885608 119.447397 
L 235.022468 120.530399 
L 235.088656 108.365705 
L 237.231344 108.377364 
" clip-path="url(#pc418ad2096)" style="fill: #1f978b"/>
    <path d="M 273.300556 208.096362 
L 277.297401 234.921235 
L 279.258838 233.545798 
L 277.658724 244.616082 
L 272.900865 234.493122 
L 275.178076 235.237009 
L 271.181232 208.412136 
L 273.300556 208.096362 
" clip-path="url(#pc418ad2096)" style="fill: #b8de29"/>
    <path d="M 201.110543 208.41429 
L 197.049085 235.297711 
L 199.327805 234.558454 
L 194.549374 244.67172 
L 192.971771 233.598206 
L 194.930408 234.977628 
L 198.991865 208.094208 
L 201.110543 208.41429 
" clip-path="url(#pc418ad2096)" style="fill: #b8de29"/>
    <path d="M 164.461018 109.679671 
L 161.129495 121.118685 
L 163.486319 120.689219 
L 157.404667 130.076712 
L 157.314582 118.891748 
L 159.072249 120.519528 
L 162.403773 109.080515 
L 164.461018 109.679671 
" clip-path="url(#pc418ad2096)" style="fill: #1f958b"/>
    <path d="M 310.18918 109.53796 
L 313.425495 120.913359 
L 315.193261 119.296552 
L 315.033551 130.480739 
L 309.010454 121.055568 
L 311.364559 121.499697 
L 308.128244 110.124299 
L 310.18918 109.53796 
" clip-path="url(#pc418ad2096)" style="fill: #1f958b"/>
    <path d="M 346.704565 206.20466 
L 358.555362 229.594055 
L 359.982517 227.669921 
L 361.957677 238.679475 
L 354.248385 230.575257 
L 356.643985 230.5625 
L 344.793188 207.173105 
L 346.704565 206.20466 
" clip-path="url(#pc418ad2096)" style="fill: #a8db34"/>
    <path d="M 127.52689 207.172951 
L 115.594007 230.733771 
L 117.989609 230.746141 
L 110.281624 238.851602 
L 112.255009 227.84173 
L 113.682474 229.765634 
L 125.615357 206.204814 
L 127.52689 207.172951 
" clip-path="url(#pc418ad2096)" style="fill: #addc30"/>
    <path d="M 164.8024 208.412611 
L 156.770297 234.037499 
L 159.135371 233.656072 
L 152.863986 242.91789 
L 153.001481 231.733409 
L 154.725667 233.396611 
L 162.75777 207.771723 
L 164.8024 208.412611 
" clip-path="url(#pc418ad2096)" style="fill: #b2dd2d"/>
    <path d="M 183.014133 177.428583 
L 177.784376 199.963373 
L 180.113823 199.404147 
L 174.560961 209.113794 
L 173.852077 197.950953 
L 175.697127 199.478975 
L 180.926884 176.944186 
L 183.014133 177.428583 
" clip-path="url(#pc418ad2096)" style="fill: #77d153"/>
    <path d="M 219.095058 177.183608 
L 217.323401 200.551444 
L 219.540983 199.645138 
L 215.526163 210.085097 
L 213.131219 199.159175 
L 215.186813 200.389457 
L 216.958469 177.02162 
L 219.095058 177.183608 
" clip-path="url(#pc418ad2096)" style="fill: #7cd250"/>
    <path d="M 200.988062 146.193283 
L 198.197667 164.865384 
L 200.475202 164.122486 
L 195.712945 174.243377 
L 194.117641 163.1724 
L 196.078481 164.548688 
L 198.868875 145.876588 
L 200.988062 146.193283 
" clip-path="url(#pc418ad2096)" style="fill: #40bd72"/>
    <path d="M 165.11339 146.482025 
L 159.418852 164.05945 
L 161.787461 163.700625 
L 155.427919 172.902134 
L 155.672211 161.719475 
L 157.380436 163.399067 
L 163.074973 145.821642 
L 165.11339 146.482025 
" clip-path="url(#pc418ad2096)" style="fill: #3bbb75"/>
    <path d="M 237.10319 148.061582 
L 237.037835 167.346005 
L 239.184174 166.281913 
L 235.933804 176.984559 
L 232.756051 166.260128 
L 234.895128 167.338743 
L 234.960483 148.05432 
L 237.10319 148.061582 
" clip-path="url(#pc418ad2096)" style="fill: #44bf70"/>
    <path d="M 148.96997 176.152676 
L 140.499486 197.11502 
L 142.887529 196.924461 
L 135.89369 205.653594 
L 136.927556 194.51615 
L 138.512828 196.312249 
L 146.983312 175.349905 
L 148.96997 176.152676 
" clip-path="url(#pc418ad2096)" style="fill: #70cf57"/>
    <path d="M 309.557948 207.7729 
L 317.521569 233.282186 
L 319.247669 231.620969 
L 319.372284 242.805602 
L 313.111569 233.536569 
L 315.476202 233.920719 
L 307.512581 208.411433 
L 309.557948 207.7729 
" clip-path="url(#pc418ad2096)" style="fill: #b2dd2d"/>
    <path d="M 291.551526 177.021077 
L 296.701289 199.470867 
L 298.550227 197.947552 
L 297.812893 209.10855 
L 292.284797 199.384781 
L 294.612812 199.949943 
L 289.463049 177.500154 
L 291.551526 177.021077 
" clip-path="url(#pc418ad2096)" style="fill: #77d153"/>
    <path d="M 325.391171 175.465514 
L 333.760166 196.291877 
L 335.348889 194.498829 
L 336.361341 205.63824 
L 329.384297 196.895678 
L 331.771969 197.090827 
L 323.402974 176.264464 
L 325.391171 175.465514 
" clip-path="url(#pc418ad2096)" style="fill: #6ece58"/>
    <path d="M 309.637994 146.312999 
L 315.249818 163.817809 
L 316.96318 162.143458 
L 317.173216 173.326813 
L 310.84189 164.105867 
L 313.209388 164.471946 
L 307.597564 146.967136 
L 309.637994 146.312999 
" clip-path="url(#pc418ad2096)" style="fill: #3bbb75"/>
    <path d="M 273.916727 147.05621 
L 276.65891 165.834027 
L 278.62433 164.464287 
L 276.992102 175.529881 
L 272.263635 165.393159 
L 274.538679 166.143651 
L 271.796496 147.365834 
L 273.916727 147.05621 
" clip-path="url(#pc418ad2096)" style="fill: #40bd72"/>
    <path d="M 273.49693 108.114954 
L 275.054923 119.940301 
L 277.039343 118.598235 
L 275.252227 129.639872 
L 270.666257 119.437891 
L 272.930562 120.220186 
L 271.372568 108.39484 
L 273.49693 108.114954 
" clip-path="url(#pc418ad2096)" style="fill: #1f968b"/>
    <path d="M 348.408111 104.782836 
L 352.93534 113.577414 
L 354.350102 111.64415 
L 356.395958 122.640787 
L 348.634756 114.586268 
L 351.030224 114.55812 
L 346.502996 105.763541 
L 348.408111 104.782836 
" clip-path="url(#pc418ad2096)" style="fill: #238a8d"/>
    <path d="M 200.945994 108.405346 
L 199.258937 120.299985 
L 201.530874 119.540139 
L 196.844153 129.69623 
L 195.166411 118.637445 
L 197.13745 119.999087 
L 198.824507 108.104448 
L 200.945994 108.405346 
" clip-path="url(#pc418ad2096)" style="fill: #1f968b"/>
    <path d="M 125.798462 105.670445 
L 121.122478 114.662893 
L 123.51781 114.700896 
L 115.723538 122.723417 
L 117.814616 111.735291 
L 119.221413 113.674358 
L 123.897397 104.68191 
L 125.798462 105.670445 
" clip-path="url(#pc418ad2096)" style="fill: #228b8d"/>
    <path d="M 255.358549 177.599311 
L 257.0421 201.012081 
L 259.102461 199.7898 
L 256.665062 210.706329 
L 252.690856 200.250841 
L 254.904898 201.165762 
L 253.221347 177.752992 
L 255.358549 177.599311 
" clip-path="url(#pc418ad2096)" style="fill: #7cd250"/>
    <path d="M 237.226161 208.368774 
L 237.194026 235.693485 
L 239.338004 234.624645 
L 236.111327 245.334458 
L 232.909849 234.617086 
L 235.051307 235.690965 
L 235.083442 208.366254 
L 237.226161 208.368774 
" clip-path="url(#pc418ad2096)" style="fill: #bade28"/>
    <path d="M 371.741975 125.14995 
L 380.556358 135.884891 
L 381.532499 133.69715 
L 385.84717 144.016799 
L 376.564472 137.77636 
L 378.90035 137.244628 
L 370.085967 126.509687 
L 371.741975 125.14995 
" clip-path="url(#pc418ad2096)" style="fill: #1fa187"/>
    <path d="M 341.517528 141.889475 
L 349.489957 157.411916 
L 350.906506 155.479961 
L 352.942199 166.478483 
L 345.188443 158.416796 
L 347.583936 158.390861 
L 339.611507 142.86842 
L 341.517528 141.889475 
" clip-path="url(#pc418ad2096)" style="fill: #32b67a"/>
    <path d="M 374.293606 189.033276 
L 388.136227 208.799938 
L 389.276801 206.693246 
L 392.789718 217.312613 
L 384.011393 210.380619 
L 386.381091 210.029063 
L 372.53847 190.2624 
L 374.293606 189.033276 
" clip-path="url(#pc418ad2096)" style="fill: #86d549"/>
    <path d="M 99.772147 190.25819 
L 85.81206 210.235381 
L 88.182111 210.58455 
L 79.410772 217.525382 
L 82.912992 206.902482 
L 84.055687 209.008025 
L 98.015774 189.030834 
L 99.772147 190.25819 
" clip-path="url(#pc418ad2096)" style="fill: #8bd646"/>
    <path d="M 102.094081 126.513012 
L 93.042128 137.447297 
L 95.375847 137.988422 
L 86.068119 144.191465 
L 90.424272 133.889258 
L 91.391603 136.080909 
L 100.443556 125.146624 
L 102.094081 126.513012 
" clip-path="url(#pc418ad2096)" style="fill: #20a386"/>
    <path d="M 132.778824 142.70426 
L 124.658881 158.39317 
L 127.054282 158.426584 
L 119.275389 166.46402 
L 121.345418 155.471908 
L 122.755926 157.408278 
L 130.875869 141.719368 
L 132.778824 142.70426 
" clip-path="url(#pc418ad2096)" style="fill: #34b679"/>
    <path d="M 376.218079 215.86008 
L 391.546852 238.901597 
L 392.737435 236.822758 
L 395.995625 247.523026 
L 387.385429 240.383274 
L 389.76285 240.088436 
L 374.434077 217.046918 
L 376.218079 215.86008 
" clip-path="url(#pc418ad2096)" style="fill: #c0df25"/>
    <path d="M 97.885597 217.044782 
L 82.47849 240.29776 
L 84.856456 240.588173 
L 76.259561 247.743936 
L 79.497834 237.037623 
L 80.692283 239.114244 
L 96.099389 215.861266 
L 97.885597 217.044782 
" clip-path="url(#pc418ad2096)" style="fill: #c5e021"/>
    <path d="M 375.201526 99.483101 
L 379.475439 105.008422 
L 380.514798 102.849999 
L 384.527491 113.290776 
L 375.430228 106.782985 
L 377.780583 106.319418 
L 373.506669 100.794097 
L 375.201526 99.483101 
" clip-path="url(#pc418ad2096)" style="fill: #29798e"/>
    <path d="M 97.578636 99.636864 
L 93.339076 105.010515 
L 95.684878 105.496596 
L 86.525638 111.916866 
L 90.638249 101.515041 
L 91.656866 103.68333 
L 95.896427 98.309679 
L 97.578636 99.636864 
" clip-path="url(#pc418ad2096)" style="fill: #2a788e"/>
    <path d="M 352.35197 174.398112 
L 363.328715 193.500674 
L 364.652778 191.504197 
L 367.203795 202.394737 
L 359.079255 194.706864 
L 361.470874 194.568229 
L 350.494129 175.465667 
L 352.35197 174.398112 
" clip-path="url(#pc418ad2096)" style="fill: #67cc5c"/>
    <path d="M 121.82542 175.466452 
L 110.719923 194.755341 
L 113.111424 194.895996 
L 104.980393 202.577003 
L 107.540608 191.688622 
L 108.862985 193.686216 
L 119.968481 174.397327 
L 121.82542 175.466452 
" clip-path="url(#pc418ad2096)" style="fill: #6ccd5a"/>
    <path d="M 255.473061 127.707197 
L 256.517025 143.505349 
L 258.584439 142.295034 
L 256.083783 153.197248 
L 252.170269 142.718892 
L 254.378968 143.646635 
L 253.335004 127.848482 
L 255.473061 127.707197 
" clip-path="url(#pc418ad2096)" style="fill: #26ad81"/>
    <path d="M 182.996428 127.452695 
L 179.677417 142.6402 
L 181.999466 142.051006 
L 176.572169 151.831393 
L 175.719515 140.678613 
L 177.5841 142.182736 
L 180.903111 126.995231 
L 182.996428 127.452695 
" clip-path="url(#pc418ad2096)" style="fill: #25ab82"/>
    <path d="M 218.871634 127.203875 
L 217.703146 142.921019 
L 219.919399 142.01147 
L 215.919856 152.457291 
L 213.508931 141.534884 
L 215.566323 142.762157 
L 216.734812 127.045013 
L 218.871634 127.203875 
" clip-path="url(#pc418ad2096)" style="fill: #25ac82"/>
    <path d="M 290.197443 127.507938 
L 293.330401 142.709937 
L 295.212767 141.228128 
L 294.227346 152.369963 
L 288.916917 142.525631 
L 291.231784 143.142438 
L 288.098827 127.940438 
L 290.197443 127.507938 
" clip-path="url(#pc418ad2096)" style="fill: #25ab82"/>
    <path d="M 381.146127 254.876477 
L 380.09257 254.68198 
L 379.397352 255.49714 
L 379.755691 256.506795 
L 380.809249 256.701292 
L 381.504467 255.886133 
L 381.146127 254.876477 
L 380.09257 254.68198 
" clip-path="url(#pc418ad2096)" style="fill: #440154"/>
    <path d="M 165.05887 255.930799 
L 164.743829 254.906806 
L 163.699504 254.667643 
L 162.970221 255.452473 
L 163.285262 256.476466 
L 164.329586 256.715629 
L 165.05887 255.930799 
L 164.743829 254.906806 
" clip-path="url(#pc418ad2096)" style="fill: #440154"/>
    <path d="M 201.118955 255.980503 
L 200.85328 254.942606 
L 199.821597 254.65374 
L 199.05559 255.40277 
L 199.321266 256.440666 
L 200.352948 256.729533 
L 201.118955 255.980503 
L 200.85328 254.942606 
" clip-path="url(#pc418ad2096)" style="fill: #440154"/>
    <path d="M 92.940083 255.663571 
L 92.380282 254.750097 
L 91.309289 254.778162 
L 90.798099 255.719702 
L 91.3579 256.633176 
L 92.428892 256.60511 
L 92.940083 255.663571 
L 92.380282 254.750097 
" clip-path="url(#pc418ad2096)" style="fill: #440154"/>
    <path d="M 129.005143 255.822601 
L 128.586899 254.836252 
L 127.523574 254.705287 
L 126.878493 255.560672 
L 127.296737 256.547021 
L 128.360062 256.677985 
L 129.005143 255.822601 
L 128.586899 254.836252 
" clip-path="url(#pc418ad2096)" style="fill: #440154"/>
    <path d="M 237.19677 255.961673 
L 236.912243 254.928785 
L 235.875473 254.658749 
L 235.12323 255.4216 
L 235.407757 256.454488 
L 236.444527 256.724524 
L 237.19677 255.961673 
L 236.912243 254.928785 
" clip-path="url(#pc418ad2096)" style="fill: #440154"/>
    <path d="M 345.33534 255.210325 
L 344.439933 254.622057 
L 343.482775 255.103368 
L 343.421024 256.172947 
L 344.31643 256.761215 
L 345.273589 256.279904 
L 345.33534 255.210325 
L 344.439933 254.622057 
" clip-path="url(#pc418ad2096)" style="fill: #440154"/>
    <path d="M 273.292518 255.84866 
L 272.898609 254.852342 
L 271.838818 254.695319 
L 271.172937 255.534613 
L 271.566846 256.53093 
L 272.626636 256.687954 
L 273.292518 255.84866 
L 272.898609 254.852342 
" clip-path="url(#pc418ad2096)" style="fill: #440154"/>
    <path d="M 309.372542 255.596051 
L 308.756219 254.719719 
L 307.689131 254.815304 
L 307.238367 255.787222 
L 307.854691 256.663554 
L 308.921778 256.567968 
L 309.372542 255.596051 
L 308.756219 254.719719 
" clip-path="url(#pc418ad2096)" style="fill: #440154"/>
   </g>
   <g id="matplotlib.axis_1">
    <g id="xtick_1">
     <g id="line2d_1">
      <defs>
       <path id="ma58ebe7e37" d="M 0 0 
L 0 3.5 
" style="stroke: #000000; stroke-width: 0.8"/>
      </defs>
      <g>
       <use xlink:href="#ma58ebe7e37" x="73.832727" y="281.664" style="stroke: #000000; stroke-width: 0.8"/>
      </g>
     </g>
     <g id="text_1">
      <!-- 0.0000 -->
      <g transform="translate(56.337415 296.262437) scale(0.1 -0.1)">
       <defs>
        <path id="DejaVuSans-30" d="M 2034 4250 
Q 1547 4250 1301 3770 
Q 1056 3291 1056 2328 
Q 1056 1369 1301 889 
Q 1547 409 2034 409 
Q 2525 409 2770 889 
Q 3016 1369 3016 2328 
Q 3016 3291 2770 3770 
Q 2525 4250 2034 4250 
z
M 2034 4750 
Q 2819 4750 3233 4129 
Q 3647 3509 3647 2328 
Q 3647 1150 3233 529 
Q 2819 -91 2034 -91 
Q 1250 -91 836 529 
Q 422 1150 422 2328 
Q 422 3509 836 4129 
Q 1250 4750 2034 4750 
z
" transform="scale(0.015625)"/>
        <path id="DejaVuSans-2e" d="M 684 794 
L 1344 794 
L 1344 0 
L 684 0 
L 684 794 
z
" transform="scale(0.015625)"/>
       </defs>
       <use xlink:href="#DejaVuSans-30"/>
       <use xlink:href="#DejaVuSans-2e" x="63.623047"/>
       <use xlink:href="#DejaVuSans-30" x="95.410156"/>
       <use xlink:href="#DejaVuSans-30" x="159.033203"/>
       <use xlink:href="#DejaVuSans-30" x="222.65625"/>
       <use xlink:href="#DejaVuSans-30" x="286.279297"/>
      </g>
     </g>
    </g>
    <g id="xtick_2">
     <g id="line2d_2">
      <g>
       <use xlink:href="#ma58ebe7e37" x="114.414545" y="281.664" style="stroke: #000000; stroke-width: 0.8"/>
      </g>
     </g>
     <g id="text_2">
      <!-- 0.0025 -->
      <g transform="translate(96.919233 296.262437) scale(0.1 -0.1)">
       <defs>
        <path id="DejaVuSans-32" d="M 1228 531 
L 3431 531 
L 3431 0 
L 469 0 
L 469 531 
Q 828 903 1448 1529 
Q 2069 2156 2228 2338 
Q 2531 2678 2651 2914 
Q 2772 3150 2772 3378 
Q 2772 3750 2511 3984 
Q 2250 4219 1831 4219 
Q 1534 4219 1204 4116 
Q 875 4013 500 3803 
L 500 4441 
Q 881 4594 1212 4672 
Q 1544 4750 1819 4750 
Q 2544 4750 2975 4387 
Q 3406 4025 3406 3419 
Q 3406 3131 3298 2873 
Q 3191 2616 2906 2266 
Q 2828 2175 2409 1742 
Q 1991 1309 1228 531 
z
" transform="scale(0.015625)"/>
        <path id="DejaVuSans-35" d="M 691 4666 
L 3169 4666 
L 3169 4134 
L 1269 4134 
L 1269 2991 
Q 1406 3038 1543 3061 
Q 1681 3084 1819 3084 
Q 2600 3084 3056 2656 
Q 3513 2228 3513 1497 
Q 3513 744 3044 326 
Q 2575 -91 1722 -91 
Q 1428 -91 1123 -41 
Q 819 9 494 109 
L 494 744 
Q 775 591 1075 516 
Q 1375 441 1709 441 
Q 2250 441 2565 725 
Q 2881 1009 2881 1497 
Q 2881 1984 2565 2268 
Q 2250 2553 1709 2553 
Q 1456 2553 1204 2497 
Q 953 2441 691 2322 
L 691 4666 
z
" transform="scale(0.015625)"/>
       </defs>
       <use xlink:href="#DejaVuSans-30"/>
       <use xlink:href="#DejaVuSans-2e" x="63.623047"/>
       <use xlink:href="#DejaVuSans-30" x="95.410156"/>
       <use xlink:href="#DejaVuSans-30" x="159.033203"/>
       <use xlink:href="#DejaVuSans-32" x="222.65625"/>
       <use xlink:href="#DejaVuSans-35" x="286.279297"/>
      </g>
     </g>
    </g>
    <g id="xtick_3">
     <g id="line2d_3">
      <g>
       <use xlink:href="#ma58ebe7e37" x="154.996364" y="281.664" style="stroke: #000000; stroke-width: 0.8"/>
      </g>
     </g>
     <g id="text_3">
      <!-- 0.0050 -->
      <g transform="translate(137.501051 296.262437) scale(0.1 -0.1)">
       <use xlink:href="#DejaVuSans-30"/>
       <use xlink:href="#DejaVuSans-2e" x="63.623047"/>
       <use xlink:href="#DejaVuSans-30" x="95.410156"/>
       <use xlink:href="#DejaVuSans-30" x="159.033203"/>
       <use xlink:href="#DejaVuSans-35" x="222.65625"/>
       <use xlink:href="#DejaVuSans-30" x="286.279297"/>
      </g>
     </g>
    </g>
    <g id="xtick_4">
     <g id="line2d_4">
      <g>
       <use xlink:href="#ma58ebe7e37" x="195.578182" y="281.664" style="stroke: #000000; stroke-width: 0.8"/>
      </g>
     </g>
     <g id="text_4">
      <!-- 0.0075 -->
      <g transform="translate(178.082869 296.262437) scale(0.1 -0.1)">
       <defs>
        <path id="DejaVuSans-37" d="M 525 4666 
L 3525 4666 
L 3525 4397 
L 1831 0 
L 1172 0 
L 2766 4134 
L 525 4134 
L 525 4666 
z
" transform="scale(0.015625)"/>
       </defs>
       <use xlink:href="#DejaVuSans-30"/>
       <use xlink:href="#DejaVuSans-2e" x="63.623047"/>
       <use xlink:href="#DejaVuSans-30" x="95.410156"/>
       <use xlink:href="#DejaVuSans-30" x="159.033203"/>
       <use xlink:href="#DejaVuSans-37" x="222.65625"/>
       <use xlink:href="#DejaVuSans-35" x="286.279297"/>
      </g>
     </g>
    </g>
    <g id="xtick_5">
     <g id="line2d_5">
      <g>
       <use xlink:href="#ma58ebe7e37" x="236.16" y="281.664" style="stroke: #000000; stroke-width: 0.8"/>
      </g>
     </g>
     <g id="text_5">
      <!-- 0.0100 -->
      <g transform="translate(218.664687 296.262437) scale(0.1 -0.1)">
       <defs>
        <path id="DejaVuSans-31" d="M 794 531 
L 1825 531 
L 1825 4091 
L 703 3866 
L 703 4441 
L 1819 4666 
L 2450 4666 
L 2450 531 
L 3481 531 
L 3481 0 
L 794 0 
L 794 531 
z
" transform="scale(0.015625)"/>
       </defs>
       <use xlink:href="#DejaVuSans-30"/>
       <use xlink:href="#DejaVuSans-2e" x="63.623047"/>
       <use xlink:href="#DejaVuSans-30" x="95.410156"/>
       <use xlink:href="#DejaVuSans-31" x="159.033203"/>
       <use xlink:href="#DejaVuSans-30" x="222.65625"/>
       <use xlink:href="#DejaVuSans-30" x="286.279297"/>
      </g>
     </g>
    </g>
    <g id="xtick_6">
     <g id="line2d_6">
      <g>
       <use xlink:href="#ma58ebe7e37" x="276.741818" y="281.664" style="stroke: #000000; stroke-width: 0.8"/>
      </g>
     </g>
     <g id="text_6">
      <!-- 0.0125 -->
      <g transform="translate(259.246506 296.262437) scale(0.1 -0.1)">
       <use xlink:href="#DejaVuSans-30"/>
       <use xlink:href="#DejaVuSans-2e" x="63.623047"/>
       <use xlink:href="#DejaVuSans-30" x="95.410156"/>
       <use xlink:href="#DejaVuSans-31" x="159.033203"/>
       <use xlink:href="#DejaVuSans-32" x="222.65625"/>
       <use xlink:href="#DejaVuSans-35" x="286.279297"/>
      </g>
     </g>
    </g>
    <g id="xtick_7">
     <g id="line2d_7">
      <g>
       <use xlink:href="#ma58ebe7e37" x="317.323636" y="281.664" style="stroke: #000000; stroke-width: 0.8"/>
      </g>
     </g>
     <g id="text_7">
      <!-- 0.0150 -->
      <g transform="translate(299.828324 296.262437) scale(0.1 -0.1)">
       <use xlink:href="#DejaVuSans-30"/>
       <use xlink:href="#DejaVuSans-2e" x="63.623047"/>
       <use xlink:href="#DejaVuSans-30" x="95.410156"/>
       <use xlink:href="#DejaVuSans-31" x="159.033203"/>
       <use xlink:href="#DejaVuSans-35" x="222.65625"/>
       <use xlink:href="#DejaVuSans-30" x="286.279297"/>
      </g>
     </g>
    </g>
    <g id="xtick_8">
     <g id="line2d_8">
      <g>
       <use xlink:href="#ma58ebe7e37" x="357.905455" y="281.664" style="stroke: #000000; stroke-width: 0.8"/>
      </g>
     </g>
     <g id="text_8">
      <!-- 0.0175 -->
      <g transform="translate(340.410142 296.262437) scale(0.1 -0.1)">
       <use xlink:href="#DejaVuSans-30"/>
       <use xlink:href="#DejaVuSans-2e" x="63.623047"/>
       <use xlink:href="#DejaVuSans-30" x="95.410156"/>
       <use xlink:href="#DejaVuSans-31" x="159.033203"/>
       <use xlink:href="#DejaVuSans-37" x="222.65625"/>
       <use xlink:href="#DejaVuSans-35" x="286.279297"/>
      </g>
     </g>
    </g>
    <g id="xtick_9">
     <g id="line2d_9">
      <g>
       <use xlink:href="#ma58ebe7e37" x="398.487273" y="281.664" style="stroke: #000000; stroke-width: 0.8"/>
      </g>
     </g>
     <g id="text_9">
      <!-- 0.0200 -->
      <g transform="translate(380.99196 296.262437) scale(0.1 -0.1)">
       <use xlink:href="#DejaVuSans-30"/>
       <use xlink:href="#DejaVuSans-2e" x="63.623047"/>
       <use xlink:href="#DejaVuSans-30" x="95.410156"/>
       <use xlink:href="#DejaVuSans-32" x="159.033203"/>
       <use xlink:href="#DejaVuSans-30" x="222.65625"/>
       <use xlink:href="#DejaVuSans-30" x="286.279297"/>
      </g>
     </g>
    </g>
    <g id="text_10">
     <!-- X -->
     <g transform="translate(232.735 309.940562) scale(0.1 -0.1)">
      <defs>
       <path id="DejaVuSans-58" d="M 403 4666 
L 1081 4666 
L 2241 2931 
L 3406 4666 
L 4084 4666 
L 2584 2425 
L 4184 0 
L 3506 0 
L 2194 1984 
L 872 0 
L 191 0 
L 1856 2491 
L 403 4666 
z
" transform="scale(0.015625)"/>
      </defs>
      <use xlink:href="#DejaVuSans-58"/>
     </g>
    </g>
   </g>
   <g id="matplotlib.axis_2">
    <g id="ytick_1">
     <g id="line2d_10">
      <defs>
       <path id="m52eadc5673" d="M 0 0 
L -3.5 0 
" style="stroke: #000000; stroke-width: 0.8"/>
      </defs>
      <g>
       <use xlink:href="#m52eadc5673" x="57.6" y="271.924364" style="stroke: #000000; stroke-width: 0.8"/>
      </g>
     </g>
     <g id="text_11">
      <!-- 0.000 -->
      <g transform="translate(21.971875 275.723582) scale(0.1 -0.1)">
       <use xlink:href="#DejaVuSans-30"/>
       <use xlink:href="#DejaVuSans-2e" x="63.623047"/>
       <use xlink:href="#DejaVuSans-30" x="95.410156"/>
       <use xlink:href="#DejaVuSans-30" x="159.033203"/>
       <use xlink:href="#DejaVuSans-30" x="222.65625"/>
      </g>
     </g>
    </g>
    <g id="ytick_2">
     <g id="line2d_11">
      <g>
       <use xlink:href="#m52eadc5673" x="57.6" y="239.458909" style="stroke: #000000; stroke-width: 0.8"/>
      </g>
     </g>
     <g id="text_12">
      <!-- 0.002 -->
      <g transform="translate(21.971875 243.258128) scale(0.1 -0.1)">
       <use xlink:href="#DejaVuSans-30"/>
       <use xlink:href="#DejaVuSans-2e" x="63.623047"/>
       <use xlink:href="#DejaVuSans-30" x="95.410156"/>
       <use xlink:href="#DejaVuSans-30" x="159.033203"/>
       <use xlink:href="#DejaVuSans-32" x="222.65625"/>
      </g>
     </g>
    </g>
    <g id="ytick_3">
     <g id="line2d_12">
      <g>
       <use xlink:href="#m52eadc5673" x="57.6" y="206.993455" style="stroke: #000000; stroke-width: 0.8"/>
      </g>
     </g>
     <g id="text_13">
      <!-- 0.004 -->
      <g transform="translate(21.971875 210.792673) scale(0.1 -0.1)">
       <defs>
        <path id="DejaVuSans-34" d="M 2419 4116 
L 825 1625 
L 2419 1625 
L 2419 4116 
z
M 2253 4666 
L 3047 4666 
L 3047 1625 
L 3713 1625 
L 3713 1100 
L 3047 1100 
L 3047 0 
L 2419 0 
L 2419 1100 
L 313 1100 
L 313 1709 
L 2253 4666 
z
" transform="scale(0.015625)"/>
       </defs>
       <use xlink:href="#DejaVuSans-30"/>
       <use xlink:href="#DejaVuSans-2e" x="63.623047"/>
       <use xlink:href="#DejaVuSans-30" x="95.410156"/>
       <use xlink:href="#DejaVuSans-30" x="159.033203"/>
       <use xlink:href="#DejaVuSans-34" x="222.65625"/>
      </g>
     </g>
    </g>
    <g id="ytick_4">
     <g id="line2d_13">
      <g>
       <use xlink:href="#m52eadc5673" x="57.6" y="174.528" style="stroke: #000000; stroke-width: 0.8"/>
      </g>
     </g>
     <g id="text_14">
      <!-- 0.006 -->
      <g transform="translate(21.971875 178.327219) scale(0.1 -0.1)">
       <defs>
        <path id="DejaVuSans-36" d="M 2113 2584 
Q 1688 2584 1439 2293 
Q 1191 2003 1191 1497 
Q 1191 994 1439 701 
Q 1688 409 2113 409 
Q 2538 409 2786 701 
Q 3034 994 3034 1497 
Q 3034 2003 2786 2293 
Q 2538 2584 2113 2584 
z
M 3366 4563 
L 3366 3988 
Q 3128 4100 2886 4159 
Q 2644 4219 2406 4219 
Q 1781 4219 1451 3797 
Q 1122 3375 1075 2522 
Q 1259 2794 1537 2939 
Q 1816 3084 2150 3084 
Q 2853 3084 3261 2657 
Q 3669 2231 3669 1497 
Q 3669 778 3244 343 
Q 2819 -91 2113 -91 
Q 1303 -91 875 529 
Q 447 1150 447 2328 
Q 447 3434 972 4092 
Q 1497 4750 2381 4750 
Q 2619 4750 2861 4703 
Q 3103 4656 3366 4563 
z
" transform="scale(0.015625)"/>
       </defs>
       <use xlink:href="#DejaVuSans-30"/>
       <use xlink:href="#DejaVuSans-2e" x="63.623047"/>
       <use xlink:href="#DejaVuSans-30" x="95.410156"/>
       <use xlink:href="#DejaVuSans-30" x="159.033203"/>
       <use xlink:href="#DejaVuSans-36" x="222.65625"/>
      </g>
     </g>
    </g>
    <g id="ytick_5">
     <g id="line2d_14">
      <g>
       <use xlink:href="#m52eadc5673" x="57.6" y="142.062545" style="stroke: #000000; stroke-width: 0.8"/>
      </g>
     </g>
     <g id="text_15">
      <!-- 0.008 -->
      <g transform="translate(21.971875 145.861764) scale(0.1 -0.1)">
       <defs>
        <path id="DejaVuSans-38" d="M 2034 2216 
Q 1584 2216 1326 1975 
Q 1069 1734 1069 1313 
Q 1069 891 1326 650 
Q 1584 409 2034 409 
Q 2484 409 2743 651 
Q 3003 894 3003 1313 
Q 3003 1734 2745 1975 
Q 2488 2216 2034 2216 
z
M 1403 2484 
Q 997 2584 770 2862 
Q 544 3141 544 3541 
Q 544 4100 942 4425 
Q 1341 4750 2034 4750 
Q 2731 4750 3128 4425 
Q 3525 4100 3525 3541 
Q 3525 3141 3298 2862 
Q 3072 2584 2669 2484 
Q 3125 2378 3379 2068 
Q 3634 1759 3634 1313 
Q 3634 634 3220 271 
Q 2806 -91 2034 -91 
Q 1263 -91 848 271 
Q 434 634 434 1313 
Q 434 1759 690 2068 
Q 947 2378 1403 2484 
z
M 1172 3481 
Q 1172 3119 1398 2916 
Q 1625 2713 2034 2713 
Q 2441 2713 2670 2916 
Q 2900 3119 2900 3481 
Q 2900 3844 2670 4047 
Q 2441 4250 2034 4250 
Q 1625 4250 1398 4047 
Q 1172 3844 1172 3481 
z
" transform="scale(0.015625)"/>
       </defs>
       <use xlink:href="#DejaVuSans-30"/>
       <use xlink:href="#DejaVuSans-2e" x="63.623047"/>
       <use xlink:href="#DejaVuSans-30" x="95.410156"/>
       <use xlink:href="#DejaVuSans-30" x="159.033203"/>
       <use xlink:href="#DejaVuSans-38" x="222.65625"/>
      </g>
     </g>
    </g>
    <g id="ytick_6">
     <g id="line2d_15">
      <g>
       <use xlink:href="#m52eadc5673" x="57.6" y="109.597091" style="stroke: #000000; stroke-width: 0.8"/>
      </g>
     </g>
     <g id="text_16">
      <!-- 0.010 -->
      <g transform="translate(21.971875 113.39631) scale(0.1 -0.1)">
       <use xlink:href="#DejaVuSans-30"/>
       <use xlink:href="#DejaVuSans-2e" x="63.623047"/>
       <use xlink:href="#DejaVuSans-30" x="95.410156"/>
       <use xlink:href="#DejaVuSans-31" x="159.033203"/>
       <use xlink:href="#DejaVuSans-30" x="222.65625"/>
      </g>
     </g>
    </g>
    <g id="ytick_7">
     <g id="line2d_16">
      <g>
       <use xlink:href="#m52eadc5673" x="57.6" y="77.131636" style="stroke: #000000; stroke-width: 0.8"/>
      </g>
     </g>
     <g id="text_17">
      <!-- 0.012 -->
      <g transform="translate(21.971875 80.930855) scale(0.1 -0.1)">
       <use xlink:href="#DejaVuSans-30"/>
       <use xlink:href="#DejaVuSans-2e" x="63.623047"/>
       <use xlink:href="#DejaVuSans-30" x="95.410156"/>
       <use xlink:href="#DejaVuSans-31" x="159.033203"/>
       <use xlink:href="#DejaVuSans-32" x="222.65625"/>
      </g>
     </g>
    </g>
    <g id="text_18">
     <!-- Y -->
     <g transform="translate(15.892188 177.581906) rotate(-90) scale(0.1 -0.1)">
      <defs>
       <path id="DejaVuSans-59" d="M -13 4666 
L 666 4666 
L 1959 2747 
L 3244 4666 
L 3922 4666 
L 2272 2222 
L 2272 0 
L 1638 0 
L 1638 2222 
L -13 4666 
z
" transform="scale(0.015625)"/>
      </defs>
      <use xlink:href="#DejaVuSans-59"/>
     </g>
    </g>
   </g>
   <g id="patch_3">
    <path d="M 57.6 281.664 
L 57.6 67.392 
" style="fill: none; stroke: #000000; stroke-width: 0.8; stroke-linejoin: miter; stroke-linecap: square"/>
   </g>
   <g id="patch_4">
    <path d="M 414.72 281.664 
L 414.72 67.392 
" style="fill: none; stroke: #000000; stroke-width: 0.8; stroke-linejoin: miter; stroke-linecap: square"/>
   </g>
   <g id="patch_5">
    <path d="M 57.6 281.664 
L 414.72 281.664 
" style="fill: none; stroke: #000000; stroke-width: 0.8; stroke-linejoin: miter; stroke-linecap: square"/>
   </g>
   <g id="patch_6">
    <path d="M 57.6 67.392 
L 414.72 67.392 
" style="fill: none; stroke: #000000; stroke-width: 0.8; stroke-linejoin: miter; stroke-linecap: square"/>
   </g>
  </g>
 </g>
 <defs>
  <clipPath id="pc418ad2096">
   <rect x="57.6" y="67.392" width="357.12" height="214.272"/>
  </clipPath>
 </defs>
</svg>
