<?xml version="1.0" encoding="utf-8" standalone="no"?>
<!DOCTYPE svg PUBLIC "-//W3C//DTD SVG 1.1//EN"
  "http://www.w3.org/Graphics/SVG/1.1/DTD/svg11.dtd">
<svg xmlns:xlink="http://www.w3.org/1999/xlink" width="460.8pt" height="345.6pt" viewBox="0 0 460.8 345.6" xmlns="http://www.w3.org/2000/svg" version="1.1">
 <metadata>
  <rdf:RDF xmlns:dc="http://purl.org/dc/elements/1.1/" xmlns:cc="http://creativecommons.org/ns#" xmlns:rdf="http://www.w3.org/1999/02/22-rdf-syntax-ns#">
   <cc:Work>
    <dc:type rdf:resource="http://purl.org/dc/dcmitype/StillImage"/>
    <dc:date>2023-03-23T06:23:33.063238</dc:date>
    <dc:format>image/svg+xml</dc:format>
    <dc:creator>
     <cc:Agent>
      <dc:title>Matplotlib v3.7.1, https://matplotlib.org/</dc:title>
     </cc:Agent>
    </dc:creator>
   </cc:Work>
  </rdf:RDF>
 </metadata>
 <defs>
  <style type="text/css">*{stroke-linejoin: round; stroke-linecap: butt}</style>
 </defs>
 <g id="figure_1">
  <g id="patch_1">
   <path d="M 0 345.6 
L 460.8 345.6 
L 460.8 0 
L 0 0 
z
" style="fill: #ffffff"/>
  </g>
  <g id="axes_1">
   <g id="patch_2">
    <path d="M 57.6 281.664 
L 414.72 281.664 
L 414.72 67.392 
L 57.6 67.392 
z
" style="fill: #ffffff"/>
   </g>
   <g id="line2d_1">
    <path d="M 80.325818 271.924364 
L 73.832727 271.924364 
M 86.818909 271.924364 
L 80.325818 271.924364 
M 93.312 271.924364 
L 86.818909 271.924364 
M 99.805091 271.924364 
L 93.312 271.924364 
M 106.298182 271.924364 
L 99.805091 271.924364 
M 112.791273 271.924364 
L 106.298182 271.924364 
M 119.284364 271.924364 
L 112.791273 271.924364 
M 125.777455 271.924364 
L 119.284364 271.924364 
M 132.270545 271.924364 
L 125.777455 271.924364 
M 138.763636 271.924364 
L 132.270545 271.924364 
M 145.256727 271.924364 
L 138.763636 271.924364 
M 151.749818 271.924364 
L 145.256727 271.924364 
M 158.242909 271.924364 
L 151.749818 271.924364 
M 164.736 271.924364 
L 158.242909 271.924364 
M 171.229091 271.924364 
L 164.736 271.924364 
M 177.722182 271.924364 
L 171.229091 271.924364 
M 184.215273 271.924364 
L 177.722182 271.924364 
M 190.708364 271.924364 
L 184.215273 271.924364 
M 197.201455 271.924364 
L 190.708364 271.924364 
M 203.694545 271.924364 
L 197.201455 271.924364 
M 210.187636 271.924364 
L 203.694545 271.924364 
M 216.680727 271.924364 
L 210.187636 271.924364 
M 223.173818 271.924364 
L 216.680727 271.924364 
M 229.666909 271.924364 
L 223.173818 271.924364 
M 236.16 271.924364 
L 229.666909 271.924364 
M 242.653091 271.924364 
L 236.16 271.924364 
M 249.146182 271.924364 
L 242.653091 271.924364 
M 255.639273 271.924364 
L 249.146182 271.924364 
M 262.132364 271.924364 
L 255.639273 271.924364 
M 268.625455 271.924364 
L 262.132364 271.924364 
M 275.118545 271.924364 
L 268.625455 271.924364 
M 281.611636 271.924364 
L 275.118545 271.924364 
M 288.104727 271.924364 
L 281.611636 271.924364 
M 294.597818 271.924364 
L 288.104727 271.924364 
M 301.090909 271.924364 
L 294.597818 271.924364 
M 307.584 271.924364 
L 301.090909 271.924364 
M 314.077091 271.924364 
L 307.584 271.924364 
M 320.570182 271.924364 
L 314.077091 271.924364 
M 327.063273 271.924364 
L 320.570182 271.924364 
M 333.556364 271.924364 
L 327.063273 271.924364 
M 340.049455 271.924364 
L 333.556364 271.924364 
M 346.542545 271.924364 
L 340.049455 271.924364 
M 353.035636 271.924364 
L 346.542545 271.924364 
M 359.528727 271.924364 
L 353.035636 271.924364 
M 366.021818 271.924364 
L 359.528727 271.924364 
M 372.514909 271.924364 
L 366.021818 271.924364 
M 379.008 271.924364 
L 372.514909 271.924364 
M 385.501091 271.924364 
L 379.008 271.924364 
M 391.994182 271.924364 
L 385.501091 271.924364 
M 398.487273 271.924364 
L 391.994182 271.924364 
M 73.832727 252.445091 
L 73.832727 271.924364 
M 80.325818 252.445091 
L 73.832727 271.924364 
M 80.325818 252.445091 
L 80.325818 271.924364 
M 80.325818 252.445091 
L 86.818909 271.924364 
M 80.325818 252.445091 
L 73.832727 252.445091 
M 86.818909 252.445091 
L 86.818909 271.924364 
M 86.818909 252.445091 
L 80.325818 252.445091 
M 93.312 252.445091 
L 86.818909 271.924364 
M 93.312 252.445091 
L 93.312 271.924364 
M 93.312 252.445091 
L 99.805091 271.924364 
M 93.312 252.445091 
L 86.818909 252.445091 
M 99.805091 252.445091 
L 99.805091 271.924364 
M 99.805091 252.445091 
L 93.312 252.445091 
M 106.298182 252.445091 
L 99.805091 271.924364 
M 106.298182 252.445091 
L 106.298182 271.924364 
M 106.298182 252.445091 
L 112.791273 271.924364 
M 106.298182 252.445091 
L 99.805091 252.445091 
M 112.791273 252.445091 
L 112.791273 271.924364 
M 112.791273 252.445091 
L 106.298182 252.445091 
M 119.284364 252.445091 
L 112.791273 271.924364 
M 119.284364 252.445091 
L 119.284364 271.924364 
M 119.284364 252.445091 
L 125.777455 271.924364 
M 119.284364 252.445091 
L 112.791273 252.445091 
M 125.777455 252.445091 
L 125.777455 271.924364 
M 125.777455 252.445091 
L 119.284364 252.445091 
M 132.270545 252.445091 
L 125.777455 271.924364 
M 132.270545 252.445091 
L 132.270545 271.924364 
M 132.270545 252.445091 
L 138.763636 271.924364 
M 132.270545 252.445091 
L 125.777455 252.445091 
M 138.763636 252.445091 
L 138.763636 271.924364 
M 138.763636 252.445091 
L 132.270545 252.445091 
M 145.256727 252.445091 
L 138.763636 271.924364 
M 145.256727 252.445091 
L 145.256727 271.924364 
M 145.256727 252.445091 
L 151.749818 271.924364 
M 145.256727 252.445091 
L 138.763636 252.445091 
M 151.749818 252.445091 
L 151.749818 271.924364 
M 151.749818 252.445091 
L 145.256727 252.445091 
M 158.242909 252.445091 
L 151.749818 271.924364 
M 158.242909 252.445091 
L 158.242909 271.924364 
M 158.242909 252.445091 
L 164.736 271.924364 
M 158.242909 252.445091 
L 151.749818 252.445091 
M 164.736 252.445091 
L 164.736 271.924364 
M 164.736 252.445091 
L 158.242909 252.445091 
M 171.229091 252.445091 
L 164.736 271.924364 
M 171.229091 252.445091 
L 171.229091 271.924364 
M 171.229091 252.445091 
L 177.722182 271.924364 
M 171.229091 252.445091 
L 164.736 252.445091 
M 177.722182 252.445091 
L 177.722182 271.924364 
M 177.722182 252.445091 
L 171.229091 252.445091 
M 184.215273 252.445091 
L 177.722182 271.924364 
M 184.215273 252.445091 
L 184.215273 271.924364 
M 184.215273 252.445091 
L 190.708364 271.924364 
M 184.215273 252.445091 
L 177.722182 252.445091 
M 190.708364 252.445091 
L 190.708364 271.924364 
M 190.708364 252.445091 
L 184.215273 252.445091 
M 197.201455 252.445091 
L 190.708364 271.924364 
M 197.201455 252.445091 
L 197.201455 271.924364 
M 197.201455 252.445091 
L 203.694545 271.924364 
M 197.201455 252.445091 
L 190.708364 252.445091 
M 203.694545 252.445091 
L 203.694545 271.924364 
M 203.694545 252.445091 
L 197.201455 252.445091 
M 210.187636 252.445091 
L 203.694545 271.924364 
M 210.187636 252.445091 
L 210.187636 271.924364 
M 210.187636 252.445091 
L 216.680727 271.924364 
M 210.187636 252.445091 
L 203.694545 252.445091 
M 216.680727 252.445091 
L 216.680727 271.924364 
M 216.680727 252.445091 
L 210.187636 252.445091 
M 223.173818 252.445091 
L 216.680727 271.924364 
M 223.173818 252.445091 
L 223.173818 271.924364 
M 223.173818 252.445091 
L 229.666909 271.924364 
M 223.173818 252.445091 
L 216.680727 252.445091 
M 229.666909 252.445091 
L 229.666909 271.924364 
M 229.666909 252.445091 
L 223.173818 252.445091 
M 236.16 252.445091 
L 229.666909 271.924364 
M 236.16 252.445091 
L 236.16 271.924364 
M 236.16 252.445091 
L 242.653091 271.924364 
M 236.16 252.445091 
L 229.666909 252.445091 
M 242.653091 252.445091 
L 242.653091 271.924364 
M 242.653091 252.445091 
L 236.16 252.445091 
M 249.146182 252.445091 
L 242.653091 271.924364 
M 249.146182 252.445091 
L 249.146182 271.924364 
M 249.146182 252.445091 
L 255.639273 271.924364 
M 249.146182 252.445091 
L 242.653091 252.445091 
M 255.639273 252.445091 
L 255.639273 271.924364 
M 255.639273 252.445091 
L 249.146182 252.445091 
M 262.132364 252.445091 
L 255.639273 271.924364 
M 262.132364 252.445091 
L 262.132364 271.924364 
M 262.132364 252.445091 
L 268.625455 271.924364 
M 262.132364 252.445091 
L 255.639273 252.445091 
M 268.625455 252.445091 
L 268.625455 271.924364 
M 268.625455 252.445091 
L 262.132364 252.445091 
M 275.118545 252.445091 
L 268.625455 271.924364 
M 275.118545 252.445091 
L 275.118545 271.924364 
M 275.118545 252.445091 
L 281.611636 271.924364 
M 275.118545 252.445091 
L 268.625455 252.445091 
M 281.611636 252.445091 
L 281.611636 271.924364 
M 281.611636 252.445091 
L 275.118545 252.445091 
M 288.104727 252.445091 
L 281.611636 271.924364 
M 288.104727 252.445091 
L 288.104727 271.924364 
M 288.104727 252.445091 
L 294.597818 271.924364 
M 288.104727 252.445091 
L 281.611636 252.445091 
M 294.597818 252.445091 
L 294.597818 271.924364 
M 294.597818 252.445091 
L 288.104727 252.445091 
M 301.090909 252.445091 
L 294.597818 271.924364 
M 301.090909 252.445091 
L 301.090909 271.924364 
M 301.090909 252.445091 
L 307.584 271.924364 
M 301.090909 252.445091 
L 294.597818 252.445091 
M 307.584 252.445091 
L 307.584 271.924364 
M 307.584 252.445091 
L 301.090909 252.445091 
M 314.077091 252.445091 
L 307.584 271.924364 
M 314.077091 252.445091 
L 314.077091 271.924364 
M 314.077091 252.445091 
L 320.570182 271.924364 
M 314.077091 252.445091 
L 307.584 252.445091 
M 320.570182 252.445091 
L 320.570182 271.924364 
M 320.570182 252.445091 
L 314.077091 252.445091 
M 327.063273 252.445091 
L 320.570182 271.924364 
M 327.063273 252.445091 
L 327.063273 271.924364 
M 327.063273 252.445091 
L 333.556364 271.924364 
M 327.063273 252.445091 
L 320.570182 252.445091 
M 333.556364 252.445091 
L 333.556364 271.924364 
M 333.556364 252.445091 
L 327.063273 252.445091 
M 340.049455 252.445091 
L 333.556364 271.924364 
M 340.049455 252.445091 
L 340.049455 271.924364 
M 340.049455 252.445091 
L 346.542545 271.924364 
M 340.049455 252.445091 
L 333.556364 252.445091 
M 346.542545 252.445091 
L 346.542545 271.924364 
M 346.542545 252.445091 
L 340.049455 252.445091 
M 353.035636 252.445091 
L 346.542545 271.924364 
M 353.035636 252.445091 
L 353.035636 271.924364 
M 353.035636 252.445091 
L 359.528727 271.924364 
M 353.035636 252.445091 
L 346.542545 252.445091 
M 359.528727 252.445091 
L 359.528727 271.924364 
M 359.528727 252.445091 
L 353.035636 252.445091 
M 366.021818 252.445091 
L 359.528727 271.924364 
M 366.021818 252.445091 
L 366.021818 271.924364 
M 366.021818 252.445091 
L 372.514909 271.924364 
M 366.021818 252.445091 
L 359.528727 252.445091 
M 372.514909 252.445091 
L 372.514909 271.924364 
M 372.514909 252.445091 
L 366.021818 252.445091 
M 379.008 252.445091 
L 372.514909 271.924364 
M 379.008 252.445091 
L 379.008 271.924364 
M 379.008 252.445091 
L 385.501091 271.924364 
M 379.008 252.445091 
L 372.514909 252.445091 
M 385.501091 252.445091 
L 385.501091 271.924364 
M 385.501091 252.445091 
L 379.008 252.445091 
M 391.994182 252.445091 
L 385.501091 271.924364 
M 391.994182 252.445091 
L 391.994182 271.924364 
M 391.994182 252.445091 
L 398.487273 271.924364 
M 391.994182 252.445091 
L 385.501091 252.445091 
M 398.487273 252.445091 
L 398.487273 271.924364 
M 398.487273 252.445091 
L 391.994182 252.445091 
M 73.832727 232.965818 
L 73.832727 252.445091 
M 73.832727 232.965818 
L 80.325818 252.445091 
M 80.325818 232.965818 
L 80.325818 252.445091 
M 80.325818 232.965818 
L 73.832727 232.965818 
M 86.818909 232.965818 
L 80.325818 252.445091 
M 86.818909 232.965818 
L 86.818909 252.445091 
M 86.818909 232.965818 
L 93.312 252.445091 
M 86.818909 232.965818 
L 80.325818 232.965818 
M 93.312 232.965818 
L 93.312 252.445091 
M 93.312 232.965818 
L 86.818909 232.965818 
M 99.805091 232.965818 
L 93.312 252.445091 
M 99.805091 232.965818 
L 99.805091 252.445091 
M 99.805091 232.965818 
L 106.298182 252.445091 
M 99.805091 232.965818 
L 93.312 232.965818 
M 106.298182 232.965818 
L 106.298182 252.445091 
M 106.298182 232.965818 
L 99.805091 232.965818 
M 112.791273 232.965818 
L 106.298182 252.445091 
M 112.791273 232.965818 
L 112.791273 252.445091 
M 112.791273 232.965818 
L 119.284364 252.445091 
M 112.791273 232.965818 
L 106.298182 232.965818 
M 119.284364 232.965818 
L 119.284364 252.445091 
M 119.284364 232.965818 
L 112.791273 232.965818 
M 125.777455 232.965818 
L 119.284364 252.445091 
M 125.777455 232.965818 
L 125.777455 252.445091 
M 125.777455 232.965818 
L 132.270545 252.445091 
M 125.777455 232.965818 
L 119.284364 232.965818 
M 132.270545 232.965818 
L 132.270545 252.445091 
M 132.270545 232.965818 
L 125.777455 232.965818 
M 138.763636 232.965818 
L 132.270545 252.445091 
M 138.763636 232.965818 
L 138.763636 252.445091 
M 138.763636 232.965818 
L 145.256727 252.445091 
M 138.763636 232.965818 
L 132.270545 232.965818 
M 145.256727 232.965818 
L 145.256727 252.445091 
M 145.256727 232.965818 
L 138.763636 232.965818 
M 151.749818 232.965818 
L 145.256727 252.445091 
M 151.749818 232.965818 
L 151.749818 252.445091 
M 151.749818 232.965818 
L 158.242909 252.445091 
M 151.749818 232.965818 
L 145.256727 232.965818 
M 158.242909 232.965818 
L 158.242909 252.445091 
M 158.242909 232.965818 
L 151.749818 232.965818 
M 164.736 232.965818 
L 158.242909 252.445091 
M 164.736 232.965818 
L 164.736 252.445091 
M 164.736 232.965818 
L 171.229091 252.445091 
M 164.736 232.965818 
L 158.242909 232.965818 
M 171.229091 232.965818 
L 171.229091 252.445091 
M 171.229091 232.965818 
L 164.736 232.965818 
M 177.722182 232.965818 
L 171.229091 252.445091 
M 177.722182 232.965818 
L 177.722182 252.445091 
M 177.722182 232.965818 
L 184.215273 252.445091 
M 177.722182 232.965818 
L 171.229091 232.965818 
M 184.215273 232.965818 
L 184.215273 252.445091 
M 184.215273 232.965818 
L 177.722182 232.965818 
M 190.708364 232.965818 
L 184.215273 252.445091 
M 190.708364 232.965818 
L 190.708364 252.445091 
M 190.708364 232.965818 
L 197.201455 252.445091 
M 190.708364 232.965818 
L 184.215273 232.965818 
M 197.201455 232.965818 
L 197.201455 252.445091 
M 197.201455 232.965818 
L 190.708364 232.965818 
M 203.694545 232.965818 
L 197.201455 252.445091 
M 203.694545 232.965818 
L 203.694545 252.445091 
M 203.694545 232.965818 
L 210.187636 252.445091 
M 203.694545 232.965818 
L 197.201455 232.965818 
M 210.187636 232.965818 
L 210.187636 252.445091 
M 210.187636 232.965818 
L 203.694545 232.965818 
M 216.680727 232.965818 
L 210.187636 252.445091 
M 216.680727 232.965818 
L 216.680727 252.445091 
M 216.680727 232.965818 
L 223.173818 252.445091 
M 216.680727 232.965818 
L 210.187636 232.965818 
M 223.173818 232.965818 
L 223.173818 252.445091 
M 223.173818 232.965818 
L 216.680727 232.965818 
M 229.666909 232.965818 
L 223.173818 252.445091 
M 229.666909 232.965818 
L 229.666909 252.445091 
M 229.666909 232.965818 
L 236.16 252.445091 
M 229.666909 232.965818 
L 223.173818 232.965818 
M 236.16 232.965818 
L 236.16 252.445091 
M 236.16 232.965818 
L 229.666909 232.965818 
M 242.653091 232.965818 
L 236.16 252.445091 
M 242.653091 232.965818 
L 242.653091 252.445091 
M 242.653091 232.965818 
L 249.146182 252.445091 
M 242.653091 232.965818 
L 236.16 232.965818 
M 249.146182 232.965818 
L 249.146182 252.445091 
M 249.146182 232.965818 
L 242.653091 232.965818 
M 255.639273 232.965818 
L 249.146182 252.445091 
M 255.639273 232.965818 
L 255.639273 252.445091 
M 255.639273 232.965818 
L 262.132364 252.445091 
M 255.639273 232.965818 
L 249.146182 232.965818 
M 262.132364 232.965818 
L 262.132364 252.445091 
M 262.132364 232.965818 
L 255.639273 232.965818 
M 268.625455 232.965818 
L 262.132364 252.445091 
M 268.625455 232.965818 
L 268.625455 252.445091 
M 268.625455 232.965818 
L 275.118545 252.445091 
M 268.625455 232.965818 
L 262.132364 232.965818 
M 275.118545 232.965818 
L 275.118545 252.445091 
M 275.118545 232.965818 
L 268.625455 232.965818 
M 281.611636 232.965818 
L 275.118545 252.445091 
M 281.611636 232.965818 
L 281.611636 252.445091 
M 281.611636 232.965818 
L 288.104727 252.445091 
M 281.611636 232.965818 
L 275.118545 232.965818 
M 288.104727 232.965818 
L 288.104727 252.445091 
M 288.104727 232.965818 
L 281.611636 232.965818 
M 294.597818 232.965818 
L 288.104727 252.445091 
M 294.597818 232.965818 
L 294.597818 252.445091 
M 294.597818 232.965818 
L 301.090909 252.445091 
M 294.597818 232.965818 
L 288.104727 232.965818 
M 301.090909 232.965818 
L 301.090909 252.445091 
M 301.090909 232.965818 
L 294.597818 232.965818 
M 307.584 232.965818 
L 301.090909 252.445091 
M 307.584 232.965818 
L 307.584 252.445091 
M 307.584 232.965818 
L 314.077091 252.445091 
M 307.584 232.965818 
L 301.090909 232.965818 
M 314.077091 232.965818 
L 314.077091 252.445091 
M 314.077091 232.965818 
L 307.584 232.965818 
M 320.570182 232.965818 
L 314.077091 252.445091 
M 320.570182 232.965818 
L 320.570182 252.445091 
M 320.570182 232.965818 
L 327.063273 252.445091 
M 320.570182 232.965818 
L 314.077091 232.965818 
M 327.063273 232.965818 
L 327.063273 252.445091 
M 327.063273 232.965818 
L 320.570182 232.965818 
M 333.556364 232.965818 
L 327.063273 252.445091 
M 333.556364 232.965818 
L 333.556364 252.445091 
M 333.556364 232.965818 
L 340.049455 252.445091 
M 333.556364 232.965818 
L 327.063273 232.965818 
M 340.049455 232.965818 
L 340.049455 252.445091 
M 340.049455 232.965818 
L 333.556364 232.965818 
M 346.542545 232.965818 
L 340.049455 252.445091 
M 346.542545 232.965818 
L 346.542545 252.445091 
M 346.542545 232.965818 
L 353.035636 252.445091 
M 346.542545 232.965818 
L 340.049455 232.965818 
M 353.035636 232.965818 
L 353.035636 252.445091 
M 353.035636 232.965818 
L 346.542545 232.965818 
M 359.528727 232.965818 
L 353.035636 252.445091 
M 359.528727 232.965818 
L 359.528727 252.445091 
M 359.528727 232.965818 
L 366.021818 252.445091 
M 359.528727 232.965818 
L 353.035636 232.965818 
M 366.021818 232.965818 
L 366.021818 252.445091 
M 366.021818 232.965818 
L 359.528727 232.965818 
M 372.514909 232.965818 
L 366.021818 252.445091 
M 372.514909 232.965818 
L 372.514909 252.445091 
M 372.514909 232.965818 
L 379.008 252.445091 
M 372.514909 232.965818 
L 366.021818 232.965818 
M 379.008 232.965818 
L 379.008 252.445091 
M 379.008 232.965818 
L 372.514909 232.965818 
M 385.501091 232.965818 
L 379.008 252.445091 
M 385.501091 232.965818 
L 385.501091 252.445091 
M 385.501091 232.965818 
L 391.994182 252.445091 
M 385.501091 232.965818 
L 379.008 232.965818 
M 391.994182 232.965818 
L 391.994182 252.445091 
M 391.994182 232.965818 
L 385.501091 232.965818 
M 398.487273 232.965818 
L 391.994182 252.445091 
M 398.487273 232.965818 
L 398.487273 252.445091 
M 398.487273 232.965818 
L 391.994182 232.965818 
M 73.832727 213.486545 
L 73.832727 232.965818 
M 80.325818 213.486545 
L 73.832727 232.965818 
M 80.325818 213.486545 
L 80.325818 232.965818 
M 80.325818 213.486545 
L 86.818909 232.965818 
M 80.325818 213.486545 
L 73.832727 213.486545 
M 86.818909 213.486545 
L 86.818909 232.965818 
M 86.818909 213.486545 
L 80.325818 213.486545 
M 93.312 213.486545 
L 86.818909 232.965818 
M 93.312 213.486545 
L 93.312 232.965818 
M 93.312 213.486545 
L 99.805091 232.965818 
M 93.312 213.486545 
L 86.818909 213.486545 
M 99.805091 213.486545 
L 99.805091 232.965818 
M 99.805091 213.486545 
L 93.312 213.486545 
M 106.298182 213.486545 
L 99.805091 232.965818 
M 106.298182 213.486545 
L 106.298182 232.965818 
M 106.298182 213.486545 
L 112.791273 232.965818 
M 106.298182 213.486545 
L 99.805091 213.486545 
M 112.791273 213.486545 
L 112.791273 232.965818 
M 112.791273 213.486545 
L 106.298182 213.486545 
M 119.284364 213.486545 
L 112.791273 232.965818 
M 119.284364 213.486545 
L 119.284364 232.965818 
M 119.284364 213.486545 
L 125.777455 232.965818 
M 119.284364 213.486545 
L 112.791273 213.486545 
M 125.777455 213.486545 
L 125.777455 232.965818 
M 125.777455 213.486545 
L 119.284364 213.486545 
M 132.270545 213.486545 
L 125.777455 232.965818 
M 132.270545 213.486545 
L 132.270545 232.965818 
M 132.270545 213.486545 
L 138.763636 232.965818 
M 132.270545 213.486545 
L 125.777455 213.486545 
M 138.763636 213.486545 
L 138.763636 232.965818 
M 138.763636 213.486545 
L 132.270545 213.486545 
M 145.256727 213.486545 
L 138.763636 232.965818 
M 145.256727 213.486545 
L 145.256727 232.965818 
M 145.256727 213.486545 
L 151.749818 232.965818 
M 145.256727 213.486545 
L 138.763636 213.486545 
M 151.749818 213.486545 
L 151.749818 232.965818 
M 151.749818 213.486545 
L 145.256727 213.486545 
M 158.242909 213.486545 
L 151.749818 232.965818 
M 158.242909 213.486545 
L 158.242909 232.965818 
M 158.242909 213.486545 
L 164.736 232.965818 
M 158.242909 213.486545 
L 151.749818 213.486545 
M 164.736 213.486545 
L 164.736 232.965818 
M 164.736 213.486545 
L 158.242909 213.486545 
M 171.229091 213.486545 
L 164.736 232.965818 
M 171.229091 213.486545 
L 171.229091 232.965818 
M 171.229091 213.486545 
L 177.722182 232.965818 
M 171.229091 213.486545 
L 164.736 213.486545 
M 177.722182 213.486545 
L 177.722182 232.965818 
M 177.722182 213.486545 
L 171.229091 213.486545 
M 184.215273 213.486545 
L 177.722182 232.965818 
M 184.215273 213.486545 
L 184.215273 232.965818 
M 184.215273 213.486545 
L 190.708364 232.965818 
M 184.215273 213.486545 
L 177.722182 213.486545 
M 190.708364 213.486545 
L 190.708364 232.965818 
M 190.708364 213.486545 
L 184.215273 213.486545 
M 197.201455 213.486545 
L 190.708364 232.965818 
M 197.201455 213.486545 
L 197.201455 232.965818 
M 197.201455 213.486545 
L 203.694545 232.965818 
M 197.201455 213.486545 
L 190.708364 213.486545 
M 203.694545 213.486545 
L 203.694545 232.965818 
M 203.694545 213.486545 
L 197.201455 213.486545 
M 210.187636 213.486545 
L 203.694545 232.965818 
M 210.187636 213.486545 
L 210.187636 232.965818 
M 210.187636 213.486545 
L 216.680727 232.965818 
M 210.187636 213.486545 
L 203.694545 213.486545 
M 216.680727 213.486545 
L 216.680727 232.965818 
M 216.680727 213.486545 
L 210.187636 213.486545 
M 223.173818 213.486545 
L 216.680727 232.965818 
M 223.173818 213.486545 
L 223.173818 232.965818 
M 223.173818 213.486545 
L 229.666909 232.965818 
M 223.173818 213.486545 
L 216.680727 213.486545 
M 229.666909 213.486545 
L 229.666909 232.965818 
M 229.666909 213.486545 
L 223.173818 213.486545 
M 236.16 213.486545 
L 229.666909 232.965818 
M 236.16 213.486545 
L 236.16 232.965818 
M 236.16 213.486545 
L 242.653091 232.965818 
M 236.16 213.486545 
L 229.666909 213.486545 
M 242.653091 213.486545 
L 242.653091 232.965818 
M 242.653091 213.486545 
L 236.16 213.486545 
M 249.146182 213.486545 
L 242.653091 232.965818 
M 249.146182 213.486545 
L 249.146182 232.965818 
M 249.146182 213.486545 
L 255.639273 232.965818 
M 249.146182 213.486545 
L 242.653091 213.486545 
M 255.639273 213.486545 
L 255.639273 232.965818 
M 255.639273 213.486545 
L 249.146182 213.486545 
M 262.132364 213.486545 
L 255.639273 232.965818 
M 262.132364 213.486545 
L 262.132364 232.965818 
M 262.132364 213.486545 
L 268.625455 232.965818 
M 262.132364 213.486545 
L 255.639273 213.486545 
M 268.625455 213.486545 
L 268.625455 232.965818 
M 268.625455 213.486545 
L 262.132364 213.486545 
M 275.118545 213.486545 
L 268.625455 232.965818 
M 275.118545 213.486545 
L 275.118545 232.965818 
M 275.118545 213.486545 
L 281.611636 232.965818 
M 275.118545 213.486545 
L 268.625455 213.486545 
M 281.611636 213.486545 
L 281.611636 232.965818 
M 281.611636 213.486545 
L 275.118545 213.486545 
M 288.104727 213.486545 
L 281.611636 232.965818 
M 288.104727 213.486545 
L 288.104727 232.965818 
M 288.104727 213.486545 
L 294.597818 232.965818 
M 288.104727 213.486545 
L 281.611636 213.486545 
M 294.597818 213.486545 
L 294.597818 232.965818 
M 294.597818 213.486545 
L 288.104727 213.486545 
M 301.090909 213.486545 
L 294.597818 232.965818 
M 301.090909 213.486545 
L 301.090909 232.965818 
M 301.090909 213.486545 
L 307.584 232.965818 
M 301.090909 213.486545 
L 294.597818 213.486545 
M 307.584 213.486545 
L 307.584 232.965818 
M 307.584 213.486545 
L 301.090909 213.486545 
M 314.077091 213.486545 
L 307.584 232.965818 
M 314.077091 213.486545 
L 314.077091 232.965818 
M 314.077091 213.486545 
L 320.570182 232.965818 
M 314.077091 213.486545 
L 307.584 213.486545 
M 320.570182 213.486545 
L 320.570182 232.965818 
M 320.570182 213.486545 
L 314.077091 213.486545 
M 327.063273 213.486545 
L 320.570182 232.965818 
M 327.063273 213.486545 
L 327.063273 232.965818 
M 327.063273 213.486545 
L 333.556364 232.965818 
M 327.063273 213.486545 
L 320.570182 213.486545 
M 333.556364 213.486545 
L 333.556364 232.965818 
M 333.556364 213.486545 
L 327.063273 213.486545 
M 340.049455 213.486545 
L 333.556364 232.965818 
M 340.049455 213.486545 
L 340.049455 232.965818 
M 340.049455 213.486545 
L 346.542545 232.965818 
M 340.049455 213.486545 
L 333.556364 213.486545 
M 346.542545 213.486545 
L 346.542545 232.965818 
M 346.542545 213.486545 
L 340.049455 213.486545 
M 353.035636 213.486545 
L 346.542545 232.965818 
M 353.035636 213.486545 
L 353.035636 232.965818 
M 353.035636 213.486545 
L 359.528727 232.965818 
M 353.035636 213.486545 
L 346.542545 213.486545 
M 359.528727 213.486545 
L 359.528727 232.965818 
M 359.528727 213.486545 
L 353.035636 213.486545 
M 366.021818 213.486545 
L 359.528727 232.965818 
M 366.021818 213.486545 
L 366.021818 232.965818 
M 366.021818 213.486545 
L 372.514909 232.965818 
M 366.021818 213.486545 
L 359.528727 213.486545 
M 372.514909 213.486545 
L 372.514909 232.965818 
M 372.514909 213.486545 
L 366.021818 213.486545 
M 379.008 213.486545 
L 372.514909 232.965818 
M 379.008 213.486545 
L 379.008 232.965818 
M 379.008 213.486545 
L 385.501091 232.965818 
M 379.008 213.486545 
L 372.514909 213.486545 
M 385.501091 213.486545 
L 385.501091 232.965818 
M 385.501091 213.486545 
L 379.008 213.486545 
M 391.994182 213.486545 
L 385.501091 232.965818 
M 391.994182 213.486545 
L 391.994182 232.965818 
M 391.994182 213.486545 
L 398.487273 232.965818 
M 391.994182 213.486545 
L 385.501091 213.486545 
M 398.487273 213.486545 
L 398.487273 232.965818 
M 398.487273 213.486545 
L 391.994182 213.486545 
M 73.832727 194.007273 
L 73.832727 213.486545 
M 73.832727 194.007273 
L 80.325818 213.486545 
M 80.325818 194.007273 
L 80.325818 213.486545 
M 80.325818 194.007273 
L 73.832727 194.007273 
M 86.818909 194.007273 
L 80.325818 213.486545 
M 86.818909 194.007273 
L 86.818909 213.486545 
M 86.818909 194.007273 
L 93.312 213.486545 
M 86.818909 194.007273 
L 80.325818 194.007273 
M 93.312 194.007273 
L 93.312 213.486545 
M 93.312 194.007273 
L 86.818909 194.007273 
M 99.805091 194.007273 
L 93.312 213.486545 
M 99.805091 194.007273 
L 99.805091 213.486545 
M 99.805091 194.007273 
L 106.298182 213.486545 
M 99.805091 194.007273 
L 93.312 194.007273 
M 106.298182 194.007273 
L 106.298182 213.486545 
M 106.298182 194.007273 
L 99.805091 194.007273 
M 112.791273 194.007273 
L 106.298182 213.486545 
M 112.791273 194.007273 
L 112.791273 213.486545 
M 112.791273 194.007273 
L 119.284364 213.486545 
M 112.791273 194.007273 
L 106.298182 194.007273 
M 119.284364 194.007273 
L 119.284364 213.486545 
M 119.284364 194.007273 
L 112.791273 194.007273 
M 125.777455 194.007273 
L 119.284364 213.486545 
M 125.777455 194.007273 
L 125.777455 213.486545 
M 125.777455 194.007273 
L 132.270545 213.486545 
M 125.777455 194.007273 
L 119.284364 194.007273 
M 132.270545 194.007273 
L 132.270545 213.486545 
M 132.270545 194.007273 
L 125.777455 194.007273 
M 138.763636 194.007273 
L 132.270545 213.486545 
M 138.763636 194.007273 
L 138.763636 213.486545 
M 138.763636 194.007273 
L 145.256727 213.486545 
M 138.763636 194.007273 
L 132.270545 194.007273 
M 145.256727 194.007273 
L 145.256727 213.486545 
M 145.256727 194.007273 
L 138.763636 194.007273 
M 151.749818 194.007273 
L 145.256727 213.486545 
M 151.749818 194.007273 
L 151.749818 213.486545 
M 151.749818 194.007273 
L 158.242909 213.486545 
M 151.749818 194.007273 
L 145.256727 194.007273 
M 158.242909 194.007273 
L 158.242909 213.486545 
M 158.242909 194.007273 
L 151.749818 194.007273 
M 164.736 194.007273 
L 158.242909 213.486545 
M 164.736 194.007273 
L 164.736 213.486545 
M 164.736 194.007273 
L 171.229091 213.486545 
M 164.736 194.007273 
L 158.242909 194.007273 
M 171.229091 194.007273 
L 171.229091 213.486545 
M 171.229091 194.007273 
L 164.736 194.007273 
M 177.722182 194.007273 
L 171.229091 213.486545 
M 177.722182 194.007273 
L 177.722182 213.486545 
M 177.722182 194.007273 
L 184.215273 213.486545 
M 177.722182 194.007273 
L 171.229091 194.007273 
M 184.215273 194.007273 
L 184.215273 213.486545 
M 184.215273 194.007273 
L 177.722182 194.007273 
M 190.708364 194.007273 
L 184.215273 213.486545 
M 190.708364 194.007273 
L 190.708364 213.486545 
M 190.708364 194.007273 
L 197.201455 213.486545 
M 190.708364 194.007273 
L 184.215273 194.007273 
M 197.201455 194.007273 
L 197.201455 213.486545 
M 197.201455 194.007273 
L 190.708364 194.007273 
M 203.694545 194.007273 
L 197.201455 213.486545 
M 203.694545 194.007273 
L 203.694545 213.486545 
M 203.694545 194.007273 
L 210.187636 213.486545 
M 203.694545 194.007273 
L 197.201455 194.007273 
M 210.187636 194.007273 
L 210.187636 213.486545 
M 210.187636 194.007273 
L 203.694545 194.007273 
M 216.680727 194.007273 
L 210.187636 213.486545 
M 216.680727 194.007273 
L 216.680727 213.486545 
M 216.680727 194.007273 
L 223.173818 213.486545 
M 216.680727 194.007273 
L 210.187636 194.007273 
M 223.173818 194.007273 
L 223.173818 213.486545 
M 223.173818 194.007273 
L 216.680727 194.007273 
M 229.666909 194.007273 
L 223.173818 213.486545 
M 229.666909 194.007273 
L 229.666909 213.486545 
M 229.666909 194.007273 
L 236.16 213.486545 
M 229.666909 194.007273 
L 223.173818 194.007273 
M 236.16 194.007273 
L 236.16 213.486545 
M 236.16 194.007273 
L 229.666909 194.007273 
M 242.653091 194.007273 
L 236.16 213.486545 
M 242.653091 194.007273 
L 242.653091 213.486545 
M 242.653091 194.007273 
L 249.146182 213.486545 
M 242.653091 194.007273 
L 236.16 194.007273 
M 249.146182 194.007273 
L 249.146182 213.486545 
M 249.146182 194.007273 
L 242.653091 194.007273 
M 255.639273 194.007273 
L 249.146182 213.486545 
M 255.639273 194.007273 
L 255.639273 213.486545 
M 255.639273 194.007273 
L 262.132364 213.486545 
M 255.639273 194.007273 
L 249.146182 194.007273 
M 262.132364 194.007273 
L 262.132364 213.486545 
M 262.132364 194.007273 
L 255.639273 194.007273 
M 268.625455 194.007273 
L 262.132364 213.486545 
M 268.625455 194.007273 
L 268.625455 213.486545 
M 268.625455 194.007273 
L 275.118545 213.486545 
M 268.625455 194.007273 
L 262.132364 194.007273 
M 275.118545 194.007273 
L 275.118545 213.486545 
M 275.118545 194.007273 
L 268.625455 194.007273 
M 281.611636 194.007273 
L 275.118545 213.486545 
M 281.611636 194.007273 
L 281.611636 213.486545 
M 281.611636 194.007273 
L 288.104727 213.486545 
M 281.611636 194.007273 
L 275.118545 194.007273 
M 288.104727 194.007273 
L 288.104727 213.486545 
M 288.104727 194.007273 
L 281.611636 194.007273 
M 294.597818 194.007273 
L 288.104727 213.486545 
M 294.597818 194.007273 
L 294.597818 213.486545 
M 294.597818 194.007273 
L 301.090909 213.486545 
M 294.597818 194.007273 
L 288.104727 194.007273 
M 301.090909 194.007273 
L 301.090909 213.486545 
M 301.090909 194.007273 
L 294.597818 194.007273 
M 307.584 194.007273 
L 301.090909 213.486545 
M 307.584 194.007273 
L 307.584 213.486545 
M 307.584 194.007273 
L 314.077091 213.486545 
M 307.584 194.007273 
L 301.090909 194.007273 
M 314.077091 194.007273 
L 314.077091 213.486545 
M 314.077091 194.007273 
L 307.584 194.007273 
M 320.570182 194.007273 
L 314.077091 213.486545 
M 320.570182 194.007273 
L 320.570182 213.486545 
M 320.570182 194.007273 
L 327.063273 213.486545 
M 320.570182 194.007273 
L 314.077091 194.007273 
M 327.063273 194.007273 
L 327.063273 213.486545 
M 327.063273 194.007273 
L 320.570182 194.007273 
M 333.556364 194.007273 
L 327.063273 213.486545 
M 333.556364 194.007273 
L 333.556364 213.486545 
M 333.556364 194.007273 
L 340.049455 213.486545 
M 333.556364 194.007273 
L 327.063273 194.007273 
M 340.049455 194.007273 
L 340.049455 213.486545 
M 340.049455 194.007273 
L 333.556364 194.007273 
M 346.542545 194.007273 
L 340.049455 213.486545 
M 346.542545 194.007273 
L 346.542545 213.486545 
M 346.542545 194.007273 
L 353.035636 213.486545 
M 346.542545 194.007273 
L 340.049455 194.007273 
M 353.035636 194.007273 
L 353.035636 213.486545 
M 353.035636 194.007273 
L 346.542545 194.007273 
M 359.528727 194.007273 
L 353.035636 213.486545 
M 359.528727 194.007273 
L 359.528727 213.486545 
M 359.528727 194.007273 
L 366.021818 213.486545 
M 359.528727 194.007273 
L 353.035636 194.007273 
M 366.021818 194.007273 
L 366.021818 213.486545 
M 366.021818 194.007273 
L 359.528727 194.007273 
M 372.514909 194.007273 
L 366.021818 213.486545 
M 372.514909 194.007273 
L 372.514909 213.486545 
M 372.514909 194.007273 
L 379.008 213.486545 
M 372.514909 194.007273 
L 366.021818 194.007273 
M 379.008 194.007273 
L 379.008 213.486545 
M 379.008 194.007273 
L 372.514909 194.007273 
M 385.501091 194.007273 
L 379.008 213.486545 
M 385.501091 194.007273 
L 385.501091 213.486545 
M 385.501091 194.007273 
L 391.994182 213.486545 
M 385.501091 194.007273 
L 379.008 194.007273 
M 391.994182 194.007273 
L 391.994182 213.486545 
M 391.994182 194.007273 
L 385.501091 194.007273 
M 398.487273 194.007273 
L 391.994182 213.486545 
M 398.487273 194.007273 
L 398.487273 213.486545 
M 398.487273 194.007273 
L 391.994182 194.007273 
M 73.832727 174.528 
L 73.832727 194.007273 
M 80.325818 174.528 
L 73.832727 194.007273 
M 80.325818 174.528 
L 80.325818 194.007273 
M 80.325818 174.528 
L 86.818909 194.007273 
M 80.325818 174.528 
L 73.832727 174.528 
M 86.818909 174.528 
L 86.818909 194.007273 
M 86.818909 174.528 
L 80.325818 174.528 
M 93.312 174.528 
L 86.818909 194.007273 
M 93.312 174.528 
L 93.312 194.007273 
M 93.312 174.528 
L 99.805091 194.007273 
M 93.312 174.528 
L 86.818909 174.528 
M 99.805091 174.528 
L 99.805091 194.007273 
M 99.805091 174.528 
L 93.312 174.528 
M 106.298182 174.528 
L 99.805091 194.007273 
M 106.298182 174.528 
L 106.298182 194.007273 
M 106.298182 174.528 
L 112.791273 194.007273 
M 106.298182 174.528 
L 99.805091 174.528 
M 112.791273 174.528 
L 112.791273 194.007273 
M 112.791273 174.528 
L 106.298182 174.528 
M 119.284364 174.528 
L 112.791273 194.007273 
M 119.284364 174.528 
L 119.284364 194.007273 
M 119.284364 174.528 
L 125.777455 194.007273 
M 119.284364 174.528 
L 112.791273 174.528 
M 125.777455 174.528 
L 125.777455 194.007273 
M 125.777455 174.528 
L 119.284364 174.528 
M 132.270545 174.528 
L 125.777455 194.007273 
M 132.270545 174.528 
L 132.270545 194.007273 
M 132.270545 174.528 
L 138.763636 194.007273 
M 132.270545 174.528 
L 125.777455 174.528 
M 138.763636 174.528 
L 138.763636 194.007273 
M 138.763636 174.528 
L 132.270545 174.528 
M 145.256727 174.528 
L 138.763636 194.007273 
M 145.256727 174.528 
L 145.256727 194.007273 
M 145.256727 174.528 
L 151.749818 194.007273 
M 145.256727 174.528 
L 138.763636 174.528 
M 151.749818 174.528 
L 151.749818 194.007273 
M 151.749818 174.528 
L 145.256727 174.528 
M 158.242909 174.528 
L 151.749818 194.007273 
M 158.242909 174.528 
L 158.242909 194.007273 
M 158.242909 174.528 
L 164.736 194.007273 
M 158.242909 174.528 
L 151.749818 174.528 
M 164.736 174.528 
L 164.736 194.007273 
M 164.736 174.528 
L 158.242909 174.528 
M 171.229091 174.528 
L 164.736 194.007273 
M 171.229091 174.528 
L 171.229091 194.007273 
M 171.229091 174.528 
L 177.722182 194.007273 
M 171.229091 174.528 
L 164.736 174.528 
M 177.722182 174.528 
L 177.722182 194.007273 
M 177.722182 174.528 
L 171.229091 174.528 
M 184.215273 174.528 
L 177.722182 194.007273 
M 184.215273 174.528 
L 184.215273 194.007273 
M 184.215273 174.528 
L 190.708364 194.007273 
M 184.215273 174.528 
L 177.722182 174.528 
M 190.708364 174.528 
L 190.708364 194.007273 
M 190.708364 174.528 
L 184.215273 174.528 
M 197.201455 174.528 
L 190.708364 194.007273 
M 197.201455 174.528 
L 197.201455 194.007273 
M 197.201455 174.528 
L 203.694545 194.007273 
M 197.201455 174.528 
L 190.708364 174.528 
M 203.694545 174.528 
L 203.694545 194.007273 
M 203.694545 174.528 
L 197.201455 174.528 
M 210.187636 174.528 
L 203.694545 194.007273 
M 210.187636 174.528 
L 210.187636 194.007273 
M 210.187636 174.528 
L 216.680727 194.007273 
M 210.187636 174.528 
L 203.694545 174.528 
M 216.680727 174.528 
L 216.680727 194.007273 
M 216.680727 174.528 
L 210.187636 174.528 
M 223.173818 174.528 
L 216.680727 194.007273 
M 223.173818 174.528 
L 223.173818 194.007273 
M 223.173818 174.528 
L 229.666909 194.007273 
M 223.173818 174.528 
L 216.680727 174.528 
M 229.666909 174.528 
L 229.666909 194.007273 
M 229.666909 174.528 
L 223.173818 174.528 
M 236.16 174.528 
L 229.666909 194.007273 
M 236.16 174.528 
L 236.16 194.007273 
M 236.16 174.528 
L 242.653091 194.007273 
M 236.16 174.528 
L 229.666909 174.528 
M 242.653091 174.528 
L 242.653091 194.007273 
M 242.653091 174.528 
L 236.16 174.528 
M 249.146182 174.528 
L 242.653091 194.007273 
M 249.146182 174.528 
L 249.146182 194.007273 
M 249.146182 174.528 
L 255.639273 194.007273 
M 249.146182 174.528 
L 242.653091 174.528 
M 255.639273 174.528 
L 255.639273 194.007273 
M 255.639273 174.528 
L 249.146182 174.528 
M 262.132364 174.528 
L 255.639273 194.007273 
M 262.132364 174.528 
L 262.132364 194.007273 
M 262.132364 174.528 
L 268.625455 194.007273 
M 262.132364 174.528 
L 255.639273 174.528 
M 268.625455 174.528 
L 268.625455 194.007273 
M 268.625455 174.528 
L 262.132364 174.528 
M 275.118545 174.528 
L 268.625455 194.007273 
M 275.118545 174.528 
L 275.118545 194.007273 
M 275.118545 174.528 
L 281.611636 194.007273 
M 275.118545 174.528 
L 268.625455 174.528 
M 281.611636 174.528 
L 281.611636 194.007273 
M 281.611636 174.528 
L 275.118545 174.528 
M 288.104727 174.528 
L 281.611636 194.007273 
M 288.104727 174.528 
L 288.104727 194.007273 
M 288.104727 174.528 
L 294.597818 194.007273 
M 288.104727 174.528 
L 281.611636 174.528 
M 294.597818 174.528 
L 294.597818 194.007273 
M 294.597818 174.528 
L 288.104727 174.528 
M 301.090909 174.528 
L 294.597818 194.007273 
M 301.090909 174.528 
L 301.090909 194.007273 
M 301.090909 174.528 
L 307.584 194.007273 
M 301.090909 174.528 
L 294.597818 174.528 
M 307.584 174.528 
L 307.584 194.007273 
M 307.584 174.528 
L 301.090909 174.528 
M 314.077091 174.528 
L 307.584 194.007273 
M 314.077091 174.528 
L 314.077091 194.007273 
M 314.077091 174.528 
L 320.570182 194.007273 
M 314.077091 174.528 
L 307.584 174.528 
M 320.570182 174.528 
L 320.570182 194.007273 
M 320.570182 174.528 
L 314.077091 174.528 
M 327.063273 174.528 
L 320.570182 194.007273 
M 327.063273 174.528 
L 327.063273 194.007273 
M 327.063273 174.528 
L 333.556364 194.007273 
M 327.063273 174.528 
L 320.570182 174.528 
M 333.556364 174.528 
L 333.556364 194.007273 
M 333.556364 174.528 
L 327.063273 174.528 
M 340.049455 174.528 
L 333.556364 194.007273 
M 340.049455 174.528 
L 340.049455 194.007273 
M 340.049455 174.528 
L 346.542545 194.007273 
M 340.049455 174.528 
L 333.556364 174.528 
M 346.542545 174.528 
L 346.542545 194.007273 
M 346.542545 174.528 
L 340.049455 174.528 
M 353.035636 174.528 
L 346.542545 194.007273 
M 353.035636 174.528 
L 353.035636 194.007273 
M 353.035636 174.528 
L 359.528727 194.007273 
M 353.035636 174.528 
L 346.542545 174.528 
M 359.528727 174.528 
L 359.528727 194.007273 
M 359.528727 174.528 
L 353.035636 174.528 
M 366.021818 174.528 
L 359.528727 194.007273 
M 366.021818 174.528 
L 366.021818 194.007273 
M 366.021818 174.528 
L 372.514909 194.007273 
M 366.021818 174.528 
L 359.528727 174.528 
M 372.514909 174.528 
L 372.514909 194.007273 
M 372.514909 174.528 
L 366.021818 174.528 
M 379.008 174.528 
L 372.514909 194.007273 
M 379.008 174.528 
L 379.008 194.007273 
M 379.008 174.528 
L 385.501091 194.007273 
M 379.008 174.528 
L 372.514909 174.528 
M 385.501091 174.528 
L 385.501091 194.007273 
M 385.501091 174.528 
L 379.008 174.528 
M 391.994182 174.528 
L 385.501091 194.007273 
M 391.994182 174.528 
L 391.994182 194.007273 
M 391.994182 174.528 
L 398.487273 194.007273 
M 391.994182 174.528 
L 385.501091 174.528 
M 398.487273 174.528 
L 398.487273 194.007273 
M 398.487273 174.528 
L 391.994182 174.528 
M 73.832727 155.048727 
L 73.832727 174.528 
M 73.832727 155.048727 
L 80.325818 174.528 
M 80.325818 155.048727 
L 80.325818 174.528 
M 80.325818 155.048727 
L 73.832727 155.048727 
M 86.818909 155.048727 
L 80.325818 174.528 
M 86.818909 155.048727 
L 86.818909 174.528 
M 86.818909 155.048727 
L 93.312 174.528 
M 86.818909 155.048727 
L 80.325818 155.048727 
M 93.312 155.048727 
L 93.312 174.528 
M 93.312 155.048727 
L 86.818909 155.048727 
M 99.805091 155.048727 
L 93.312 174.528 
M 99.805091 155.048727 
L 99.805091 174.528 
M 99.805091 155.048727 
L 106.298182 174.528 
M 99.805091 155.048727 
L 93.312 155.048727 
M 106.298182 155.048727 
L 106.298182 174.528 
M 106.298182 155.048727 
L 99.805091 155.048727 
M 112.791273 155.048727 
L 106.298182 174.528 
M 112.791273 155.048727 
L 112.791273 174.528 
M 112.791273 155.048727 
L 119.284364 174.528 
M 112.791273 155.048727 
L 106.298182 155.048727 
M 119.284364 155.048727 
L 119.284364 174.528 
M 119.284364 155.048727 
L 112.791273 155.048727 
M 125.777455 155.048727 
L 119.284364 174.528 
M 125.777455 155.048727 
L 125.777455 174.528 
M 125.777455 155.048727 
L 132.270545 174.528 
M 125.777455 155.048727 
L 119.284364 155.048727 
M 132.270545 155.048727 
L 132.270545 174.528 
M 132.270545 155.048727 
L 125.777455 155.048727 
M 138.763636 155.048727 
L 132.270545 174.528 
M 138.763636 155.048727 
L 138.763636 174.528 
M 138.763636 155.048727 
L 145.256727 174.528 
M 138.763636 155.048727 
L 132.270545 155.048727 
M 145.256727 155.048727 
L 145.256727 174.528 
M 145.256727 155.048727 
L 138.763636 155.048727 
M 151.749818 155.048727 
L 145.256727 174.528 
M 151.749818 155.048727 
L 151.749818 174.528 
M 151.749818 155.048727 
L 158.242909 174.528 
M 151.749818 155.048727 
L 145.256727 155.048727 
M 158.242909 155.048727 
L 158.242909 174.528 
M 158.242909 155.048727 
L 151.749818 155.048727 
M 164.736 155.048727 
L 158.242909 174.528 
M 164.736 155.048727 
L 164.736 174.528 
M 164.736 155.048727 
L 171.229091 174.528 
M 164.736 155.048727 
L 158.242909 155.048727 
M 171.229091 155.048727 
L 171.229091 174.528 
M 171.229091 155.048727 
L 164.736 155.048727 
M 177.722182 155.048727 
L 171.229091 174.528 
M 177.722182 155.048727 
L 177.722182 174.528 
M 177.722182 155.048727 
L 184.215273 174.528 
M 177.722182 155.048727 
L 171.229091 155.048727 
M 184.215273 155.048727 
L 184.215273 174.528 
M 184.215273 155.048727 
L 177.722182 155.048727 
M 190.708364 155.048727 
L 184.215273 174.528 
M 190.708364 155.048727 
L 190.708364 174.528 
M 190.708364 155.048727 
L 197.201455 174.528 
M 190.708364 155.048727 
L 184.215273 155.048727 
M 197.201455 155.048727 
L 197.201455 174.528 
M 197.201455 155.048727 
L 190.708364 155.048727 
M 203.694545 155.048727 
L 197.201455 174.528 
M 203.694545 155.048727 
L 203.694545 174.528 
M 203.694545 155.048727 
L 210.187636 174.528 
M 203.694545 155.048727 
L 197.201455 155.048727 
M 210.187636 155.048727 
L 210.187636 174.528 
M 210.187636 155.048727 
L 203.694545 155.048727 
M 216.680727 155.048727 
L 210.187636 174.528 
M 216.680727 155.048727 
L 216.680727 174.528 
M 216.680727 155.048727 
L 223.173818 174.528 
M 216.680727 155.048727 
L 210.187636 155.048727 
M 223.173818 155.048727 
L 223.173818 174.528 
M 223.173818 155.048727 
L 216.680727 155.048727 
M 229.666909 155.048727 
L 223.173818 174.528 
M 229.666909 155.048727 
L 229.666909 174.528 
M 229.666909 155.048727 
L 236.16 174.528 
M 229.666909 155.048727 
L 223.173818 155.048727 
M 236.16 155.048727 
L 236.16 174.528 
M 236.16 155.048727 
L 229.666909 155.048727 
M 242.653091 155.048727 
L 236.16 174.528 
M 242.653091 155.048727 
L 242.653091 174.528 
M 242.653091 155.048727 
L 249.146182 174.528 
M 242.653091 155.048727 
L 236.16 155.048727 
M 249.146182 155.048727 
L 249.146182 174.528 
M 249.146182 155.048727 
L 242.653091 155.048727 
M 255.639273 155.048727 
L 249.146182 174.528 
M 255.639273 155.048727 
L 255.639273 174.528 
M 255.639273 155.048727 
L 262.132364 174.528 
M 255.639273 155.048727 
L 249.146182 155.048727 
M 262.132364 155.048727 
L 262.132364 174.528 
M 262.132364 155.048727 
L 255.639273 155.048727 
M 268.625455 155.048727 
L 262.132364 174.528 
M 268.625455 155.048727 
L 268.625455 174.528 
M 268.625455 155.048727 
L 275.118545 174.528 
M 268.625455 155.048727 
L 262.132364 155.048727 
M 275.118545 155.048727 
L 275.118545 174.528 
M 275.118545 155.048727 
L 268.625455 155.048727 
M 281.611636 155.048727 
L 275.118545 174.528 
M 281.611636 155.048727 
L 281.611636 174.528 
M 281.611636 155.048727 
L 288.104727 174.528 
M 281.611636 155.048727 
L 275.118545 155.048727 
M 288.104727 155.048727 
L 288.104727 174.528 
M 288.104727 155.048727 
L 281.611636 155.048727 
M 294.597818 155.048727 
L 288.104727 174.528 
M 294.597818 155.048727 
L 294.597818 174.528 
M 294.597818 155.048727 
L 301.090909 174.528 
M 294.597818 155.048727 
L 288.104727 155.048727 
M 301.090909 155.048727 
L 301.090909 174.528 
M 301.090909 155.048727 
L 294.597818 155.048727 
M 307.584 155.048727 
L 301.090909 174.528 
M 307.584 155.048727 
L 307.584 174.528 
M 307.584 155.048727 
L 314.077091 174.528 
M 307.584 155.048727 
L 301.090909 155.048727 
M 314.077091 155.048727 
L 314.077091 174.528 
M 314.077091 155.048727 
L 307.584 155.048727 
M 320.570182 155.048727 
L 314.077091 174.528 
M 320.570182 155.048727 
L 320.570182 174.528 
M 320.570182 155.048727 
L 327.063273 174.528 
M 320.570182 155.048727 
L 314.077091 155.048727 
M 327.063273 155.048727 
L 327.063273 174.528 
M 327.063273 155.048727 
L 320.570182 155.048727 
M 333.556364 155.048727 
L 327.063273 174.528 
M 333.556364 155.048727 
L 333.556364 174.528 
M 333.556364 155.048727 
L 340.049455 174.528 
M 333.556364 155.048727 
L 327.063273 155.048727 
M 340.049455 155.048727 
L 340.049455 174.528 
M 340.049455 155.048727 
L 333.556364 155.048727 
M 346.542545 155.048727 
L 340.049455 174.528 
M 346.542545 155.048727 
L 346.542545 174.528 
M 346.542545 155.048727 
L 353.035636 174.528 
M 346.542545 155.048727 
L 340.049455 155.048727 
M 353.035636 155.048727 
L 353.035636 174.528 
M 353.035636 155.048727 
L 346.542545 155.048727 
M 359.528727 155.048727 
L 353.035636 174.528 
M 359.528727 155.048727 
L 359.528727 174.528 
M 359.528727 155.048727 
L 366.021818 174.528 
M 359.528727 155.048727 
L 353.035636 155.048727 
M 366.021818 155.048727 
L 366.021818 174.528 
M 366.021818 155.048727 
L 359.528727 155.048727 
M 372.514909 155.048727 
L 366.021818 174.528 
M 372.514909 155.048727 
L 372.514909 174.528 
M 372.514909 155.048727 
L 379.008 174.528 
M 372.514909 155.048727 
L 366.021818 155.048727 
M 379.008 155.048727 
L 379.008 174.528 
M 379.008 155.048727 
L 372.514909 155.048727 
M 385.501091 155.048727 
L 379.008 174.528 
M 385.501091 155.048727 
L 385.501091 174.528 
M 385.501091 155.048727 
L 391.994182 174.528 
M 385.501091 155.048727 
L 379.008 155.048727 
M 391.994182 155.048727 
L 391.994182 174.528 
M 391.994182 155.048727 
L 385.501091 155.048727 
M 398.487273 155.048727 
L 391.994182 174.528 
M 398.487273 155.048727 
L 398.487273 174.528 
M 398.487273 155.048727 
L 391.994182 155.048727 
M 73.832727 135.569455 
L 73.832727 155.048727 
M 80.325818 135.569455 
L 73.832727 155.048727 
M 80.325818 135.569455 
L 80.325818 155.048727 
M 80.325818 135.569455 
L 86.818909 155.048727 
M 80.325818 135.569455 
L 73.832727 135.569455 
M 86.818909 135.569455 
L 86.818909 155.048727 
M 86.818909 135.569455 
L 80.325818 135.569455 
M 93.312 135.569455 
L 86.818909 155.048727 
M 93.312 135.569455 
L 93.312 155.048727 
M 93.312 135.569455 
L 99.805091 155.048727 
M 93.312 135.569455 
L 86.818909 135.569455 
M 99.805091 135.569455 
L 99.805091 155.048727 
M 99.805091 135.569455 
L 93.312 135.569455 
M 106.298182 135.569455 
L 99.805091 155.048727 
M 106.298182 135.569455 
L 106.298182 155.048727 
M 106.298182 135.569455 
L 112.791273 155.048727 
M 106.298182 135.569455 
L 99.805091 135.569455 
M 112.791273 135.569455 
L 112.791273 155.048727 
M 112.791273 135.569455 
L 106.298182 135.569455 
M 119.284364 135.569455 
L 112.791273 155.048727 
M 119.284364 135.569455 
L 119.284364 155.048727 
M 119.284364 135.569455 
L 125.777455 155.048727 
M 119.284364 135.569455 
L 112.791273 135.569455 
M 125.777455 135.569455 
L 125.777455 155.048727 
M 125.777455 135.569455 
L 119.284364 135.569455 
M 132.270545 135.569455 
L 125.777455 155.048727 
M 132.270545 135.569455 
L 132.270545 155.048727 
M 132.270545 135.569455 
L 138.763636 155.048727 
M 132.270545 135.569455 
L 125.777455 135.569455 
M 138.763636 135.569455 
L 138.763636 155.048727 
M 138.763636 135.569455 
L 132.270545 135.569455 
M 145.256727 135.569455 
L 138.763636 155.048727 
M 145.256727 135.569455 
L 145.256727 155.048727 
M 145.256727 135.569455 
L 151.749818 155.048727 
M 145.256727 135.569455 
L 138.763636 135.569455 
M 151.749818 135.569455 
L 151.749818 155.048727 
M 151.749818 135.569455 
L 145.256727 135.569455 
M 158.242909 135.569455 
L 151.749818 155.048727 
M 158.242909 135.569455 
L 158.242909 155.048727 
M 158.242909 135.569455 
L 164.736 155.048727 
M 158.242909 135.569455 
L 151.749818 135.569455 
M 164.736 135.569455 
L 164.736 155.048727 
M 164.736 135.569455 
L 158.242909 135.569455 
M 171.229091 135.569455 
L 164.736 155.048727 
M 171.229091 135.569455 
L 171.229091 155.048727 
M 171.229091 135.569455 
L 177.722182 155.048727 
M 171.229091 135.569455 
L 164.736 135.569455 
M 177.722182 135.569455 
L 177.722182 155.048727 
M 177.722182 135.569455 
L 171.229091 135.569455 
M 184.215273 135.569455 
L 177.722182 155.048727 
M 184.215273 135.569455 
L 184.215273 155.048727 
M 184.215273 135.569455 
L 190.708364 155.048727 
M 184.215273 135.569455 
L 177.722182 135.569455 
M 190.708364 135.569455 
L 190.708364 155.048727 
M 190.708364 135.569455 
L 184.215273 135.569455 
M 197.201455 135.569455 
L 190.708364 155.048727 
M 197.201455 135.569455 
L 197.201455 155.048727 
M 197.201455 135.569455 
L 203.694545 155.048727 
M 197.201455 135.569455 
L 190.708364 135.569455 
M 203.694545 135.569455 
L 203.694545 155.048727 
M 203.694545 135.569455 
L 197.201455 135.569455 
M 210.187636 135.569455 
L 203.694545 155.048727 
M 210.187636 135.569455 
L 210.187636 155.048727 
M 210.187636 135.569455 
L 216.680727 155.048727 
M 210.187636 135.569455 
L 203.694545 135.569455 
M 216.680727 135.569455 
L 216.680727 155.048727 
M 216.680727 135.569455 
L 210.187636 135.569455 
M 223.173818 135.569455 
L 216.680727 155.048727 
M 223.173818 135.569455 
L 223.173818 155.048727 
M 223.173818 135.569455 
L 229.666909 155.048727 
M 223.173818 135.569455 
L 216.680727 135.569455 
M 229.666909 135.569455 
L 229.666909 155.048727 
M 229.666909 135.569455 
L 223.173818 135.569455 
M 236.16 135.569455 
L 229.666909 155.048727 
M 236.16 135.569455 
L 236.16 155.048727 
M 236.16 135.569455 
L 242.653091 155.048727 
M 236.16 135.569455 
L 229.666909 135.569455 
M 242.653091 135.569455 
L 242.653091 155.048727 
M 242.653091 135.569455 
L 236.16 135.569455 
M 249.146182 135.569455 
L 242.653091 155.048727 
M 249.146182 135.569455 
L 249.146182 155.048727 
M 249.146182 135.569455 
L 255.639273 155.048727 
M 249.146182 135.569455 
L 242.653091 135.569455 
M 255.639273 135.569455 
L 255.639273 155.048727 
M 255.639273 135.569455 
L 249.146182 135.569455 
M 262.132364 135.569455 
L 255.639273 155.048727 
M 262.132364 135.569455 
L 262.132364 155.048727 
M 262.132364 135.569455 
L 268.625455 155.048727 
M 262.132364 135.569455 
L 255.639273 135.569455 
M 268.625455 135.569455 
L 268.625455 155.048727 
M 268.625455 135.569455 
L 262.132364 135.569455 
M 275.118545 135.569455 
L 268.625455 155.048727 
M 275.118545 135.569455 
L 275.118545 155.048727 
M 275.118545 135.569455 
L 281.611636 155.048727 
M 275.118545 135.569455 
L 268.625455 135.569455 
M 281.611636 135.569455 
L 281.611636 155.048727 
M 281.611636 135.569455 
L 275.118545 135.569455 
M 288.104727 135.569455 
L 281.611636 155.048727 
M 288.104727 135.569455 
L 288.104727 155.048727 
M 288.104727 135.569455 
L 294.597818 155.048727 
M 288.104727 135.569455 
L 281.611636 135.569455 
M 294.597818 135.569455 
L 294.597818 155.048727 
M 294.597818 135.569455 
L 288.104727 135.569455 
M 301.090909 135.569455 
L 294.597818 155.048727 
M 301.090909 135.569455 
L 301.090909 155.048727 
M 301.090909 135.569455 
L 307.584 155.048727 
M 301.090909 135.569455 
L 294.597818 135.569455 
M 307.584 135.569455 
L 307.584 155.048727 
M 307.584 135.569455 
L 301.090909 135.569455 
M 314.077091 135.569455 
L 307.584 155.048727 
M 314.077091 135.569455 
L 314.077091 155.048727 
M 314.077091 135.569455 
L 320.570182 155.048727 
M 314.077091 135.569455 
L 307.584 135.569455 
M 320.570182 135.569455 
L 320.570182 155.048727 
M 320.570182 135.569455 
L 314.077091 135.569455 
M 327.063273 135.569455 
L 320.570182 155.048727 
M 327.063273 135.569455 
L 327.063273 155.048727 
M 327.063273 135.569455 
L 333.556364 155.048727 
M 327.063273 135.569455 
L 320.570182 135.569455 
M 333.556364 135.569455 
L 333.556364 155.048727 
M 333.556364 135.569455 
L 327.063273 135.569455 
M 340.049455 135.569455 
L 333.556364 155.048727 
M 340.049455 135.569455 
L 340.049455 155.048727 
M 340.049455 135.569455 
L 346.542545 155.048727 
M 340.049455 135.569455 
L 333.556364 135.569455 
M 346.542545 135.569455 
L 346.542545 155.048727 
M 346.542545 135.569455 
L 340.049455 135.569455 
M 353.035636 135.569455 
L 346.542545 155.048727 
M 353.035636 135.569455 
L 353.035636 155.048727 
M 353.035636 135.569455 
L 359.528727 155.048727 
M 353.035636 135.569455 
L 346.542545 135.569455 
M 359.528727 135.569455 
L 359.528727 155.048727 
M 359.528727 135.569455 
L 353.035636 135.569455 
M 366.021818 135.569455 
L 359.528727 155.048727 
M 366.021818 135.569455 
L 366.021818 155.048727 
M 366.021818 135.569455 
L 372.514909 155.048727 
M 366.021818 135.569455 
L 359.528727 135.569455 
M 372.514909 135.569455 
L 372.514909 155.048727 
M 372.514909 135.569455 
L 366.021818 135.569455 
M 379.008 135.569455 
L 372.514909 155.048727 
M 379.008 135.569455 
L 379.008 155.048727 
M 379.008 135.569455 
L 385.501091 155.048727 
M 379.008 135.569455 
L 372.514909 135.569455 
M 385.501091 135.569455 
L 385.501091 155.048727 
M 385.501091 135.569455 
L 379.008 135.569455 
M 391.994182 135.569455 
L 385.501091 155.048727 
M 391.994182 135.569455 
L 391.994182 155.048727 
M 391.994182 135.569455 
L 398.487273 155.048727 
M 391.994182 135.569455 
L 385.501091 135.569455 
M 398.487273 135.569455 
L 398.487273 155.048727 
M 398.487273 135.569455 
L 391.994182 135.569455 
M 73.832727 116.090182 
L 73.832727 135.569455 
M 73.832727 116.090182 
L 80.325818 135.569455 
M 80.325818 116.090182 
L 80.325818 135.569455 
M 80.325818 116.090182 
L 73.832727 116.090182 
M 86.818909 116.090182 
L 80.325818 135.569455 
M 86.818909 116.090182 
L 86.818909 135.569455 
M 86.818909 116.090182 
L 93.312 135.569455 
M 86.818909 116.090182 
L 80.325818 116.090182 
M 93.312 116.090182 
L 93.312 135.569455 
M 93.312 116.090182 
L 86.818909 116.090182 
M 99.805091 116.090182 
L 93.312 135.569455 
M 99.805091 116.090182 
L 99.805091 135.569455 
M 99.805091 116.090182 
L 106.298182 135.569455 
M 99.805091 116.090182 
L 93.312 116.090182 
M 106.298182 116.090182 
L 106.298182 135.569455 
M 106.298182 116.090182 
L 99.805091 116.090182 
M 112.791273 116.090182 
L 106.298182 135.569455 
M 112.791273 116.090182 
L 112.791273 135.569455 
M 112.791273 116.090182 
L 119.284364 135.569455 
M 112.791273 116.090182 
L 106.298182 116.090182 
M 119.284364 116.090182 
L 119.284364 135.569455 
M 119.284364 116.090182 
L 112.791273 116.090182 
M 125.777455 116.090182 
L 119.284364 135.569455 
M 125.777455 116.090182 
L 125.777455 135.569455 
M 125.777455 116.090182 
L 132.270545 135.569455 
M 125.777455 116.090182 
L 119.284364 116.090182 
M 132.270545 116.090182 
L 132.270545 135.569455 
M 132.270545 116.090182 
L 125.777455 116.090182 
M 138.763636 116.090182 
L 132.270545 135.569455 
M 138.763636 116.090182 
L 138.763636 135.569455 
M 138.763636 116.090182 
L 145.256727 135.569455 
M 138.763636 116.090182 
L 132.270545 116.090182 
M 145.256727 116.090182 
L 145.256727 135.569455 
M 145.256727 116.090182 
L 138.763636 116.090182 
M 151.749818 116.090182 
L 145.256727 135.569455 
M 151.749818 116.090182 
L 151.749818 135.569455 
M 151.749818 116.090182 
L 158.242909 135.569455 
M 151.749818 116.090182 
L 145.256727 116.090182 
M 158.242909 116.090182 
L 158.242909 135.569455 
M 158.242909 116.090182 
L 151.749818 116.090182 
M 164.736 116.090182 
L 158.242909 135.569455 
M 164.736 116.090182 
L 164.736 135.569455 
M 164.736 116.090182 
L 171.229091 135.569455 
M 164.736 116.090182 
L 158.242909 116.090182 
M 171.229091 116.090182 
L 171.229091 135.569455 
M 171.229091 116.090182 
L 164.736 116.090182 
M 177.722182 116.090182 
L 171.229091 135.569455 
M 177.722182 116.090182 
L 177.722182 135.569455 
M 177.722182 116.090182 
L 184.215273 135.569455 
M 177.722182 116.090182 
L 171.229091 116.090182 
M 184.215273 116.090182 
L 184.215273 135.569455 
M 184.215273 116.090182 
L 177.722182 116.090182 
M 190.708364 116.090182 
L 184.215273 135.569455 
M 190.708364 116.090182 
L 190.708364 135.569455 
M 190.708364 116.090182 
L 197.201455 135.569455 
M 190.708364 116.090182 
L 184.215273 116.090182 
M 197.201455 116.090182 
L 197.201455 135.569455 
M 197.201455 116.090182 
L 190.708364 116.090182 
M 203.694545 116.090182 
L 197.201455 135.569455 
M 203.694545 116.090182 
L 203.694545 135.569455 
M 203.694545 116.090182 
L 210.187636 135.569455 
M 203.694545 116.090182 
L 197.201455 116.090182 
M 210.187636 116.090182 
L 210.187636 135.569455 
M 210.187636 116.090182 
L 203.694545 116.090182 
M 216.680727 116.090182 
L 210.187636 135.569455 
M 216.680727 116.090182 
L 216.680727 135.569455 
M 216.680727 116.090182 
L 223.173818 135.569455 
M 216.680727 116.090182 
L 210.187636 116.090182 
M 223.173818 116.090182 
L 223.173818 135.569455 
M 223.173818 116.090182 
L 216.680727 116.090182 
M 229.666909 116.090182 
L 223.173818 135.569455 
M 229.666909 116.090182 
L 229.666909 135.569455 
M 229.666909 116.090182 
L 236.16 135.569455 
M 229.666909 116.090182 
L 223.173818 116.090182 
M 236.16 116.090182 
L 236.16 135.569455 
M 236.16 116.090182 
L 229.666909 116.090182 
M 242.653091 116.090182 
L 236.16 135.569455 
M 242.653091 116.090182 
L 242.653091 135.569455 
M 242.653091 116.090182 
L 249.146182 135.569455 
M 242.653091 116.090182 
L 236.16 116.090182 
M 249.146182 116.090182 
L 249.146182 135.569455 
M 249.146182 116.090182 
L 242.653091 116.090182 
M 255.639273 116.090182 
L 249.146182 135.569455 
M 255.639273 116.090182 
L 255.639273 135.569455 
M 255.639273 116.090182 
L 262.132364 135.569455 
M 255.639273 116.090182 
L 249.146182 116.090182 
M 262.132364 116.090182 
L 262.132364 135.569455 
M 262.132364 116.090182 
L 255.639273 116.090182 
M 268.625455 116.090182 
L 262.132364 135.569455 
M 268.625455 116.090182 
L 268.625455 135.569455 
M 268.625455 116.090182 
L 275.118545 135.569455 
M 268.625455 116.090182 
L 262.132364 116.090182 
M 275.118545 116.090182 
L 275.118545 135.569455 
M 275.118545 116.090182 
L 268.625455 116.090182 
M 281.611636 116.090182 
L 275.118545 135.569455 
M 281.611636 116.090182 
L 281.611636 135.569455 
M 281.611636 116.090182 
L 288.104727 135.569455 
M 281.611636 116.090182 
L 275.118545 116.090182 
M 288.104727 116.090182 
L 288.104727 135.569455 
M 288.104727 116.090182 
L 281.611636 116.090182 
M 294.597818 116.090182 
L 288.104727 135.569455 
M 294.597818 116.090182 
L 294.597818 135.569455 
M 294.597818 116.090182 
L 301.090909 135.569455 
M 294.597818 116.090182 
L 288.104727 116.090182 
M 301.090909 116.090182 
L 301.090909 135.569455 
M 301.090909 116.090182 
L 294.597818 116.090182 
M 307.584 116.090182 
L 301.090909 135.569455 
M 307.584 116.090182 
L 307.584 135.569455 
M 307.584 116.090182 
L 314.077091 135.569455 
M 307.584 116.090182 
L 301.090909 116.090182 
M 314.077091 116.090182 
L 314.077091 135.569455 
M 314.077091 116.090182 
L 307.584 116.090182 
M 320.570182 116.090182 
L 314.077091 135.569455 
M 320.570182 116.090182 
L 320.570182 135.569455 
M 320.570182 116.090182 
L 327.063273 135.569455 
M 320.570182 116.090182 
L 314.077091 116.090182 
M 327.063273 116.090182 
L 327.063273 135.569455 
M 327.063273 116.090182 
L 320.570182 116.090182 
M 333.556364 116.090182 
L 327.063273 135.569455 
M 333.556364 116.090182 
L 333.556364 135.569455 
M 333.556364 116.090182 
L 340.049455 135.569455 
M 333.556364 116.090182 
L 327.063273 116.090182 
M 340.049455 116.090182 
L 340.049455 135.569455 
M 340.049455 116.090182 
L 333.556364 116.090182 
M 346.542545 116.090182 
L 340.049455 135.569455 
M 346.542545 116.090182 
L 346.542545 135.569455 
M 346.542545 116.090182 
L 353.035636 135.569455 
M 346.542545 116.090182 
L 340.049455 116.090182 
M 353.035636 116.090182 
L 353.035636 135.569455 
M 353.035636 116.090182 
L 346.542545 116.090182 
M 359.528727 116.090182 
L 353.035636 135.569455 
M 359.528727 116.090182 
L 359.528727 135.569455 
M 359.528727 116.090182 
L 366.021818 135.569455 
M 359.528727 116.090182 
L 353.035636 116.090182 
M 366.021818 116.090182 
L 366.021818 135.569455 
M 366.021818 116.090182 
L 359.528727 116.090182 
M 372.514909 116.090182 
L 366.021818 135.569455 
M 372.514909 116.090182 
L 372.514909 135.569455 
M 372.514909 116.090182 
L 379.008 135.569455 
M 372.514909 116.090182 
L 366.021818 116.090182 
M 379.008 116.090182 
L 379.008 135.569455 
M 379.008 116.090182 
L 372.514909 116.090182 
M 385.501091 116.090182 
L 379.008 135.569455 
M 385.501091 116.090182 
L 385.501091 135.569455 
M 385.501091 116.090182 
L 391.994182 135.569455 
M 385.501091 116.090182 
L 379.008 116.090182 
M 391.994182 116.090182 
L 391.994182 135.569455 
M 391.994182 116.090182 
L 385.501091 116.090182 
M 398.487273 116.090182 
L 391.994182 135.569455 
M 398.487273 116.090182 
L 398.487273 135.569455 
M 398.487273 116.090182 
L 391.994182 116.090182 
M 73.832727 96.610909 
L 73.832727 116.090182 
M 80.325818 96.610909 
L 73.832727 116.090182 
M 80.325818 96.610909 
L 80.325818 116.090182 
M 80.325818 96.610909 
L 86.818909 116.090182 
M 80.325818 96.610909 
L 73.832727 96.610909 
M 86.818909 96.610909 
L 86.818909 116.090182 
M 86.818909 96.610909 
L 80.325818 96.610909 
M 93.312 96.610909 
L 86.818909 116.090182 
M 93.312 96.610909 
L 93.312 116.090182 
M 93.312 96.610909 
L 99.805091 116.090182 
M 93.312 96.610909 
L 86.818909 96.610909 
M 99.805091 96.610909 
L 99.805091 116.090182 
M 99.805091 96.610909 
L 93.312 96.610909 
M 106.298182 96.610909 
L 99.805091 116.090182 
M 106.298182 96.610909 
L 106.298182 116.090182 
M 106.298182 96.610909 
L 112.791273 116.090182 
M 106.298182 96.610909 
L 99.805091 96.610909 
M 112.791273 96.610909 
L 112.791273 116.090182 
M 112.791273 96.610909 
L 106.298182 96.610909 
M 119.284364 96.610909 
L 112.791273 116.090182 
M 119.284364 96.610909 
L 119.284364 116.090182 
M 119.284364 96.610909 
L 125.777455 116.090182 
M 119.284364 96.610909 
L 112.791273 96.610909 
M 125.777455 96.610909 
L 125.777455 116.090182 
M 125.777455 96.610909 
L 119.284364 96.610909 
M 132.270545 96.610909 
L 125.777455 116.090182 
M 132.270545 96.610909 
L 132.270545 116.090182 
M 132.270545 96.610909 
L 138.763636 116.090182 
M 132.270545 96.610909 
L 125.777455 96.610909 
M 138.763636 96.610909 
L 138.763636 116.090182 
M 138.763636 96.610909 
L 132.270545 96.610909 
M 145.256727 96.610909 
L 138.763636 116.090182 
M 145.256727 96.610909 
L 145.256727 116.090182 
M 145.256727 96.610909 
L 151.749818 116.090182 
M 145.256727 96.610909 
L 138.763636 96.610909 
M 151.749818 96.610909 
L 151.749818 116.090182 
M 151.749818 96.610909 
L 145.256727 96.610909 
M 158.242909 96.610909 
L 151.749818 116.090182 
M 158.242909 96.610909 
L 158.242909 116.090182 
M 158.242909 96.610909 
L 164.736 116.090182 
M 158.242909 96.610909 
L 151.749818 96.610909 
M 164.736 96.610909 
L 164.736 116.090182 
M 164.736 96.610909 
L 158.242909 96.610909 
M 171.229091 96.610909 
L 164.736 116.090182 
M 171.229091 96.610909 
L 171.229091 116.090182 
M 171.229091 96.610909 
L 177.722182 116.090182 
M 171.229091 96.610909 
L 164.736 96.610909 
M 177.722182 96.610909 
L 177.722182 116.090182 
M 177.722182 96.610909 
L 171.229091 96.610909 
M 184.215273 96.610909 
L 177.722182 116.090182 
M 184.215273 96.610909 
L 184.215273 116.090182 
M 184.215273 96.610909 
L 190.708364 116.090182 
M 184.215273 96.610909 
L 177.722182 96.610909 
M 190.708364 96.610909 
L 190.708364 116.090182 
M 190.708364 96.610909 
L 184.215273 96.610909 
M 197.201455 96.610909 
L 190.708364 116.090182 
M 197.201455 96.610909 
L 197.201455 116.090182 
M 197.201455 96.610909 
L 203.694545 116.090182 
M 197.201455 96.610909 
L 190.708364 96.610909 
M 203.694545 96.610909 
L 203.694545 116.090182 
M 203.694545 96.610909 
L 197.201455 96.610909 
M 210.187636 96.610909 
L 203.694545 116.090182 
M 210.187636 96.610909 
L 210.187636 116.090182 
M 210.187636 96.610909 
L 216.680727 116.090182 
M 210.187636 96.610909 
L 203.694545 96.610909 
M 216.680727 96.610909 
L 216.680727 116.090182 
M 216.680727 96.610909 
L 210.187636 96.610909 
M 223.173818 96.610909 
L 216.680727 116.090182 
M 223.173818 96.610909 
L 223.173818 116.090182 
M 223.173818 96.610909 
L 229.666909 116.090182 
M 223.173818 96.610909 
L 216.680727 96.610909 
M 229.666909 96.610909 
L 229.666909 116.090182 
M 229.666909 96.610909 
L 223.173818 96.610909 
M 236.16 96.610909 
L 229.666909 116.090182 
M 236.16 96.610909 
L 236.16 116.090182 
M 236.16 96.610909 
L 242.653091 116.090182 
M 236.16 96.610909 
L 229.666909 96.610909 
M 242.653091 96.610909 
L 242.653091 116.090182 
M 242.653091 96.610909 
L 236.16 96.610909 
M 249.146182 96.610909 
L 242.653091 116.090182 
M 249.146182 96.610909 
L 249.146182 116.090182 
M 249.146182 96.610909 
L 255.639273 116.090182 
M 249.146182 96.610909 
L 242.653091 96.610909 
M 255.639273 96.610909 
L 255.639273 116.090182 
M 255.639273 96.610909 
L 249.146182 96.610909 
M 262.132364 96.610909 
L 255.639273 116.090182 
M 262.132364 96.610909 
L 262.132364 116.090182 
M 262.132364 96.610909 
L 268.625455 116.090182 
M 262.132364 96.610909 
L 255.639273 96.610909 
M 268.625455 96.610909 
L 268.625455 116.090182 
M 268.625455 96.610909 
L 262.132364 96.610909 
M 275.118545 96.610909 
L 268.625455 116.090182 
M 275.118545 96.610909 
L 275.118545 116.090182 
M 275.118545 96.610909 
L 281.611636 116.090182 
M 275.118545 96.610909 
L 268.625455 96.610909 
M 281.611636 96.610909 
L 281.611636 116.090182 
M 281.611636 96.610909 
L 275.118545 96.610909 
M 288.104727 96.610909 
L 281.611636 116.090182 
M 288.104727 96.610909 
L 288.104727 116.090182 
M 288.104727 96.610909 
L 294.597818 116.090182 
M 288.104727 96.610909 
L 281.611636 96.610909 
M 294.597818 96.610909 
L 294.597818 116.090182 
M 294.597818 96.610909 
L 288.104727 96.610909 
M 301.090909 96.610909 
L 294.597818 116.090182 
M 301.090909 96.610909 
L 301.090909 116.090182 
M 301.090909 96.610909 
L 307.584 116.090182 
M 301.090909 96.610909 
L 294.597818 96.610909 
M 307.584 96.610909 
L 307.584 116.090182 
M 307.584 96.610909 
L 301.090909 96.610909 
M 314.077091 96.610909 
L 307.584 116.090182 
M 314.077091 96.610909 
L 314.077091 116.090182 
M 314.077091 96.610909 
L 320.570182 116.090182 
M 314.077091 96.610909 
L 307.584 96.610909 
M 320.570182 96.610909 
L 320.570182 116.090182 
M 320.570182 96.610909 
L 314.077091 96.610909 
M 327.063273 96.610909 
L 320.570182 116.090182 
M 327.063273 96.610909 
L 327.063273 116.090182 
M 327.063273 96.610909 
L 333.556364 116.090182 
M 327.063273 96.610909 
L 320.570182 96.610909 
M 333.556364 96.610909 
L 333.556364 116.090182 
M 333.556364 96.610909 
L 327.063273 96.610909 
M 340.049455 96.610909 
L 333.556364 116.090182 
M 340.049455 96.610909 
L 340.049455 116.090182 
M 340.049455 96.610909 
L 346.542545 116.090182 
M 340.049455 96.610909 
L 333.556364 96.610909 
M 346.542545 96.610909 
L 346.542545 116.090182 
M 346.542545 96.610909 
L 340.049455 96.610909 
M 353.035636 96.610909 
L 346.542545 116.090182 
M 353.035636 96.610909 
L 353.035636 116.090182 
M 353.035636 96.610909 
L 359.528727 116.090182 
M 353.035636 96.610909 
L 346.542545 96.610909 
M 359.528727 96.610909 
L 359.528727 116.090182 
M 359.528727 96.610909 
L 353.035636 96.610909 
M 366.021818 96.610909 
L 359.528727 116.090182 
M 366.021818 96.610909 
L 366.021818 116.090182 
M 366.021818 96.610909 
L 372.514909 116.090182 
M 366.021818 96.610909 
L 359.528727 96.610909 
M 372.514909 96.610909 
L 372.514909 116.090182 
M 372.514909 96.610909 
L 366.021818 96.610909 
M 379.008 96.610909 
L 372.514909 116.090182 
M 379.008 96.610909 
L 379.008 116.090182 
M 379.008 96.610909 
L 385.501091 116.090182 
M 379.008 96.610909 
L 372.514909 96.610909 
M 385.501091 96.610909 
L 385.501091 116.090182 
M 385.501091 96.610909 
L 379.008 96.610909 
M 391.994182 96.610909 
L 385.501091 116.090182 
M 391.994182 96.610909 
L 391.994182 116.090182 
M 391.994182 96.610909 
L 398.487273 116.090182 
M 391.994182 96.610909 
L 385.501091 96.610909 
M 398.487273 96.610909 
L 398.487273 116.090182 
M 398.487273 96.610909 
L 391.994182 96.610909 
M 73.832727 77.131636 
L 73.832727 96.610909 
M 73.832727 77.131636 
L 80.325818 96.610909 
M 80.325818 77.131636 
L 80.325818 96.610909 
M 80.325818 77.131636 
L 73.832727 77.131636 
M 86.818909 77.131636 
L 80.325818 96.610909 
M 86.818909 77.131636 
L 86.818909 96.610909 
M 86.818909 77.131636 
L 93.312 96.610909 
M 86.818909 77.131636 
L 80.325818 77.131636 
M 93.312 77.131636 
L 93.312 96.610909 
M 93.312 77.131636 
L 86.818909 77.131636 
M 99.805091 77.131636 
L 93.312 96.610909 
M 99.805091 77.131636 
L 99.805091 96.610909 
M 99.805091 77.131636 
L 106.298182 96.610909 
M 99.805091 77.131636 
L 93.312 77.131636 
M 106.298182 77.131636 
L 106.298182 96.610909 
M 106.298182 77.131636 
L 99.805091 77.131636 
M 112.791273 77.131636 
L 106.298182 96.610909 
M 112.791273 77.131636 
L 112.791273 96.610909 
M 112.791273 77.131636 
L 119.284364 96.610909 
M 112.791273 77.131636 
L 106.298182 77.131636 
M 119.284364 77.131636 
L 119.284364 96.610909 
M 119.284364 77.131636 
L 112.791273 77.131636 
M 125.777455 77.131636 
L 119.284364 96.610909 
M 125.777455 77.131636 
L 125.777455 96.610909 
M 125.777455 77.131636 
L 132.270545 96.610909 
M 125.777455 77.131636 
L 119.284364 77.131636 
M 132.270545 77.131636 
L 132.270545 96.610909 
M 132.270545 77.131636 
L 125.777455 77.131636 
M 138.763636 77.131636 
L 132.270545 96.610909 
M 138.763636 77.131636 
L 138.763636 96.610909 
M 138.763636 77.131636 
L 145.256727 96.610909 
M 138.763636 77.131636 
L 132.270545 77.131636 
M 145.256727 77.131636 
L 145.256727 96.610909 
M 145.256727 77.131636 
L 138.763636 77.131636 
M 151.749818 77.131636 
L 145.256727 96.610909 
M 151.749818 77.131636 
L 151.749818 96.610909 
M 151.749818 77.131636 
L 158.242909 96.610909 
M 151.749818 77.131636 
L 145.256727 77.131636 
M 158.242909 77.131636 
L 158.242909 96.610909 
M 158.242909 77.131636 
L 151.749818 77.131636 
M 164.736 77.131636 
L 158.242909 96.610909 
M 164.736 77.131636 
L 164.736 96.610909 
M 164.736 77.131636 
L 171.229091 96.610909 
M 164.736 77.131636 
L 158.242909 77.131636 
M 171.229091 77.131636 
L 171.229091 96.610909 
M 171.229091 77.131636 
L 164.736 77.131636 
M 177.722182 77.131636 
L 171.229091 96.610909 
M 177.722182 77.131636 
L 177.722182 96.610909 
M 177.722182 77.131636 
L 184.215273 96.610909 
M 177.722182 77.131636 
L 171.229091 77.131636 
M 184.215273 77.131636 
L 184.215273 96.610909 
M 184.215273 77.131636 
L 177.722182 77.131636 
M 190.708364 77.131636 
L 184.215273 96.610909 
M 190.708364 77.131636 
L 190.708364 96.610909 
M 190.708364 77.131636 
L 197.201455 96.610909 
M 190.708364 77.131636 
L 184.215273 77.131636 
M 197.201455 77.131636 
L 197.201455 96.610909 
M 197.201455 77.131636 
L 190.708364 77.131636 
M 203.694545 77.131636 
L 197.201455 96.610909 
M 203.694545 77.131636 
L 203.694545 96.610909 
M 203.694545 77.131636 
L 210.187636 96.610909 
M 203.694545 77.131636 
L 197.201455 77.131636 
M 210.187636 77.131636 
L 210.187636 96.610909 
M 210.187636 77.131636 
L 203.694545 77.131636 
M 216.680727 77.131636 
L 210.187636 96.610909 
M 216.680727 77.131636 
L 216.680727 96.610909 
M 216.680727 77.131636 
L 223.173818 96.610909 
M 216.680727 77.131636 
L 210.187636 77.131636 
M 223.173818 77.131636 
L 223.173818 96.610909 
M 223.173818 77.131636 
L 216.680727 77.131636 
M 229.666909 77.131636 
L 223.173818 96.610909 
M 229.666909 77.131636 
L 229.666909 96.610909 
M 229.666909 77.131636 
L 236.16 96.610909 
M 229.666909 77.131636 
L 223.173818 77.131636 
M 236.16 77.131636 
L 236.16 96.610909 
M 236.16 77.131636 
L 229.666909 77.131636 
M 242.653091 77.131636 
L 236.16 96.610909 
M 242.653091 77.131636 
L 242.653091 96.610909 
M 242.653091 77.131636 
L 249.146182 96.610909 
M 242.653091 77.131636 
L 236.16 77.131636 
M 249.146182 77.131636 
L 249.146182 96.610909 
M 249.146182 77.131636 
L 242.653091 77.131636 
M 255.639273 77.131636 
L 249.146182 96.610909 
M 255.639273 77.131636 
L 255.639273 96.610909 
M 255.639273 77.131636 
L 262.132364 96.610909 
M 255.639273 77.131636 
L 249.146182 77.131636 
M 262.132364 77.131636 
L 262.132364 96.610909 
M 262.132364 77.131636 
L 255.639273 77.131636 
M 268.625455 77.131636 
L 262.132364 96.610909 
M 268.625455 77.131636 
L 268.625455 96.610909 
M 268.625455 77.131636 
L 275.118545 96.610909 
M 268.625455 77.131636 
L 262.132364 77.131636 
M 275.118545 77.131636 
L 275.118545 96.610909 
M 275.118545 77.131636 
L 268.625455 77.131636 
M 281.611636 77.131636 
L 275.118545 96.610909 
M 281.611636 77.131636 
L 281.611636 96.610909 
M 281.611636 77.131636 
L 288.104727 96.610909 
M 281.611636 77.131636 
L 275.118545 77.131636 
M 288.104727 77.131636 
L 288.104727 96.610909 
M 288.104727 77.131636 
L 281.611636 77.131636 
M 294.597818 77.131636 
L 288.104727 96.610909 
M 294.597818 77.131636 
L 294.597818 96.610909 
M 294.597818 77.131636 
L 301.090909 96.610909 
M 294.597818 77.131636 
L 288.104727 77.131636 
M 301.090909 77.131636 
L 301.090909 96.610909 
M 301.090909 77.131636 
L 294.597818 77.131636 
M 307.584 77.131636 
L 301.090909 96.610909 
M 307.584 77.131636 
L 307.584 96.610909 
M 307.584 77.131636 
L 314.077091 96.610909 
M 307.584 77.131636 
L 301.090909 77.131636 
M 314.077091 77.131636 
L 314.077091 96.610909 
M 314.077091 77.131636 
L 307.584 77.131636 
M 320.570182 77.131636 
L 314.077091 96.610909 
M 320.570182 77.131636 
L 320.570182 96.610909 
M 320.570182 77.131636 
L 327.063273 96.610909 
M 320.570182 77.131636 
L 314.077091 77.131636 
M 327.063273 77.131636 
L 327.063273 96.610909 
M 327.063273 77.131636 
L 320.570182 77.131636 
M 333.556364 77.131636 
L 327.063273 96.610909 
M 333.556364 77.131636 
L 333.556364 96.610909 
M 333.556364 77.131636 
L 340.049455 96.610909 
M 333.556364 77.131636 
L 327.063273 77.131636 
M 340.049455 77.131636 
L 340.049455 96.610909 
M 340.049455 77.131636 
L 333.556364 77.131636 
M 346.542545 77.131636 
L 340.049455 96.610909 
M 346.542545 77.131636 
L 346.542545 96.610909 
M 346.542545 77.131636 
L 353.035636 96.610909 
M 346.542545 77.131636 
L 340.049455 77.131636 
M 353.035636 77.131636 
L 353.035636 96.610909 
M 353.035636 77.131636 
L 346.542545 77.131636 
M 359.528727 77.131636 
L 353.035636 96.610909 
M 359.528727 77.131636 
L 359.528727 96.610909 
M 359.528727 77.131636 
L 366.021818 96.610909 
M 359.528727 77.131636 
L 353.035636 77.131636 
M 366.021818 77.131636 
L 366.021818 96.610909 
M 366.021818 77.131636 
L 359.528727 77.131636 
M 372.514909 77.131636 
L 366.021818 96.610909 
M 372.514909 77.131636 
L 372.514909 96.610909 
M 372.514909 77.131636 
L 379.008 96.610909 
M 372.514909 77.131636 
L 366.021818 77.131636 
M 379.008 77.131636 
L 379.008 96.610909 
M 379.008 77.131636 
L 372.514909 77.131636 
M 385.501091 77.131636 
L 379.008 96.610909 
M 385.501091 77.131636 
L 385.501091 96.610909 
M 385.501091 77.131636 
L 391.994182 96.610909 
M 385.501091 77.131636 
L 379.008 77.131636 
M 391.994182 77.131636 
L 391.994182 96.610909 
M 391.994182 77.131636 
L 385.501091 77.131636 
M 398.487273 77.131636 
L 391.994182 96.610909 
M 398.487273 77.131636 
L 398.487273 96.610909 
M 398.487273 77.131636 
L 391.994182 77.131636 
L 391.994182 77.131636 
" clip-path="url(#p7c3f0d74e7)" style="fill: none; stroke: #808080; stroke-width: 1.5; stroke-linecap: square"/>
   </g>
   <g id="matplotlib.axis_1">
    <g id="xtick_1">
     <g id="line2d_2">
      <defs>
       <path id="mdeaa597feb" d="M 0 0 
L 0 3.5 
" style="stroke: #000000; stroke-width: 0.8"/>
      </defs>
      <g>
       <use xlink:href="#mdeaa597feb" x="73.832727" y="281.664" style="stroke: #000000; stroke-width: 0.8"/>
      </g>
     </g>
     <g id="text_1">
      <!-- 0.0000 -->
      <g transform="translate(56.337415 296.262437) scale(0.1 -0.1)">
       <defs>
        <path id="DejaVuSans-30" d="M 2034 4250 
Q 1547 4250 1301 3770 
Q 1056 3291 1056 2328 
Q 1056 1369 1301 889 
Q 1547 409 2034 409 
Q 2525 409 2770 889 
Q 3016 1369 3016 2328 
Q 3016 3291 2770 3770 
Q 2525 4250 2034 4250 
z
M 2034 4750 
Q 2819 4750 3233 4129 
Q 3647 3509 3647 2328 
Q 3647 1150 3233 529 
Q 2819 -91 2034 -91 
Q 1250 -91 836 529 
Q 422 1150 422 2328 
Q 422 3509 836 4129 
Q 1250 4750 2034 4750 
z
" transform="scale(0.015625)"/>
        <path id="DejaVuSans-2e" d="M 684 794 
L 1344 794 
L 1344 0 
L 684 0 
L 684 794 
z
" transform="scale(0.015625)"/>
       </defs>
       <use xlink:href="#DejaVuSans-30"/>
       <use xlink:href="#DejaVuSans-2e" x="63.623047"/>
       <use xlink:href="#DejaVuSans-30" x="95.410156"/>
       <use xlink:href="#DejaVuSans-30" x="159.033203"/>
       <use xlink:href="#DejaVuSans-30" x="222.65625"/>
       <use xlink:href="#DejaVuSans-30" x="286.279297"/>
      </g>
     </g>
    </g>
    <g id="xtick_2">
     <g id="line2d_3">
      <g>
       <use xlink:href="#mdeaa597feb" x="114.414545" y="281.664" style="stroke: #000000; stroke-width: 0.8"/>
      </g>
     </g>
     <g id="text_2">
      <!-- 0.0025 -->
      <g transform="translate(96.919233 296.262437) scale(0.1 -0.1)">
       <defs>
        <path id="DejaVuSans-32" d="M 1228 531 
L 3431 531 
L 3431 0 
L 469 0 
L 469 531 
Q 828 903 1448 1529 
Q 2069 2156 2228 2338 
Q 2531 2678 2651 2914 
Q 2772 3150 2772 3378 
Q 2772 3750 2511 3984 
Q 2250 4219 1831 4219 
Q 1534 4219 1204 4116 
Q 875 4013 500 3803 
L 500 4441 
Q 881 4594 1212 4672 
Q 1544 4750 1819 4750 
Q 2544 4750 2975 4387 
Q 3406 4025 3406 3419 
Q 3406 3131 3298 2873 
Q 3191 2616 2906 2266 
Q 2828 2175 2409 1742 
Q 1991 1309 1228 531 
z
" transform="scale(0.015625)"/>
        <path id="DejaVuSans-35" d="M 691 4666 
L 3169 4666 
L 3169 4134 
L 1269 4134 
L 1269 2991 
Q 1406 3038 1543 3061 
Q 1681 3084 1819 3084 
Q 2600 3084 3056 2656 
Q 3513 2228 3513 1497 
Q 3513 744 3044 326 
Q 2575 -91 1722 -91 
Q 1428 -91 1123 -41 
Q 819 9 494 109 
L 494 744 
Q 775 591 1075 516 
Q 1375 441 1709 441 
Q 2250 441 2565 725 
Q 2881 1009 2881 1497 
Q 2881 1984 2565 2268 
Q 2250 2553 1709 2553 
Q 1456 2553 1204 2497 
Q 953 2441 691 2322 
L 691 4666 
z
" transform="scale(0.015625)"/>
       </defs>
       <use xlink:href="#DejaVuSans-30"/>
       <use xlink:href="#DejaVuSans-2e" x="63.623047"/>
       <use xlink:href="#DejaVuSans-30" x="95.410156"/>
       <use xlink:href="#DejaVuSans-30" x="159.033203"/>
       <use xlink:href="#DejaVuSans-32" x="222.65625"/>
       <use xlink:href="#DejaVuSans-35" x="286.279297"/>
      </g>
     </g>
    </g>
    <g id="xtick_3">
     <g id="line2d_4">
      <g>
       <use xlink:href="#mdeaa597feb" x="154.996364" y="281.664" style="stroke: #000000; stroke-width: 0.8"/>
      </g>
     </g>
     <g id="text_3">
      <!-- 0.0050 -->
      <g transform="translate(137.501051 296.262437) scale(0.1 -0.1)">
       <use xlink:href="#DejaVuSans-30"/>
       <use xlink:href="#DejaVuSans-2e" x="63.623047"/>
       <use xlink:href="#DejaVuSans-30" x="95.410156"/>
       <use xlink:href="#DejaVuSans-30" x="159.033203"/>
       <use xlink:href="#DejaVuSans-35" x="222.65625"/>
       <use xlink:href="#DejaVuSans-30" x="286.279297"/>
      </g>
     </g>
    </g>
    <g id="xtick_4">
     <g id="line2d_5">
      <g>
       <use xlink:href="#mdeaa597feb" x="195.578182" y="281.664" style="stroke: #000000; stroke-width: 0.8"/>
      </g>
     </g>
     <g id="text_4">
      <!-- 0.0075 -->
      <g transform="translate(178.082869 296.262437) scale(0.1 -0.1)">
       <defs>
        <path id="DejaVuSans-37" d="M 525 4666 
L 3525 4666 
L 3525 4397 
L 1831 0 
L 1172 0 
L 2766 4134 
L 525 4134 
L 525 4666 
z
" transform="scale(0.015625)"/>
       </defs>
       <use xlink:href="#DejaVuSans-30"/>
       <use xlink:href="#DejaVuSans-2e" x="63.623047"/>
       <use xlink:href="#DejaVuSans-30" x="95.410156"/>
       <use xlink:href="#DejaVuSans-30" x="159.033203"/>
       <use xlink:href="#DejaVuSans-37" x="222.65625"/>
       <use xlink:href="#DejaVuSans-35" x="286.279297"/>
      </g>
     </g>
    </g>
    <g id="xtick_5">
     <g id="line2d_6">
      <g>
       <use xlink:href="#mdeaa597feb" x="236.16" y="281.664" style="stroke: #000000; stroke-width: 0.8"/>
      </g>
     </g>
     <g id="text_5">
      <!-- 0.0100 -->
      <g transform="translate(218.664687 296.262437) scale(0.1 -0.1)">
       <defs>
        <path id="DejaVuSans-31" d="M 794 531 
L 1825 531 
L 1825 4091 
L 703 3866 
L 703 4441 
L 1819 4666 
L 2450 4666 
L 2450 531 
L 3481 531 
L 3481 0 
L 794 0 
L 794 531 
z
" transform="scale(0.015625)"/>
       </defs>
       <use xlink:href="#DejaVuSans-30"/>
       <use xlink:href="#DejaVuSans-2e" x="63.623047"/>
       <use xlink:href="#DejaVuSans-30" x="95.410156"/>
       <use xlink:href="#DejaVuSans-31" x="159.033203"/>
       <use xlink:href="#DejaVuSans-30" x="222.65625"/>
       <use xlink:href="#DejaVuSans-30" x="286.279297"/>
      </g>
     </g>
    </g>
    <g id="xtick_6">
     <g id="line2d_7">
      <g>
       <use xlink:href="#mdeaa597feb" x="276.741818" y="281.664" style="stroke: #000000; stroke-width: 0.8"/>
      </g>
     </g>
     <g id="text_6">
      <!-- 0.0125 -->
      <g transform="translate(259.246506 296.262437) scale(0.1 -0.1)">
       <use xlink:href="#DejaVuSans-30"/>
       <use xlink:href="#DejaVuSans-2e" x="63.623047"/>
       <use xlink:href="#DejaVuSans-30" x="95.410156"/>
       <use xlink:href="#DejaVuSans-31" x="159.033203"/>
       <use xlink:href="#DejaVuSans-32" x="222.65625"/>
       <use xlink:href="#DejaVuSans-35" x="286.279297"/>
      </g>
     </g>
    </g>
    <g id="xtick_7">
     <g id="line2d_8">
      <g>
       <use xlink:href="#mdeaa597feb" x="317.323636" y="281.664" style="stroke: #000000; stroke-width: 0.8"/>
      </g>
     </g>
     <g id="text_7">
      <!-- 0.0150 -->
      <g transform="translate(299.828324 296.262437) scale(0.1 -0.1)">
       <use xlink:href="#DejaVuSans-30"/>
       <use xlink:href="#DejaVuSans-2e" x="63.623047"/>
       <use xlink:href="#DejaVuSans-30" x="95.410156"/>
       <use xlink:href="#DejaVuSans-31" x="159.033203"/>
       <use xlink:href="#DejaVuSans-35" x="222.65625"/>
       <use xlink:href="#DejaVuSans-30" x="286.279297"/>
      </g>
     </g>
    </g>
    <g id="xtick_8">
     <g id="line2d_9">
      <g>
       <use xlink:href="#mdeaa597feb" x="357.905455" y="281.664" style="stroke: #000000; stroke-width: 0.8"/>
      </g>
     </g>
     <g id="text_8">
      <!-- 0.0175 -->
      <g transform="translate(340.410142 296.262437) scale(0.1 -0.1)">
       <use xlink:href="#DejaVuSans-30"/>
       <use xlink:href="#DejaVuSans-2e" x="63.623047"/>
       <use xlink:href="#DejaVuSans-30" x="95.410156"/>
       <use xlink:href="#DejaVuSans-31" x="159.033203"/>
       <use xlink:href="#DejaVuSans-37" x="222.65625"/>
       <use xlink:href="#DejaVuSans-35" x="286.279297"/>
      </g>
     </g>
    </g>
    <g id="xtick_9">
     <g id="line2d_10">
      <g>
       <use xlink:href="#mdeaa597feb" x="398.487273" y="281.664" style="stroke: #000000; stroke-width: 0.8"/>
      </g>
     </g>
     <g id="text_9">
      <!-- 0.0200 -->
      <g transform="translate(380.99196 296.262437) scale(0.1 -0.1)">
       <use xlink:href="#DejaVuSans-30"/>
       <use xlink:href="#DejaVuSans-2e" x="63.623047"/>
       <use xlink:href="#DejaVuSans-30" x="95.410156"/>
       <use xlink:href="#DejaVuSans-32" x="159.033203"/>
       <use xlink:href="#DejaVuSans-30" x="222.65625"/>
       <use xlink:href="#DejaVuSans-30" x="286.279297"/>
      </g>
     </g>
    </g>
    <g id="text_10">
     <!-- X -->
     <g transform="translate(232.735 309.940562) scale(0.1 -0.1)">
      <defs>
       <path id="DejaVuSans-58" d="M 403 4666 
L 1081 4666 
L 2241 2931 
L 3406 4666 
L 4084 4666 
L 2584 2425 
L 4184 0 
L 3506 0 
L 2194 1984 
L 872 0 
L 191 0 
L 1856 2491 
L 403 4666 
z
" transform="scale(0.015625)"/>
      </defs>
      <use xlink:href="#DejaVuSans-58"/>
     </g>
    </g>
   </g>
   <g id="matplotlib.axis_2">
    <g id="ytick_1">
     <g id="line2d_11">
      <defs>
       <path id="m183a474bed" d="M 0 0 
L -3.5 0 
" style="stroke: #000000; stroke-width: 0.8"/>
      </defs>
      <g>
       <use xlink:href="#m183a474bed" x="57.6" y="271.924364" style="stroke: #000000; stroke-width: 0.8"/>
      </g>
     </g>
     <g id="text_11">
      <!-- 0.000 -->
      <g transform="translate(21.971875 275.723582) scale(0.1 -0.1)">
       <use xlink:href="#DejaVuSans-30"/>
       <use xlink:href="#DejaVuSans-2e" x="63.623047"/>
       <use xlink:href="#DejaVuSans-30" x="95.410156"/>
       <use xlink:href="#DejaVuSans-30" x="159.033203"/>
       <use xlink:href="#DejaVuSans-30" x="222.65625"/>
      </g>
     </g>
    </g>
    <g id="ytick_2">
     <g id="line2d_12">
      <g>
       <use xlink:href="#m183a474bed" x="57.6" y="239.458909" style="stroke: #000000; stroke-width: 0.8"/>
      </g>
     </g>
     <g id="text_12">
      <!-- 0.002 -->
      <g transform="translate(21.971875 243.258128) scale(0.1 -0.1)">
       <use xlink:href="#DejaVuSans-30"/>
       <use xlink:href="#DejaVuSans-2e" x="63.623047"/>
       <use xlink:href="#DejaVuSans-30" x="95.410156"/>
       <use xlink:href="#DejaVuSans-30" x="159.033203"/>
       <use xlink:href="#DejaVuSans-32" x="222.65625"/>
      </g>
     </g>
    </g>
    <g id="ytick_3">
     <g id="line2d_13">
      <g>
       <use xlink:href="#m183a474bed" x="57.6" y="206.993455" style="stroke: #000000; stroke-width: 0.8"/>
      </g>
     </g>
     <g id="text_13">
      <!-- 0.004 -->
      <g transform="translate(21.971875 210.792673) scale(0.1 -0.1)">
       <defs>
        <path id="DejaVuSans-34" d="M 2419 4116 
L 825 1625 
L 2419 1625 
L 2419 4116 
z
M 2253 4666 
L 3047 4666 
L 3047 1625 
L 3713 1625 
L 3713 1100 
L 3047 1100 
L 3047 0 
L 2419 0 
L 2419 1100 
L 313 1100 
L 313 1709 
L 2253 4666 
z
" transform="scale(0.015625)"/>
       </defs>
       <use xlink:href="#DejaVuSans-30"/>
       <use xlink:href="#DejaVuSans-2e" x="63.623047"/>
       <use xlink:href="#DejaVuSans-30" x="95.410156"/>
       <use xlink:href="#DejaVuSans-30" x="159.033203"/>
       <use xlink:href="#DejaVuSans-34" x="222.65625"/>
      </g>
     </g>
    </g>
    <g id="ytick_4">
     <g id="line2d_14">
      <g>
       <use xlink:href="#m183a474bed" x="57.6" y="174.528" style="stroke: #000000; stroke-width: 0.8"/>
      </g>
     </g>
     <g id="text_14">
      <!-- 0.006 -->
      <g transform="translate(21.971875 178.327219) scale(0.1 -0.1)">
       <defs>
        <path id="DejaVuSans-36" d="M 2113 2584 
Q 1688 2584 1439 2293 
Q 1191 2003 1191 1497 
Q 1191 994 1439 701 
Q 1688 409 2113 409 
Q 2538 409 2786 701 
Q 3034 994 3034 1497 
Q 3034 2003 2786 2293 
Q 2538 2584 2113 2584 
z
M 3366 4563 
L 3366 3988 
Q 3128 4100 2886 4159 
Q 2644 4219 2406 4219 
Q 1781 4219 1451 3797 
Q 1122 3375 1075 2522 
Q 1259 2794 1537 2939 
Q 1816 3084 2150 3084 
Q 2853 3084 3261 2657 
Q 3669 2231 3669 1497 
Q 3669 778 3244 343 
Q 2819 -91 2113 -91 
Q 1303 -91 875 529 
Q 447 1150 447 2328 
Q 447 3434 972 4092 
Q 1497 4750 2381 4750 
Q 2619 4750 2861 4703 
Q 3103 4656 3366 4563 
z
" transform="scale(0.015625)"/>
       </defs>
       <use xlink:href="#DejaVuSans-30"/>
       <use xlink:href="#DejaVuSans-2e" x="63.623047"/>
       <use xlink:href="#DejaVuSans-30" x="95.410156"/>
       <use xlink:href="#DejaVuSans-30" x="159.033203"/>
       <use xlink:href="#DejaVuSans-36" x="222.65625"/>
      </g>
     </g>
    </g>
    <g id="ytick_5">
     <g id="line2d_15">
      <g>
       <use xlink:href="#m183a474bed" x="57.6" y="142.062545" style="stroke: #000000; stroke-width: 0.8"/>
      </g>
     </g>
     <g id="text_15">
      <!-- 0.008 -->
      <g transform="translate(21.971875 145.861764) scale(0.1 -0.1)">
       <defs>
        <path id="DejaVuSans-38" d="M 2034 2216 
Q 1584 2216 1326 1975 
Q 1069 1734 1069 1313 
Q 1069 891 1326 650 
Q 1584 409 2034 409 
Q 2484 409 2743 651 
Q 3003 894 3003 1313 
Q 3003 1734 2745 1975 
Q 2488 2216 2034 2216 
z
M 1403 2484 
Q 997 2584 770 2862 
Q 544 3141 544 3541 
Q 544 4100 942 4425 
Q 1341 4750 2034 4750 
Q 2731 4750 3128 4425 
Q 3525 4100 3525 3541 
Q 3525 3141 3298 2862 
Q 3072 2584 2669 2484 
Q 3125 2378 3379 2068 
Q 3634 1759 3634 1313 
Q 3634 634 3220 271 
Q 2806 -91 2034 -91 
Q 1263 -91 848 271 
Q 434 634 434 1313 
Q 434 1759 690 2068 
Q 947 2378 1403 2484 
z
M 1172 3481 
Q 1172 3119 1398 2916 
Q 1625 2713 2034 2713 
Q 2441 2713 2670 2916 
Q 2900 3119 2900 3481 
Q 2900 3844 2670 4047 
Q 2441 4250 2034 4250 
Q 1625 4250 1398 4047 
Q 1172 3844 1172 3481 
z
" transform="scale(0.015625)"/>
       </defs>
       <use xlink:href="#DejaVuSans-30"/>
       <use xlink:href="#DejaVuSans-2e" x="63.623047"/>
       <use xlink:href="#DejaVuSans-30" x="95.410156"/>
       <use xlink:href="#DejaVuSans-30" x="159.033203"/>
       <use xlink:href="#DejaVuSans-38" x="222.65625"/>
      </g>
     </g>
    </g>
    <g id="ytick_6">
     <g id="line2d_16">
      <g>
       <use xlink:href="#m183a474bed" x="57.6" y="109.597091" style="stroke: #000000; stroke-width: 0.8"/>
      </g>
     </g>
     <g id="text_16">
      <!-- 0.010 -->
      <g transform="translate(21.971875 113.39631) scale(0.1 -0.1)">
       <use xlink:href="#DejaVuSans-30"/>
       <use xlink:href="#DejaVuSans-2e" x="63.623047"/>
       <use xlink:href="#DejaVuSans-30" x="95.410156"/>
       <use xlink:href="#DejaVuSans-31" x="159.033203"/>
       <use xlink:href="#DejaVuSans-30" x="222.65625"/>
      </g>
     </g>
    </g>
    <g id="ytick_7">
     <g id="line2d_17">
      <g>
       <use xlink:href="#m183a474bed" x="57.6" y="77.131636" style="stroke: #000000; stroke-width: 0.8"/>
      </g>
     </g>
     <g id="text_17">
      <!-- 0.012 -->
      <g transform="translate(21.971875 80.930855) scale(0.1 -0.1)">
       <use xlink:href="#DejaVuSans-30"/>
       <use xlink:href="#DejaVuSans-2e" x="63.623047"/>
       <use xlink:href="#DejaVuSans-30" x="95.410156"/>
       <use xlink:href="#DejaVuSans-31" x="159.033203"/>
       <use xlink:href="#DejaVuSans-32" x="222.65625"/>
      </g>
     </g>
    </g>
    <g id="text_18">
     <!-- Y -->
     <g transform="translate(15.892188 177.581906) rotate(-90) scale(0.1 -0.1)">
      <defs>
       <path id="DejaVuSans-59" d="M -13 4666 
L 666 4666 
L 1959 2747 
L 3244 4666 
L 3922 4666 
L 2272 2222 
L 2272 0 
L 1638 0 
L 1638 2222 
L -13 4666 
z
" transform="scale(0.015625)"/>
      </defs>
      <use xlink:href="#DejaVuSans-59"/>
     </g>
    </g>
   </g>
   <g id="line2d_18"/>
   <g id="patch_3">
    <path d="M 57.6 281.664 
L 57.6 67.392 
" style="fill: none; stroke: #000000; stroke-width: 0.8; stroke-linejoin: miter; stroke-linecap: square"/>
   </g>
   <g id="patch_4">
    <path d="M 414.72 281.664 
L 414.72 67.392 
" style="fill: none; stroke: #000000; stroke-width: 0.8; stroke-linejoin: miter; stroke-linecap: square"/>
   </g>
   <g id="patch_5">
    <path d="M 57.6 281.664 
L 414.72 281.664 
" style="fill: none; stroke: #000000; stroke-width: 0.8; stroke-linejoin: miter; stroke-linecap: square"/>
   </g>
   <g id="patch_6">
    <path d="M 57.6 67.392 
L 414.72 67.392 
" style="fill: none; stroke: #000000; stroke-width: 0.8; stroke-linejoin: miter; stroke-linecap: square"/>
   </g>
  </g>
 </g>
 <defs>
  <clipPath id="p7c3f0d74e7">
   <rect x="57.6" y="67.392" width="357.12" height="214.272"/>
  </clipPath>
 </defs>
</svg>
